<svg xmlns="http://www.w3.org/2000/svg" width="94.76" height="95.771" viewBox="0 0 94.76 95.771"> <defs> <style>.cls-1{fill:#fff}.cls-1,.cls-2,.cls-3,.cls-5,.cls-6,.cls-7{stroke:#222;stroke-width:.4px}.cls-1,.cls-5,.cls-6,.cls-7{stroke-linecap:round}.cls-1,.cls-2,.cls-3,.cls-5,.cls-6,.cls-7{stroke-miterlimit:10}.cls-2,.cls-7{fill:#d1ed7a}.cls-3{fill:#ffd8b7}.cls-5{fill:#cbbede}.cls-6{fill:none}.cls-9{fill:#222}</style> </defs> <g id="Group_88111" data-name="Group 88111" transform="translate(.12 .196)"> <path id="Path_38810" d="M248.6 78.179a4.12 4.12 0 0 0-.913-2.635 2.906 2.906 0 0 0-2.2-1.1c-4.134-.255-8.462-.4-12.971-.413q-7.179 0-13.737.413a2.867 2.867 0 0 0-2.2 1.1 4.647 4.647 0 0 0-.914 2.635c-.23 2.577-.389 5.431-.389 8.522-.01 3.331.148 6.393.389 9.135a4.46 4.46 0 0 0 .082.857 4.2 4.2 0 0 0 .83 1.777 3.078 3.078 0 0 0 1.229.953c.822.327 1.251-.018 1.41.224.5.757-3.294 4.724-2.846 5.5.068.119.389.427 4.034-1.508 3.506-1.864 4.212-2.686 5.97-3.331a16.652 16.652 0 0 1 5.795-.374s8.865.01 13.312-.362a3.207 3.207 0 0 0 2.2-1.095 3.734 3.734 0 0 0 .442-.669 4.47 4.47 0 0 0 .469-1.967c.151-2.476.246-5.1.265-7.858.027-3.483-.076-6.763-.257-9.804z" class="cls-1" data-name="Path 38810" transform="translate(-154.424 -65.654)"/> <g id="Group_27336" data-name="Group 27336" transform="translate(67.724 16.142)"> <g id="Group_49741" data-name="Group 49741"> <path id="Path_38811" d="M243.115 98.046a4.964 4.964 0 0 1-1.347-.18c-1.228-.344-2.081-1.281-3.763-3.146l-.142-.16c-1.464 1.789-3.159 3.462-5.491 3.462h-.061a4.54 4.54 0 0 1-2.982-1.13 4.87 4.87 0 0 1-.739-5.765 4.713 4.713 0 0 1 3.7-2.376 6.507 6.507 0 0 1 4.7 2.387 7.144 7.144 0 0 1 .845.909c1.536-1.947 3.177-3.8 5.473-3.67a5.015 5.015 0 0 1 3.336 8.206 4.759 4.759 0 0 1-3.529 1.463zm-4.259-4.746l.32.356c1.487 1.646 2.232 2.469 3.021 2.69a3.341 3.341 0 0 0 3.292-.839 3.44 3.44 0 0 0-2.263-5.562c-1.614-.14-2.964 1.555-4.371 3.354zm-6.525 3.142h.04c1.761 0 3.108-1.429 4.464-3.121l-.069-.091a6.132 6.132 0 0 0-.845-.943c-1.143-1.058-2.242-2.051-3.522-1.971a3.159 3.159 0 0 0-2.439 1.585 3.278 3.278 0 0 0 .45 3.843 2.94 2.94 0 0 0 1.921.7z" class="cls-2" data-name="Path 38811" transform="translate(-227.966 -88.371)"/> </g> </g> <g id="Group_49744" data-name="Group 49744"> <g id="Group_49743" data-name="Group 49743"> <path id="Path_117836" d="M153.484 101.836a6.676 6.676 0 0 0 .492 4.592 6.1 6.1 0 0 0 3.356 2.595 31.245 31.245 0 0 0-6.714 10.086c-.512 1.313-1.188 3.337-2.235 3.369s-1.831-1.9-2.562-3.457a46.8 46.8 0 0 0-6.049-9.551c-.185.066-.371.142-.567.219a6.971 6.971 0 0 0 2.812-1.991 8.482 8.482 0 0 0 1.777-5.95 17.508 17.508 0 0 1-5.865-8.2 17.122 17.122 0 0 1-.785-6.487c.186-2.013.273-3.086.971-4.125 1.994-2.965 6.006-.733 10.638-3.993 3.183-2.254 3.673-4.354 5.548-4.245 3.411.2 5.385 7.319 5.559 8a18.986 18.986 0 0 1-.36 10.437 18.675 18.675 0 0 1-6.016 8.701z" class="cls-3" data-name="Path 117836" transform="translate(-116.935 -65.957)"/> <ellipse id="Ellipse_10368" cx="11.754" cy="15.837" class="cls-3" data-name="Ellipse 10368" rx="11.754" ry="15.837" transform="translate(20.023 5.565)"/> <path id="Path_117837" fill="#474747" stroke="#222" stroke-miterlimit="10" stroke-width="0.4px" d="M158.6 91.421a18.672 18.672 0 0 1-5.391 7.414c-2.268 1.888-4.765 3.033-6.751 2.922h-.045a3.18 3.18 0 0 1-.862-.139 6.089 6.089 0 0 1-3.355-2.6 5.876 5.876 0 0 1-.458-4.319 19.9 19.9 0 0 0 5.983-8.975 18.967 18.967 0 0 0 .36-10.434c-.176-.678-2.146-7.8-5.558-8-1.876-.11-2.1 3.854-6.1 7.573-4.508 4.193-8.23 4.835-9.979 4.859h-.012a5.07 5.07 0 0 1-.65-.017.1.1 0 0 0-.033 0l-.135-.012a.6.6 0 0 0-.082-.008.049.049 0 0 0-.024 0 1.354 1.354 0 0 1-.139-.024v.021c-.547 0-1.148.192-1.455 1.218-.462 1.553-.037 2.9 1.929 4.16.086.351.192.715.311 1.087a18.244 18.244 0 0 0 5.807 8.37 7.968 7.968 0 0 1-1.72 5.779 7.024 7.024 0 0 1-2.812 1.99.076.076 0 0 0-.045.02 10.92 10.92 0 0 1-2.309.58c-4.8.777-8.48-2.395-8.917-2.779a1.808 1.808 0 0 0-.208-.2c-3.972-3.592-4.3-9.064-4.467-11.03-.711-8.215 5.158-17.283 11.165-22.788 3.613-3.306 8.607-7.883 15.469-7.52 5.018.266 8.512 3.045 10.63 4.729 8.219 6.537 13.425 18.928 9.853 28.123z" data-name="Path 117837" transform="translate(-105.159 -58.551)"/> <path id="Path_117838" d="M178.758 102.239c3.047-1.439 4.2-4.142 3.472-5.633-.587-1.2-2.329-1.475-2.736-1.53a20.742 20.742 0 0 1-.736 7.162z" class="cls-3" data-name="Path 117838" transform="translate(-136.043 -75.305)"/> <path id="Path_117839" d="M136.284 102.96c-1.966-1.259-2.391-2.608-1.929-4.16.306-1.026.907-1.222 1.455-1.218a16.757 16.757 0 0 0 .474 5.378z" class="cls-3" data-name="Path 117839" transform="translate(-115.598 -76.453)"/> <path id="Path_117840" d="M108.435 190.375c2.837-19.907 4.208-27.228 4.171-28.689-1.544 1.349-3.931.939-6.222.546-3.1-.533-5.664-.973-6.343-2.638-.487-1.193-.439-2.772 5.079-9.8 5.04-6.419 7.932-8.174 9.1-8.975 3.461-2.369 8.261-2.188 8.464-2.268a41.166 41.166 0 0 1 6.049 9.551c.628 1.411 1.376 3.109 2.356 3.092.807-.014 1.173-1.19 3.141-4.759a43.072 43.072 0 0 1 3.021-4.942 25.412 25.412 0 0 1 2.993-3.39c.094.014.235.035.406.063a23.478 23.478 0 0 1 12.127 6.056c1.036 1 2.533 3.487 5.528 8.459 3.109 5.161 3.488 6.433 3.051 7.67-.877 2.48-4.468 3.217-6.223 3.578-1.816.373-4.922.611-6.621-.365.077 1.606 3.573 24.716 4.05 26.811" class="cls-1" data-name="Path 117840" transform="translate(-99.85 -95.04)"/> <path id="Path_117841" d="M174.234 147.287c.289-1.475.556-3.016.793-4.621q.3-2.055.51-3.991" class="cls-5" data-name="Path 117841" transform="translate(-133.968 -95.302)"/> <path id="Path_117842" d="M161.029 169.148c-1.546.076-2.457-.271-2.93-.88-2.306-2.964 4.046-14.349 8.415-13.739 4.526.631 7.406 14.2 4.332 16.256-.62.415-1.582.427-3.021-.182" class="cls-6" data-name="Path 117842" transform="translate(-126.342 -102.563)"/> <path id="Path_117843" d="M136.7 139.407a64.747 64.747 0 0 0 .725 6.823 57.441 57.441 0 0 0 1.721 7.231" class="cls-6" data-name="Path 117843" transform="translate(-116.75 -95.637)"/> <ellipse id="Ellipse_10369" cx="2.243" cy="2.251" class="cls-7" data-name="Ellipse 10369" rx="2.243" ry="2.251" transform="translate(20.535 57.05)"/> <ellipse id="Ellipse_10370" cx="1.369" cy="1.374" class="cls-7" data-name="Ellipse 10370" rx="1.369" ry="1.374" transform="translate(33.038 65.143)"/> <ellipse id="Ellipse_10371" cx="1.369" cy="1.374" class="cls-7" data-name="Ellipse 10371" rx="1.369" ry="1.374" transform="translate(40.499 66.583)"/> <path id="Line_147" d="M0 10.96L3.353 0" class="cls-5" data-name="Line 147" transform="translate(12.696 56.505)"/> <path id="Path_117844" d="M199.479 168.378l-1.1.241a.357.357 0 0 1-.43-.262l-.233-1.05a1.145 1.145 0 0 0-2.244.447l.241 1.089a.36.36 0 0 1-.286.422l-1.173.257a1.142 1.142 0 0 0-.907 1.331 1.138 1.138 0 0 0 1.384.82l1.171-.266a.359.359 0 0 1 .437.261l.235 1.059a1.1 1.1 0 0 0 1.088.865 1.149 1.149 0 0 0 1.146-1.356l-.239-1.079a.359.359 0 0 1 .279-.421l1.1-.251a1.106 1.106 0 0 0 .856-1.3 1.1 1.1 0 0 0-1.325-.807z" class="cls-2" data-name="Path 117844" transform="translate(-142.721 -108.03)"/> <path id="Path_117845" d="M168.384 184.877a24.436 24.436 0 0 1-2.216 7.479c-1.622 3.555-3.332 4.792-4.108 5.276-1.783 1.11-3.626 1.348-8.216 1.334a95.317 95.317 0 0 1-10.149-.424c-4.827-.6-11.672-1.693-19.531-3.038 0 0 9.936-1.03 16.631-1.994 7.823-1.127 17.316-3.036 17.316-3.036a13.38 13.38 0 0 0 1.231-3.453c.132-.66.24-1.332.33-2a6.408 6.408 0 0 0 3.3.688 15.7 15.7 0 0 0 5.412-.832z" class="cls-3" data-name="Path 117845" transform="translate(-111.002 -116.493)"/> <g id="Group_49742" data-name="Group 49742" transform="translate(2.502 66.303)"> <path id="Path_117846" d="M149.056 188.731c-3.1.614-5.9 1.129-8.352 1.557-1.472.258-4.717.816-8.941 1.456-3.361.508-5.2.785-7.733 1.091a89.822 89.822 0 0 1-10.9.909c-6.019.044-7.02-.663-7.566-1.273-1.448-1.619-1.145-4.176-.816-6.958a21.3 21.3 0 0 1 .9-4.141 38.8 38.8 0 0 0 6.37.926c2.312.051 3.007-1.267 3.007-1.267-.043.153-.61 3.806-.838 4.732" class="cls-3" data-name="Path 117846" transform="translate(-104.473 -181.032)"/> <path id="Path_117847" fill="#f8cdd9" stroke="#222" stroke-miterlimit="10" stroke-width="0.4px" d="M115.71 189.509q8.17.292 16.8.894c7.537.532 14.724 1.4 21.7 2.217" data-name="Path 117847" transform="translate(-109.627 -184.92)"/> </g> </g> <circle id="Ellipse_10372" cx=".855" cy=".855" r=".855" class="cls-9" data-name="Ellipse 10372" transform="translate(35.428 20.494)"/> <circle id="Ellipse_10373" cx=".855" cy=".855" r=".855" class="cls-9" data-name="Ellipse 10373" transform="translate(27.71 20.494)"/> <path id="Path_117848" fill="none" stroke="#222" stroke-linecap="round" stroke-linejoin="round" stroke-width="0.4px" d="M160.348 98.44c-.248 1.173-.248 1.936.217 2.373.215.2.584.147.86.269a.884.884 0 0 1 .238 1.317 2.873 2.873 0 0 1-1.328.838" data-name="Path 117848" transform="translate(-127.523 -76.501)"/> <path id="Path_117849" d="M165.792 90.22a3.724 3.724 0 0 1 1.952.988" class="cls-6" data-name="Path 117849" transform="translate(-130.096 -73.077)"/> <path id="Path_117850" d="M151.159 91.109a2.635 2.635 0 0 0-1.566 1.438" class="cls-6" data-name="Path 117850" transform="translate(-122.666 -73.485)"/> <path id="Path_117851" d="M156.057 112.143c1 3.11 4.138 3.11 5.137 0" class="cls-6" data-name="Path 117851" transform="translate(-125.63 -83.132)"/> <path id="Path_117852" d="M186.469 168.785a17.3 17.3 0 0 1 .752 4.761c.04 2.025-.311 2.454.09 3.183a3.21 3.21 0 0 0 1.987 1.326" class="cls-6" data-name="Path 117852" transform="translate(-139.579 -109.112)"/> </g> </g></svg>