<svg xmlns="http://www.w3.org/2000/svg" width="89.401" height="95.484" viewBox="0 0 89.401 95.484"> <defs> <style>.cls-1{fill:#ffd8b7}.cls-1,.cls-4,.cls-5,.cls-6,.cls-8{stroke:#222;stroke-width:.4px}.cls-1,.cls-4,.cls-5,.cls-6{stroke-miterlimit:10}.cls-5{fill:#fff}.cls-4,.cls-8{fill:none}.cls-4,.cls-5,.cls-8{stroke-linecap:round}.cls-6{fill:#474747}.cls-7{fill:#222}.cls-8{stroke-linejoin:round}</style> </defs> <g id="Group_88112" data-name="Group 88112" transform="translate(.276 .205)"> <g id="Group_49748" data-name="Group 49748" transform="translate(33.556)"> <g id="Group_49747" data-name="Group 49747"> <path id="Path_117854" d="M474.479 193.445a71.427 71.427 0 0 0 .737-18.592c-.19-2.061-.462-4.02-.792-5.869l-7.629.68.673 23.7" class="cls-1" data-name="Path 117854" transform="translate(-424.658 -101.934)"/> <path id="Path_117855" d="M420.608 96.329c.442 1.164.484 7.721-.251 9.048-.9 1.621-3.442 1.711-5.111 2.277 1.4 3.681 7.619 8.677 11.4 8.737 3.41.055 11.6-4.781 13.309-7.858-4.123-.972-7.194 0-7.419-3.321a28.179 28.179 0 0 1 .3-7.963z" class="cls-1" data-name="Path 117855" transform="translate(-400.829 -68.349)"/> <path id="Path_117856" fill="#fff" d="M404.341 157.6c.238 4.8.281 10.07 0 15.745-.256 5.172-.748 9.98-1.369 14.376l2.981 4.232 4.543-25.2z" data-name="Path 117856" transform="translate(-395.155 -96.67)"/> <path id="Path_117857" fill="#ffd889" stroke="#222" stroke-miterlimit="10" stroke-width="0.4px" d="M398.071 168.933q.258-10.882 0-22.5-.124-5.22-.356-10.283c-2.151-.572-4.069-1.148-5.725-1.68-2.545-.819-3.459-1.21-3.548-1.867-.112-.832 1.222-1.213 2.741-3.465a12.541 12.541 0 0 0 1.145-2.094c1.086-2.392 1.366-4.035 3.209-6.473 0 0 .34-.423.732-.824.82-.836 2.592-1.939 9.082-3.558 4.862 8.349 15.767 5.14 16.76.672 11.807 1.125 13.626 4.477 14.383 7.059.273.934 2.664 8.572 3.464 10.338 2.717 6 4.682 8.07 3.689 9.366-.461.6-1.224.54-4.825.835-2.882.236-5.235.508-6.818.709l.928 23.789" data-name="Path 117857" transform="translate(-388.436 -77.531)"/> <path id="Path_117858" d="M467.005 159.718a48.1 48.1 0 0 0-2.979-13.783" class="cls-4" data-name="Path 117858" transform="translate(-423.378 -91.279)"/> <path id="Path_117859" d="M406.685 144.107a65.15 65.15 0 0 0-.683 7.1q-.056 1.372-.054 2.675" class="cls-5" data-name="Path 117859" transform="translate(-396.531 -90.434)"/> <g id="Group_49746" data-name="Group 49746" transform="translate(12.027)"> <path id="Path_117860" d="M414.147 82.149c-.224.012-2.526.159-3.166 1.535-.673 1.447.544 4.143 3.671 5.435a16.872 16.872 0 0 1-.5-6.97z" class="cls-1" data-name="Path 117860" transform="translate(-410.802 -61.794)"/> <path id="Path_117861" d="M456.11 81.9c.224.012 2.526.159 3.166 1.535.673 1.447-.544 4.143-3.671 5.435a16.87 16.87 0 0 0 .5-6.97z" class="cls-1" data-name="Path 117861" transform="translate(-431.513 -61.681)"/> <ellipse id="Ellipse_10374" cx="11.102" cy="15.257" class="cls-1" data-name="Ellipse 10374" rx="11.102" ry="15.257" transform="translate(2.914 6.924)"/> <path id="Path_117862" d="M429.566 44.928a14.554 14.554 0 0 0-9.753.46c-1.038.439-5.722 2.408-7.485 7.36-1.933 5.429.592 11.512 1.928 11.5 1.192-.011.674-4.878 3.944-6.77 2.215-1.281 3.415.382 7.4-.783 3.081-.9 3.883-2.341 5.667-1.853 1.658.454 2.586 2.142 3.292 3.426 1.824 3.316 1.239 5.946 1.844 6.045.943.155 4.593-5.887 2.692-11.565-1.895-5.648-8.102-7.414-9.529-7.82z" class="cls-6" data-name="Path 117862" transform="translate(-411.183 -44.296)"/> </g> </g> <circle id="Ellipse_10375" cx=".805" cy=".805" r=".805" class="cls-7" data-name="Ellipse 10375" transform="translate(21.413 22.016)"/> <circle id="Ellipse_10376" cx=".805" cy=".805" r=".805" class="cls-7" data-name="Ellipse 10376" transform="translate(28.682 22.016)"/> <path id="Path_117863" d="M436.166 87.163c-.271 1.26-.271 2.081.238 2.549.236.217.639.158.941.289a.94.94 0 0 1 .261 1.415 3.153 3.153 0 0 1-1.454.9" class="cls-8" data-name="Path 117863" transform="translate(-410.416 -64.112)"/> <path id="Path_117864" d="M430.137 77.5a3.507 3.507 0 0 0-1.838.93" class="cls-4" data-name="Path 117864" transform="translate(-406.863 -59.643)"/> <path id="Path_117865" d="M443.4 77.5a2.483 2.483 0 0 1 1.474 1.354" class="cls-4" data-name="Path 117865" transform="translate(-413.841 -59.643)"/> <path id="Path_117866" d="M437.539 97.8c-.356 4.1-7.269 4.563-8.408.026" class="cls-4" data-name="Path 117866" transform="translate(-407.247 -69.027)"/> </g> <path id="Path_117867" d="M344.016 90.783a23.639 23.639 0 0 1-3.06-10.532c-.441-10.54 5.659-24.364 16.413-27.322a13.106 13.106 0 0 1 7.789-.147c6.95 2.25 9.661 10.441 14.534 26.07 5.324 17.071 3.449 20.316 2.3 21.608-.755.845-2.2 1.971-7.445 2.274-4.984.288-22.915 1.323-30.531-11.951z" class="cls-6" data-name="Path 117867" transform="translate(-332.921 -47.97)"/> <path id="Path_117868" d="M378.239 126.468c-3.064-2.074-7.922-2.277-10.5-6.545a10.911 10.911 0 0 1-1.125-5.166l-7.521-1.134c-.112 1.129-.369 3.633-1.746 5.061-.91.946-1.974 1.483-7.506 3.3-4.9 1.615-5.265 2.236-6.024 3.237" class="cls-1" data-name="Path 117868" transform="translate(-334.256 -76.342)"/> <path id="Path_117869" d="M373.471 69.957c4.754 1.2 8.344 6.634 8.344 13.159 0 7.414-4.637 13.418-10.346 13.418s-10.359-6-10.359-13.418a18.157 18.157 0 0 1 .245-2.941" class="cls-1" data-name="Path 117869" transform="translate(-342.248 -56.158)"/> <path id="Path_117870" fill="#454545" stroke="#222" stroke-miterlimit="10" stroke-width="0.4px" d="M376.2 54.881a25.4 25.4 0 0 1-6.076 12.207 23.1 23.1 0 0 1-9.711 6.336" data-name="Path 117870" transform="translate(-341.926 -49.189)"/> <path id="Path_117872" d="M358.067 89.058c-.245.013-2.772.182-3.474 1.759-.738 1.658.6 4.748 4.028 6.229a20.166 20.166 0 0 1-.554-7.988z" class="cls-1" data-name="Path 117872" transform="translate(-339.145 -64.988)"/> <path id="Path_117873" fill="#daf0f3" stroke="#222" stroke-miterlimit="10" stroke-width="0.4px" d="M371.689 174.868c-2.153-17.841-3.237-24.408-3.176-25.714 1.354 1.235 6.257.053 8.33.19 4.606.307-4.992-16.8-9.373-18.865-3.391-1.6-6.261-2.576-6.442-2.652a10.092 10.092 0 0 1-15.517-1.139c-.085.01-8.091 1.95-12.558 6.09-.944.875-4.222 6.666-6.848 11.958-.393.79.851 2.87 3.26 4.48a9.3 9.3 0 0 0 7.027.926c-.1 1.434-3.667 22.015-4.134 23.877" data-name="Path 117873" transform="translate(-326.034 -82.383)"/> <circle id="Ellipse_10377" cx=".805" cy=".805" r=".805" class="cls-7" data-name="Ellipse 10377" transform="translate(32.614 25.638)"/> <circle id="Ellipse_10378" cx=".805" cy=".805" r=".805" class="cls-7" data-name="Ellipse 10378" transform="translate(25.345 25.638)"/> <path id="Path_117874" d="M381.054 93.9c-.234 1.184-.234 1.955.2 2.4.2.2.55.148.809.271a.93.93 0 0 1 .224 1.33 2.69 2.69 0 0 1-1.251.846" class="cls-8" data-name="Path 117874" transform="translate(-351.395 -67.225)"/> <path id="Path_117875" d="M386.216 85.169a3.507 3.507 0 0 1 1.838.931" class="cls-4" data-name="Path 117875" transform="translate(-353.854 -63.19)"/> <path id="Path_117876" d="M372.333 86.012a2.481 2.481 0 0 0-1.474 1.354" class="cls-4" data-name="Path 117876" transform="translate(-346.754 -63.579)"/> <path id="Path_117877" d="M375.089 105.62a4.908 4.908 0 0 0 7.2.119" class="cls-4" data-name="Path 117877" transform="translate(-348.71 -72.643)"/> <g id="Group_49749" data-name="Group 49749" transform="translate(29.214 58.197)"> <path id="Path_117878" fill="#ccc1e0" stroke="#222" stroke-miterlimit="10" stroke-width="0.4px" d="M409.551 204.931a8.956 8.956 0 0 0-1.5-4.448c-2.543-3.655-6.814-3.048-8.752-6.129-.748-1.188-1.364-3.266-.164-7.051l-8.117-.164c1.338 4.117.718 6.259-.163 7.461-2 2.729-6.124 1.672-8.753 4.837a8.432 8.432 0 0 0-1.742 5.165" data-name="Path 117878" transform="translate(-380.362 -168.523)"/> <path id="Path_117879" d="M398.5 194.6c.882-1.2 1.5-3.344.163-7.461l8.117.164c-1.2 3.785-.584 5.863.164 7.051a10.451 10.451 0 0 0 1.73 1.681 9.8 9.8 0 0 1-11.781.073 12.637 12.637 0 0 0 1.607-1.508z" class="cls-1" data-name="Path 117879" transform="translate(-388.003 -168.523)"/> <path id="Path_117880" d="M390.259 171.855c-.2.018-2.242.222-2.745 1.314-.528 1.147.688 3.189 3.537 4.067a11.722 11.722 0 0 1-.714-2.616 11.427 11.427 0 0 1-.078-2.765z" class="cls-1" data-name="Path 117880" transform="translate(-383.613 -161.458)"/> <path id="Path_117881" d="M421.578 171.855c.2.018 2.242.222 2.745 1.314.528 1.147-.688 3.189-3.537 4.067a11.719 11.719 0 0 0 .714-2.616 11.388 11.388 0 0 0 .078-2.765z" class="cls-1" data-name="Path 117881" transform="translate(-399.048 -161.458)"/> <path id="Path_117882" d="M408.814 167.483c0 5.648-3.82 10.228-8.532 10.228s-8.532-4.579-8.532-10.228 3.82-10.228 8.532-10.228 8.532 4.579 8.532 10.228z" class="cls-1" data-name="Path 117882" transform="translate(-385.626 -154.709)"/> <path id="Path_117883" fill="#373738" stroke="#222" stroke-miterlimit="10" stroke-width="0.4px" d="M391.033 164c1.748.9 8.52-.357 11.616-3.465 3.318-3.331 3.818 3.864 5.438 2.891 1.236-.743.824-4.31-.655-6.723a9.288 9.288 0 0 0-8.117-4.182 9.6 9.6 0 0 0-8.773 6.4c-.529 1.734-.676 4.479.491 5.079z" data-name="Path 117883" transform="translate(-384.884 -152.521)"/> </g> <path id="Path_117884" d="M332.854 169.089s-1.114 7.88 1.343 12.391c2.143 3.935 7.433 9.571 19.009 11.7 1.315 1.917 4.522 2.559 6.847 2.575 4.348.028 2.377-4.064 1.04-5.151-.906-.736-4.859-.3-7.145-.9-7.655-2.006-11.535-5.866-13.593-10.56-.93-2.121-.743-8.825-.926-9.394 0-.007-2.686 1.05-6.575-.661z" class="cls-1" data-name="Path 117884" transform="translate(-329.07 -101.982)"/> <path id="Path_117885" d="M408.494 180.29c.285.07.431.035.642.091a.707.707 0 0 1 .351.962 2.048 2.048 0 0 1-.817.8" class="cls-8" data-name="Path 117885" transform="translate(-364.152 -107.16)"/> <circle id="Ellipse_10379" cx=".516" cy=".516" r=".516" class="cls-7" data-name="Ellipse 10379" transform="translate(46.577 70.766)"/> <circle id="Ellipse_10380" cx=".516" cy=".516" r=".516" class="cls-7" data-name="Ellipse 10380" transform="translate(41.917 70.766)"/> <path id="Path_117886" d="M405.217 185.831a3.145 3.145 0 0 0 4.612.076" class="cls-4" data-name="Path 117886" transform="translate(-362.637 -109.722)"/> <path id="Path_117887" d="M345.3 164.283s1.852-5.525 1.852-7.005" class="cls-5" data-name="Path 117887" transform="translate(-334.938 -96.523)"/> </g></svg>