<svg xmlns="http://www.w3.org/2000/svg" width="73.743" height="95.607" viewBox="0 0 73.743 95.607"> <defs> <style>.cls-1,.cls-3,.cls-4{fill:#ffd8b7;stroke:#222;stroke-miterlimit:10;stroke-width:.4px}.cls-3,.cls-4{fill:#fff;stroke-linecap:round}.cls-4{fill:none}.cls-6{fill:#222}</style> </defs> <g id="Group_88109" data-name="Group 88109" transform="translate(.211 .205)"> <g id="Group_49753" data-name="Group 49753" transform="translate(6.215)"> <path id="Path_117888" d="M497.02 319.5a14.226 14.226 0 0 0-.469 8.645c.761 2.84 1.25 2.761 5.48 4.109-1.445 3.813-7.349 7.963-11.268 8.026-3.532.057-13.4-4.448-15.168-7.635 1.986-.184 7.946-1.1 9.067-3.944 1.355-3.436.115-6.623-.313-8.248z" class="cls-1" data-name="Path 117888" transform="translate(-460.049 -290.515)"/> <path id="Path_117889" fill="#daf0f3" stroke="#222" stroke-miterlimit="10" stroke-width="0.4px" d="M494.192 395.115c-.178-7.514.311-15.218.23-23.233-.011-1.118.163-3.051.163-5.794 2.228-.592 8-2.029 9.556-3.878 1.785-2.117-1.24-5.976-2.814-8.308a12.942 12.942 0 0 1-1.186-2.17c-1.125-2.477-1.415-4.179-3.323-6.7 0 0-.352-.438-.759-.853-.849-.866-4-1.5-10.719-3.172-.915 2.718-4.066 4.581-8.141 4.653-4.012.071-8.019-1.755-9.044-4.438-12.434 1.914-13.221 3.8-14 6.474-.283.967-.868 3.107-1.775 7.021a23.732 23.732 0 0 1-1.568 4.491c-2.815 6.219-4.849 8.359-3.821 9.7.477.623 1.268.559 5 .865 2.985.244 5.422.526 7.062.734l-.961 24.639" data-name="Path 117889" transform="translate(-446.714 -300.445)"/> <path id="Path_117890" d="M469.509 385.1a49.805 49.805 0 0 1 3.086-14.275" class="cls-3" data-name="Path 117890" transform="translate(-457.239 -314.215)"/> <path id="Path_117891" d="M534.636 370.217a44.091 44.091 0 0 1 .544 9.36" class="cls-4" data-name="Path 117891" transform="translate(-487.309 -313.934)"/> <g id="Group_49751" data-name="Group 49751" transform="translate(15.534)"> <path id="Path_117892" d="M523.43 304.824c.231.012 2.616.164 3.279 1.59.7 1.5-.563 4.291-3.8 5.629a17.5 17.5 0 0 0 .523-7.219z" class="cls-1" data-name="Path 117892" transform="translate(-497.427 -283.741)"/> <path id="Path_117893" d="M480.012 304.57c-.231.012-2.616.165-3.279 1.59-.7 1.5.563 4.291 3.8 5.63a17.5 17.5 0 0 1-.523-7.22z" class="cls-1" data-name="Path 117893" transform="translate(-476.022 -283.623)"/> <ellipse id="Ellipse_10381" cx="11.499" cy="15.802" class="cls-1" data-name="Ellipse 10381" rx="11.499" ry="15.802" transform="translate(3.451 7.172)"/> <path id="Path_117894" fill="#474747" stroke="#222" stroke-miterlimit="10" stroke-width="0.4px" d="M486 266.311a15.074 15.074 0 0 1 10.1.476c1.075.455 5.926 2.494 7.752 7.623 2 5.623-.614 11.924-2 11.91-1.235-.011-.7-5.053-4.085-7.012-2.294-1.327-3.537.4-7.661-.812-3.191-.933-4.022-2.426-5.869-1.919-1.717.47-2.679 2.219-3.41 3.549-1.889 3.434-1.283 6.159-1.909 6.261-.977.16-4.757-6.1-2.789-11.978 1.961-5.851 8.391-7.678 9.871-8.098z" data-name="Path 117894" transform="translate(-475.572 -265.656)"/> </g> <g id="Group_49752" data-name="Group 49752" transform="translate(25.989 19.578)"> <circle id="Ellipse_10382" cx=".806" cy=".806" r=".806" class="cls-6" data-name="Ellipse 10382" transform="translate(.481 4.167)"/> <circle id="Ellipse_10383" cx=".806" cy=".806" r=".806" class="cls-6" data-name="Ellipse 10383" transform="translate(7.757 4.167)"/> <path id="Path_117895" fill="none" stroke="#222" stroke-linecap="round" stroke-linejoin="round" stroke-width="0.4px" d="M503.8 311.694c-.272 1.262-.272 2.083.238 2.553.236.217.639.158.942.289a.941.941 0 0 1 .26 1.417 3.165 3.165 0 0 1-1.455.9" data-name="Path 117895" transform="translate(-498.977 -306.491)"/> <path id="Path_117896" d="M496.836 302.028a3.514 3.514 0 0 0-1.84.932" class="cls-4" data-name="Path 117896" transform="translate(-494.996 -302.028)"/> <path id="Path_117897" d="M510.093 302.028a2.486 2.486 0 0 1 1.476 1.355" class="cls-4" data-name="Path 117897" transform="translate(-501.967 -302.028)"/> <path id="Path_117898" d="M504.244 322.329c-.356 4.1-7.276 4.567-8.416.026" class="cls-4" data-name="Path 117898" transform="translate(-495.38 -311.401)"/> </g> </g> <g id="Group_49754" data-name="Group 49754" transform="translate(0 54.997)"> <path id="Path_117899" d="M445.833 380.7v16.57a10.085 10.085 0 0 0 10.067 10.074c6.721.445 13.887.7 21.453.688 7.1-.014 13.852-.268 20.2-.688a10.2 10.2 0 0 0 4.6-1.119 10.652 10.652 0 0 0 5.049-6.09 9.958 9.958 0 0 0 .422-2.866s.078-20.389-2.235-24.763a9.643 9.643 0 0 0-4.876-3.45 10.031 10.031 0 0 0-2.964-.448c-6.107-.458-12.624-.745-19.512-.777-7.873-.037-15.275.262-22.146.777-2.9 0-7.767 2.737-8.314 3.654.009.001-1.744 2.798-1.744 8.438z" class="cls-3" data-name="Path 117899" transform="translate(-440.092 -367.828)"/> <path id="Path_117900" d="M440.03 383.361c.387-1.313 2.946-1.673 5.213-1.751 1.934-.066 6.322-2.027 5.108-6.06-.866-2.879-5.605-2.668-6.425-2.42-.062.019-.659.224-.705.142a.962.962 0 0 1 .6-.958 1.541 1.541 0 0 0 1.124-1.234c-.045-1.593-3.518.224-6.023 2.65a12.011 12.011 0 0 0-1.686 2.207 9.6 9.6 0 0 0-1.687 3.329c-.141.712-2.291 11.136 5.357 16.408v-10.345s-1.028-1.451-.876-1.968z" class="cls-1" data-name="Path 117900" transform="translate(-435.167 -369.053)"/> <path id="Path_117901" d="M552.255 395.675c7.648-5.272 5.555-15.7 5.413-16.408a9.611 9.611 0 0 0-1.687-3.329 12.035 12.035 0 0 0-1.687-2.207c-2.506-2.425-5.979-4.243-6.024-2.65a1.543 1.543 0 0 0 1.125 1.234.961.961 0 0 1 .6.958c-.046.083-.643-.123-.705-.142-.82-.249-4.981-.218-6.425 2.42-1.109 2.025 0 5.936 5.108 6.06a10 10 0 0 1 5.213 1.751s.283.717-1.33 1.78z" class="cls-1" data-name="Path 117901" transform="translate(-484.715 -369.053)"/> </g> <g id="Group_49755" data-name="Group 49755" transform="translate(26.177 45.961)"> <circle id="Ellipse_10384" cx="10.464" cy="10.464" r="10.464" fill="#d1ed7a" stroke="#222" stroke-miterlimit="10" stroke-width="0.4px" data-name="Ellipse 10384"/> <path id="Path_117902" fill="#2d2d2d" d="M507.238 367.228c-.4.051-.812.082-1.22.116a3.8 3.8 0 0 0-.851-1.5c.714.027 1.419.065 2.107.122a.7.7 0 0 0 .109-1.4c-1.28-.1-2.653-.16-4.081-.164-.133 0-.266.008-.4.009a.805.805 0 0 0-.1 0c-1.147.013-2.3.061-3.436.154a.7.7 0 0 0 .059 1.4h.057c.993-.082 2-.126 3-.143a1.1 1.1 0 0 1 .517.11 3.326 3.326 0 0 1 1.551 1.5c-.351.013-.7.035-1.053.037a31.642 31.642 0 0 1-3.987-.244.7.7 0 0 0-.171 1.393 32.364 32.364 0 0 0 4.042.255h.121c.329 0 .659-.022.988-.034a2.407 2.407 0 0 1-.968.862 3.308 3.308 0 0 1-2.126.086c-.638-.119-1.363-.255-1.771.37-.569.872.382 2.107 1.494 3.311a15.283 15.283 0 0 0 4.194 3.177.7.7 0 1 0 .65-1.245 13.949 13.949 0 0 1-3.813-2.885 10.557 10.557 0 0 1-1.109-1.367l.1.018a4.64 4.64 0 0 0 2.989-.2 3.764 3.764 0 0 0 1.708-1.668 1.089 1.089 0 0 1 .883-.609c.231-.021.463-.045.692-.074a.7.7 0 0 0 .609-.785.714.714 0 0 0-.784-.602zm-3.854 1.275z" data-name="Path 117902" transform="translate(-492.595 -359.775)"/> <path id="Line_148" fill="#fff" stroke="#2d2d2d" stroke-linecap="round" stroke-miterlimit="10" stroke-width="0.4px" d="M0 0L11.14 9.813" data-name="Line 148" transform="translate(5.277 5.021)"/> </g> <g id="Group_49757" data-name="Group 49757" transform="translate(27.449 70.516)"> <g id="Group_49756" data-name="Group 49756"> <path id="Path_117903" fill="#f8cdd9" d="M497.522 394.8h-3.548a1.343 1.343 0 0 1-1.342-1.343v-3.548a2.27 2.27 0 0 0-1.773-2.271 2.182 2.182 0 0 0-2.58 2.139v3.68a1.343 1.343 0 0 1-1.342 1.343h-3.548a2.269 2.269 0 0 0-2.271 1.773 2.182 2.182 0 0 0 2.139 2.58h3.68a1.342 1.342 0 0 1 1.342 1.342v3.548a2.27 2.27 0 0 0 1.773 2.271 2.182 2.182 0 0 0 2.58-2.139V400.5a1.342 1.342 0 0 1 1.342-1.342h3.68a2.182 2.182 0 0 0 2.14-2.58 2.27 2.27 0 0 0-2.272-1.778z" data-name="Path 117903" transform="translate(-481.08 -387.606)"/> <path id="Path_38797" fill="#f08798" d="M494.252 408.179a1.77 1.77 0 0 1-1.161-.58 12.9 12.9 0 0 1-1.866-1.95c-.212-.235-1.82-2.037-1.9-3.5a2.745 2.745 0 0 1 .082-.822 2.583 2.583 0 0 1 .99-1.355 2.819 2.819 0 0 1 3.388.327c.152.19.31.494.559.491s.385-.3.558-.513a2.565 2.565 0 0 1 3.037-.4 2.345 2.345 0 0 1 .915 1.161 2.568 2.568 0 0 1 .147 1.112 6.1 6.1 0 0 1-1.637 3.271 13.624 13.624 0 0 1-2.041 2.229 1.667 1.667 0 0 1-1.071.529z" data-name="Path 38797" transform="translate(-484.953 -393.739)"/> </g> </g> </g></svg>