<svg xmlns="http://www.w3.org/2000/svg" width="102.697" height="95.504" viewBox="0 0 102.697 95.504"> <defs> <style>.cls-1{fill:#ffd8b7}.cls-1,.cls-10,.cls-3,.cls-4,.cls-5,.cls-8,.cls-9{stroke:#222}.cls-1,.cls-10,.cls-3,.cls-4,.cls-9{stroke-miterlimit:10}.cls-1,.cls-10,.cls-3,.cls-4,.cls-5,.cls-7,.cls-8,.cls-9{stroke-width:.4px}.cls-5{fill:#fff}.cls-10,.cls-5,.cls-8,.cls-9{stroke-linecap:round}.cls-3{fill:#373738}.cls-4,.cls-8,.cls-9{fill:none}.cls-5,.cls-8{stroke-linejoin:round}.cls-10{fill:#c2d677}.cls-7{fill:#222;stroke:#707070}</style> </defs> <g id="Group_88110" data-name="Group 88110" transform="translate(.198 .165)"> <g id="Group_49765" data-name="Group 49765"> <path id="Path_117923" d="M362.525 344.643q1.889-2.874 1.356-3.431-.765-.8-6.543 3.192" class="cls-1" data-name="Path 117923" transform="translate(-282.231 -298.604)"/> <path id="Path_38810" fill="#fff" stroke="#222" stroke-linecap="round" stroke-miterlimit="10" stroke-width="0.4px" d="M384.382 292.413a3.818 3.818 0 0 0-.846-2.439 2.688 2.688 0 0 0-2.032-1.013c-3.826-.236-7.832-.375-12.006-.382q-6.644 0-12.714.382a2.65 2.65 0 0 0-2.032 1.013 4.3 4.3 0 0 0-.845 2.439c-.213 2.385-.361 5.026-.361 7.888-.009 3.083.137 5.917.361 8.456a4.162 4.162 0 0 0 .075.793 3.893 3.893 0 0 0 .768 1.644 2.855 2.855 0 0 0 1.137.882c.761.3 1.158-.017 1.306.207.461.7-3.049 4.372-2.635 5.086.063.11.361.395 3.734-1.4 3.246-1.726 3.9-2.486 5.526-3.083a15.4 15.4 0 0 1 5.364-.346s8.205.008 12.322-.336a2.97 2.97 0 0 0 2.032-1.013 3.445 3.445 0 0 0 .409-.619 4.142 4.142 0 0 0 .435-1.821c.139-2.291.227-4.72.246-7.273.021-3.219-.075-6.251-.244-9.065z" data-name="Path 38810" transform="translate(-282.329 -276.009)"/> <path id="Path_117924" d="M257 306.465a23.2 23.2 0 0 1-3.41-10.918c-.492-10.926 6.307-25.258 18.292-28.324a15.654 15.654 0 0 1 8.681-.153c7.747 2.332 10.767 10.824 16.2 27.027 5.933 17.7 3.844 21.061 2.558 22.4-.842.877-2.452 2.044-8.3 2.358-5.55.298-25.535 1.372-34.021-12.39z" class="cls-3" data-name="Path 117924" transform="translate(-237.568 -266.512)"/> <path id="Path_117925" d="M247.8 343.53c.862-3.8 2.589-5.271 3.5-5.873a5.179 5.179 0 0 1 .576-.339c.927-.479 2.1-.736 6.619-2.143 6.168-1.916 7.353-2.48 8.367-3.475a7.172 7.172 0 0 0 2.08-4.468l8.1 1.054a9.032 9.032 0 0 0 1.4 4.717c1.693 2.652 8.856 3.366 11.7 6.888 3.574 4.429.684 13.849 2.419 20.514.232.891.662 2.177 1.556 2.394s1.848-.734 2.394-1.316c4.015-4.292 6.9-11.137 9.425-16.685.341-.751.616-1.346.743-1.622l-.036.1c.054-.141.149-.377.276-.664a10.544 10.544 0 0 1 1.889-3.062 8.943 8.943 0 0 1 .868-.808c1.832-1.448 4.632-.042 8.5-.12 2.536-.051 3.155-.693 8.258-1.077 1.035-.078 2.979-.2 3.441.718a1.239 1.239 0 0 1 .03.9c-.369 1.184-2.155 1.553-4.189 2.095-1.7.451-3.332 1.105-5.027 1.556a35.244 35.244 0 0 0-8.377 3.59c-5.079 3.176-3.562 8.168-8.617 17.474-2.031 3.739-6.227 11.461-10.292 11.011-3.469-.385-6.208-6.65-7.3-14.6" class="cls-1" data-name="Path 117925" transform="translate(-235.088 -292.644)"/> <path id="Path_117927" d="M286.756 282.339c5.3 1.267 9.3 6.982 9.3 13.849 0 7.8-5.168 14.122-11.531 14.122s-11.546-6.319-11.546-14.122a18.088 18.088 0 0 1 .273-3.1" class="cls-1" data-name="Path 117927" transform="translate(-245.925 -273.323)"/> <path id="Path_117928" d="M289.841 267.722a25.744 25.744 0 0 1-6.772 12.712 26.065 26.065 0 0 1-10.823 6.6" class="cls-3" data-name="Path 117928" transform="translate(-245.609 -267.033)"/> <path id="Path_117930" d="M270.006 301.317c-.273.014-3.089.191-3.871 1.851-.823 1.746.665 5 4.489 6.556a20.1 20.1 0 0 1-.618-8.407z" class="cls-1" data-name="Path 117930" transform="translate(-242.884 -281.491)"/> <path id="Path_117931" d="M283.748 392.015c-2.394-5.338-3.316-14.394-2.924-22.721a27.214 27.214 0 0 1 1.05-7.026 10.235 10.235 0 0 0-.748-6.493c.647 1.124.935 4.448.957 5.187.031 1.085 5.591 1.373 6.629.176 1.464-1.689-2.129-11.78-2.392-14.717-.308-3.442-9.265-6.754-10.773-7a19.876 19.876 0 0 0-4.015 4.537c-1.432 2.443-2.855 5.468-3.839 4.957-1.752-.911-3.129-3.725-4.315-5.939-1.782-3.326-3.092-5.766-3.092-5.766-2.116.058-13.333 2.2-16.308 7.366-.615 1.068-9.238 10.507-7.6 11.778 1.1.85 8.09 8.545 10.888 6.257a6.4 6.4 0 0 0 1.487-2.118c-.789 8.46 2.243 9.766-.789 31.519" class="cls-5" data-name="Path 117931" transform="translate(-230.083 -296.94)"/> <path id="Path_117932" fill="#c2d677" stroke="#222" stroke-miterlimit="10" stroke-width="0.4px" d="M373.454 306.667c0-1.977.071-3.379.149-4.319a1.125 1.125 0 0 1 1.631-.909c.9.452 2.2 1.138 3.858 2.091 1.565.9 2.793 1.674 3.636 2.229a1.126 1.126 0 0 1 .026 1.868c-.829.578-2.061 1.386-3.718 2.342-1.629.94-2.928 1.591-3.825 2.008a1.127 1.127 0 0 1-1.6-.92c-.083-.936-.157-2.357-.157-4.39z" data-name="Path 117932" transform="translate(-290.897 -281.491)"/> <g id="Group_49764" data-name="Group 49764" transform="translate(33.293 16.042)"> <circle id="Ellipse_10390" cx=".9" cy=".9" r=".9" class="cls-7" data-name="Ellipse 10390" transform="translate(9.077 3.487)"/> <circle id="Ellipse_10391" cx=".9" cy=".9" r=".9" class="cls-7" data-name="Ellipse 10391" transform="translate(.959 3.951)"/> <path id="Path_117933" d="M295.014 303.194c-.185 1.337-.136 2.2.381 2.662.239.215.623.13.922.251a1.041 1.041 0 0 1 .335 1.471 3.015 3.015 0 0 1-1.343 1.025" class="cls-8" data-name="Path 117933" transform="translate(-288.658 -298.341)"/> <path id="Path_117934" d="M299.92 294.675a3.92 3.92 0 0 1 2.112.922" class="cls-8" data-name="Path 117934" transform="translate(-290.812 -294.675)"/> <path id="Path_117935" d="M285.491 296.323a2.778 2.778 0 0 0-1.56 1.606" class="cls-8" data-name="Path 117935" transform="translate(-283.931 -295.384)"/> <path id="Path_117936" d="M296.285 315.5c-1.391 3.164-6.307 2.9-7.828-.075 0 0 .537 4.971 4.273 4.757 3.81-.216 3.555-4.682 3.555-4.682z" class="cls-5" data-name="Path 117936" transform="translate(-285.879 -303.606)"/> </g> <path id="Path_117937" d="M259.378 366.26c.039-1.053-1.333 6.854-3.728 8.814" class="cls-4" data-name="Path 117937" transform="translate(-238.467 -309.4)"/> <path id="Path_117938" d="M233.166 373.089c-.269-.273-4.84 6.111-5.978 7.861-7.954 12.227 14.384 13.1 16.663 15.7a9.478 9.478 0 0 1 .8 1.082c.184.307.338.6.474.877.863 1.825.938 3.2 2.053 3.468 1.731.4 4.147-2.4 4.95-5.145l.075-.266c.449-1.73.672-4.629-.86-5.73-1.312-.948-2.706.321-4.8.506-.517.044-10.818-.9-13.2-6.777-.157-.388 5.5-6.867 5.662-6.939a34.7 34.7 0 0 1-5.839-4.637z" class="cls-1" data-name="Path 117938" transform="translate(-225.483 -312.377)"/> </g> <g id="Group_49768" data-name="Group 49768" transform="translate(22.856 40.274)"> <g id="Group_49767" data-name="Group 49767"> <path id="Path_117939" d="M269.007 337.214a68.256 68.256 0 0 0-.269 7.215 60.425 60.425 0 0 0 .707 7.79" class="cls-9" data-name="Path 117939" transform="translate(-266.949 -337.214)"/> <ellipse id="Ellipse_10392" cx="2.369" cy="2.36" class="cls-10" data-name="Ellipse 10392" rx="2.369" ry="2.36" transform="rotate(-81.793 10.743 9.305)"/> <g id="Group_49766" data-name="Group 49766" transform="translate(11.947 2.211)"> <path id="Path_117940" fill="#cbbede" stroke="#222" stroke-linecap="round" stroke-miterlimit="10" stroke-width="0.4px" d="M303.023 350.17c.29-1.554.558-3.178.793-4.87q.3-2.165.5-4.2" data-name="Path 117940" transform="translate(-293.659 -341.096)"/> <path id="Path_117941" d="M290.2 372.406c-1.626.094-2.588-.263-3.091-.9-2.452-3.1 4.13-15.134 8.733-14.531 4.768.624 7.918 14.875 4.7 17.067-.649.442-1.661.463-3.18-.165" class="cls-9" data-name="Path 117941" transform="translate(-286.583 -347.921)"/> <ellipse id="Ellipse_10393" cx="1.44" cy="1.446" class="cls-10" data-name="Ellipse 10393" rx="1.44" ry="1.446" transform="rotate(-.48 2744.195 -212.2)"/> <ellipse id="Ellipse_10394" cx="1.44" cy="1.446" class="cls-10" data-name="Ellipse 10394" rx="1.44" ry="1.446" transform="rotate(-.48 2921.207 -1150.165)"/> </g> </g> </g> </g></svg>