<svg width="136" height="136" viewBox="0 0 136 136" fill="none" xmlns="http://www.w3.org/2000/svg">
<mask id="mask0_1_1699" style="mask-type:alpha" maskUnits="userSpaceOnUse" x="0" y="0" width="136" height="136">
<path d="M119 0H17C7.61116 0 0 7.61116 0 17V119C0 128.389 7.61116 136 17 136H119C128.389 136 136 128.389 136 119V17C136 7.61116 128.389 0 119 0Z" fill="white"/>
</mask>
<g mask="url(#mask0_1_1699)">
<path d="M119 0H17C7.61116 0 0 7.61116 0 17V119C0 128.389 7.61116 136 17 136H119C128.389 136 136 128.389 136 119V17C136 7.61116 128.389 0 119 0Z" fill="#E5EEFF"/>
</g>
<mask id="mask1_1_1699" style="mask-type:alpha" maskUnits="userSpaceOnUse" x="0" y="0" width="136" height="136">
<path d="M119 0H17C7.61116 0 0 7.61116 0 17V119C0 128.389 7.61116 136 17 136H119C128.389 136 136 128.389 136 119V17C136 7.61116 128.389 0 119 0Z" fill="white"/>
</mask>
<g mask="url(#mask1_1_1699)">
<path d="M119 0H17C7.61116 0 0 7.61116 0 17V119C0 128.389 7.61116 136 17 136H119C128.389 136 136 128.389 136 119V17C136 7.61116 128.389 0 119 0Z" fill="#F5D5D5"/>
<path d="M18.5416 92.7226C49.2687 92.7226 74.178 67.8134 74.178 37.0863C74.178 6.35919 49.2687 -18.55 18.5416 -18.55C-12.1855 -18.55 -37.0947 6.35919 -37.0947 37.0863C-37.0947 67.8134 -12.1855 92.7226 18.5416 92.7226Z" fill="#FBB4A9"/>
<path d="M136.002 117.455C149.659 117.455 160.73 106.384 160.73 92.7273C160.73 79.0708 149.659 68 136.002 68C122.346 68 111.275 79.0708 111.275 92.7273C111.275 106.384 122.346 117.455 136.002 117.455Z" fill="#FBB4A9"/>
<path d="M69.171 136.688C70.0909 142.574 70.5999 148.517 70.6943 154.475C70.766 158.301 69.1889 264.736 69.1889 264.736L51.8768 266.376L47.3247 167.02L45.9358 167.459C45.9358 167.459 40.4967 210.542 40.3712 217.442C40.2637 223.651 36.536 269.002 36.536 269.002L20.7113 270.695L20.1468 211.232L19.3493 153.731L21.9748 135.541L69.171 136.688Z" fill="#191919"/>
<path d="M42.2218 59.3773L52.5446 59.9239L57.1952 55.9185L67.2043 61.3935L73.5933 64.234L73.432 69.261L80.4035 73.8668L75.3317 94.0016L68.4947 116.914C68.4947 116.914 69.1309 133.877 68.8352 135.293C68.5395 136.708 65.4659 139.558 53.4496 139.71C41.4332 139.863 21.5763 135.983 21.5763 135.983C20.2142 133.707 21.5763 130.248 21.9257 127.622L25.9312 96.2597L30.6087 70.7754L42.2218 59.3773Z" fill="#EA5D54"/>
<path d="M30.9326 60.9935C27.7247 62.5258 16.4969 78.8253 9.26555 93.2521C9.26555 93.2521 3.83533 105.932 3.42314 107.043C3.01095 108.154 4.72246 144.373 4.72246 144.373L18.0381 144.812C18.1277 141.721 19.2836 116.514 19.5256 111.451C19.5505 110.866 19.697 110.292 19.9557 109.767L29.257 90.9492C29.257 90.9492 38.0833 72.508 38.7822 71.1191C39.4812 69.7302 42.2231 59.3716 42.2231 59.3716C41.802 59.3716 34.1406 59.4612 30.9326 60.9935Z" fill="#EA5D54"/>
<path d="M63.015 73.8183C62.8929 73.6919 62.7875 73.5503 62.7013 73.3972C62.5132 73.1104 62.2443 72.6893 61.9307 72.1516C61.0986 70.6636 60.3797 69.115 59.7802 67.5189L59.9773 67.6175C59.3946 67.8146 58.8537 68.1185 58.3823 68.5136C57.8625 68.9216 57.4065 69.4048 57.0292 69.9473L56.9844 70.019L56.8141 70.2699L56.6797 70.01C55.4569 67.728 54.3969 65.3625 53.5076 62.931C53.1671 62.035 52.9162 61.2285 52.7549 60.6998C52.6621 60.4286 52.5931 60.1497 52.5488 59.8665C52.6935 60.1147 52.8079 60.3795 52.8893 60.655L53.7854 62.8414C54.7394 65.2326 55.8253 67.5689 57.0382 69.8398H56.7245V69.7681C57.1225 69.1877 57.6093 68.6736 58.1672 68.2447C58.6779 67.8208 59.2649 67.4984 59.8966 67.2949H60.04L60.0938 67.4293C60.6685 69.0228 61.3419 70.579 62.1099 72.0889C62.4441 72.6478 62.7463 73.2252 63.015 73.8183V73.8183Z" fill="#D34646"/>
<path d="M73.4346 69.2397C73.162 69.794 72.8251 70.3143 72.431 70.79C71.741 71.686 70.7195 72.9853 69.4829 74.3742L69.1783 74.7148V74.2667C69.1783 73.5319 69.1783 72.7434 69.1783 71.9369V70.4046L69.3844 70.5749C68.465 70.7864 67.595 71.1728 66.8216 71.7129C66.0958 72.1878 65.4685 72.609 64.913 73.0033C64.4706 73.2802 64.006 73.52 63.524 73.7201C63.357 73.8098 63.1746 73.8676 62.9864 73.8904C62.9864 73.8456 63.7032 73.5588 64.7785 72.7972C65.3072 72.4208 65.9166 71.9011 66.6424 71.4351C67.4477 70.8528 68.3619 70.4383 69.3306 70.2165H69.5367V74.2936L69.232 74.1861C70.4776 72.7882 71.5349 71.5516 72.2697 70.6645C73.0045 69.7774 73.3809 69.2397 73.4346 69.2397Z" fill="#D34646"/>
<path d="M47.9841 139.629C47.9841 139.629 47.9841 139.575 47.9841 139.458L48.0378 138.948C48.0916 138.473 48.1722 137.819 48.2798 136.994C48.3873 136.17 48.5217 135.103 48.7009 133.903C48.8801 132.702 49.0773 131.331 49.3282 129.826C50.2959 123.786 51.882 115.488 54.0057 106.393C56.1294 97.2981 58.3696 89.1438 60.0811 83.2745C60.9771 80.3443 61.6582 77.9697 62.1689 76.3389C62.4288 75.5503 62.6259 74.9231 62.7693 74.4661L62.9395 73.9822C62.9519 73.9255 62.9731 73.8711 63.0023 73.8209C63.0103 73.8774 63.0103 73.9347 63.0023 73.9912L62.8768 74.484C62.7424 74.95 62.5632 75.5772 62.3392 76.3837L60.3588 83.3462C58.7101 89.2334 56.5236 97.3877 54.391 106.474C52.2583 115.56 50.6454 123.84 49.6149 129.87C49.3461 131.367 49.131 132.738 48.9339 133.939C48.7368 135.139 48.5755 136.17 48.45 137.012C48.3246 137.854 48.217 138.482 48.1454 138.957L48.0558 139.458C48.011 139.575 47.993 139.629 47.9841 139.629Z" fill="#D34646"/>
<path d="M62.9751 121.97C62.9751 122.069 56.7832 122.579 49.1307 123.099C41.4783 123.619 35.2595 123.995 35.2595 123.879C35.2595 123.762 41.4514 123.269 49.1039 122.75C56.7563 122.23 62.9751 121.871 62.9751 121.97Z" fill="#D34646"/>
<path d="M57.8366 119.974C55.4781 119.967 53.1214 119.841 50.7755 119.598C46.8776 119.284 43.7324 118.962 43.7414 118.863C43.7503 118.765 46.9045 118.935 50.8024 119.24C53.1581 119.364 55.5059 119.61 57.8366 119.974V119.974Z" fill="#D34646"/>
<path d="M80.5473 45.6215C80.5473 45.6215 83.7015 46.3563 84.6872 43.9996C85.6728 41.6429 83.0473 39.5909 86.4793 37.3418C89.9113 35.0926 93.1999 29.8237 89.5887 26.5889C85.9775 23.3541 84.2122 28.0495 81.3269 24.0171C78.4415 19.9848 76.1117 19.268 73.2622 19.035C70.2245 18.7841 67.4109 22.2877 63.1187 21.7232C58.8265 21.1587 55.3318 26.3738 56.7745 29.4384C58.5666 33.2377 57.9842 32.2252 57.5272 35.5407C57.0702 38.8561 59.3193 41.4727 61.9 41.3383C64.4807 41.2039 80.5473 45.6215 80.5473 45.6215Z" fill="#1D2250"/>
<path d="M56.5623 59.7916C56.9028 62.4799 60.6484 66.0641 62.8348 67.0229C64.4047 67.7161 66.0974 68.0883 67.8132 68.1175C69.5291 68.1468 71.2335 67.8325 72.8261 67.1932L73.7221 61.9422L73.9103 60.8759L74.2598 58.8418L62.8976 48.3219L62.2434 47.7215L61.8043 47.3093L61.5624 47.7394L61.2757 48.2412V48.4742C59.5283 53.4206 59.0355 56.4403 56.5623 59.7916Z" fill="#F58D57"/>
<path d="M73.1593 65.52C71.2571 64.6613 69.5675 63.3938 68.2108 61.8079C66.8541 60.222 65.8635 58.3565 65.3097 56.3442C67.4872 58.8084 70.2919 60.6454 73.0697 60.8246C73.3681 60.8432 73.6674 60.8432 73.9658 60.8246L73.1593 65.52Z" fill="#EA662F"/>
<path d="M82.6739 44.4784C83.1578 44.6587 83.5659 44.9982 83.8313 45.4411C84.0967 45.884 84.2037 46.404 84.1345 46.9157C84.1345 48.9498 82.5216 52.0861 80.5503 51.3334C78.5789 50.5806 82.6739 44.4784 82.6739 44.4784Z" fill="#F58D57"/>
<path d="M60.9573 48.9153H61.029C61.029 49.0945 61.029 49.2738 61.1007 49.453C61.0964 49.5306 61.0964 49.6084 61.1007 49.686C61.1583 50.0182 61.233 50.3472 61.3247 50.6716C62.7763 55.833 68.2514 61.6127 73.4396 61.783C73.7379 61.806 74.0375 61.806 74.3357 61.783C79.4164 61.3887 81.5043 55.9943 81.6208 51.6842C81.6208 51.5229 81.6208 51.3616 81.6208 51.2003C81.6208 51.2003 81.6745 50.9136 81.7821 50.4118C81.8896 49.91 81.9792 49.5157 82.1226 48.8347C82.5437 46.9171 83.2158 44.0945 84.0491 41.3435C85.5008 36.5137 83.3323 28.7268 73.5292 25.474C65.7244 22.8754 61.038 26.6837 59.192 30.9939C58.7643 32.0465 58.5014 33.1587 58.4125 34.2914C58.3111 35.7875 58.3773 37.2903 58.6096 38.7718C57.6508 38.6911 56.5486 39.0585 55.7511 40.6535C54.2816 43.5658 57.4357 48.0193 60.9573 48.9153Z" fill="#F58D57"/>
<path d="M58.6121 38.7702C59.4452 39.5133 60.4081 40.0966 61.4526 40.4907L63.2448 43.3044L65.7179 42.1484C65.7179 42.1484 65.0459 39.0122 66.7126 38.2415C68.3793 37.4709 67.8685 35.4189 67.8685 35.4189C67.8685 35.4189 61.7752 31.1446 59.2572 31.0371C58.8124 32.0721 58.5284 33.169 58.4149 34.2899C58.3136 35.786 58.3797 37.2888 58.6121 38.7702V38.7702Z" fill="#1D2250"/>
<path d="M84.8406 35.6036C84.8406 35.6036 78.4516 29.8329 74.0877 31.0336C71.5543 31.6967 69.3343 33.2285 67.8152 35.3616C67.8152 35.3616 59.8491 35.7201 58.3079 33.4888C56.7666 31.2576 60.2344 23.7037 66.3725 23.0227C72.5106 22.3417 81.2384 25.4779 84.8406 35.6036Z" fill="#1D2250"/>
<path d="M80.552 45.7195C80.3638 46.4184 79.9158 46.8933 79.5574 46.8037C79.1989 46.7141 79.0645 46.06 79.2527 45.37C79.4408 44.68 79.8889 44.1962 80.2473 44.2947C80.6058 44.3933 80.7222 45.0385 80.552 45.7195Z" fill="#1D2250"/>
<path d="M63.6686 48.882C63.4152 49.1471 63.1102 49.3575 62.7725 49.5003C62.262 49.6961 61.712 49.7668 61.1685 49.7064C61.1642 49.6288 61.1642 49.551 61.1685 49.4734C61.1685 49.2942 61.1148 49.115 61.0968 48.9358H61.0251C61.1586 48.9581 61.2932 48.9731 61.4284 48.9806C61.6597 48.9925 61.8916 48.9744 62.1184 48.9268C62.5226 48.8561 62.8951 48.662 63.1847 48.3713C63.2548 48.2988 63.3508 48.2571 63.4517 48.2554C63.5016 48.2546 63.5512 48.2636 63.5976 48.2819C63.6441 48.3003 63.6864 48.3276 63.7223 48.3623C63.7582 48.397 63.7869 48.4384 63.8068 48.4843C63.8267 48.5301 63.8373 48.5793 63.8382 48.6293C63.839 48.6792 63.83 48.7288 63.8116 48.7752C63.7933 48.8217 63.766 48.8641 63.7313 48.8999L63.6686 48.882Z" fill="#CC665D"/>
<path d="M74.3727 61.7829C74.0743 61.8014 73.7751 61.8014 73.4767 61.7829C68.2884 61.6127 62.8134 55.833 61.3618 50.6716C61.4511 50.3604 61.6292 50.0819 61.8743 49.8703C62.1194 49.6586 62.4208 49.523 62.7417 49.4798L63.2345 43.2073L65.7077 42.0514C65.7077 42.0514 66.6038 47.8579 68.4855 48.4673C70.3673 49.0766 74.8566 49.1752 76.5502 50.5999C76.5502 50.5999 79.8746 50.0623 81.6578 51.6304C81.5682 55.9943 79.4535 61.3887 74.3727 61.7829Z" fill="#1D2250"/>
<path d="M72.8255 50.2858C72.8255 50.2858 72.2251 53.6102 74.9402 54.4256C75.6618 54.6611 76.4468 54.6055 77.128 54.2708C77.8092 53.936 78.3328 53.3486 78.5872 52.6335L72.8255 50.2858Z" fill="white"/>
<path d="M60.6261 46.2105C60.5532 46.1821 60.4913 46.1311 60.4494 46.065C60.4075 45.9989 60.3878 45.9212 60.3931 45.8431C60.5186 43.1549 57.7049 41.3 57.7049 41.2821C57.6631 41.255 57.6271 41.22 57.5989 41.179C57.5706 41.138 57.5508 41.0919 57.5404 41.0432C57.5193 40.9449 57.5383 40.8423 57.5929 40.7579C57.6476 40.6735 57.7335 40.6143 57.8318 40.5933C57.9301 40.5723 58.0328 40.5912 58.1171 40.6459C58.2515 40.7355 61.3161 42.7517 61.1727 45.879C61.1716 45.9292 61.1604 45.9786 61.1399 46.0245C61.1193 46.0703 61.0898 46.1115 61.053 46.1458C61.0163 46.18 60.9731 46.2066 60.9259 46.2238C60.8788 46.2411 60.8286 46.2488 60.7785 46.2464L60.6261 46.2105Z" fill="#EA662F"/>
<path d="M57.7578 44.0119C57.7138 43.9935 57.6741 43.966 57.6413 43.9312C57.6056 43.8962 57.5772 43.8544 57.5578 43.8082C57.5384 43.7621 57.5284 43.7125 57.5284 43.6624C57.5284 43.6123 57.5384 43.5628 57.5578 43.5166C57.5772 43.4705 57.6056 43.4286 57.6413 43.3936C57.9733 43.0937 58.3768 42.8843 58.813 42.7854C59.2493 42.6866 59.7037 42.7016 60.1324 42.8291C60.1802 42.8425 60.2247 42.8652 60.2637 42.8959C60.3026 42.9267 60.3351 42.9648 60.3592 43.008C60.3833 43.0513 60.3987 43.099 60.4044 43.1482C60.4101 43.1975 60.4059 43.2474 60.3923 43.295C60.38 43.3434 60.3579 43.3888 60.3275 43.4283C60.297 43.4679 60.2588 43.5009 60.2152 43.5252C60.1716 43.5495 60.1235 43.5647 60.0738 43.5698C60.0242 43.5749 59.974 43.5698 59.9263 43.5549C59.6214 43.4507 59.294 43.4307 58.9786 43.4969C58.6632 43.5631 58.3715 43.7132 58.1342 43.9312C58.0845 43.9773 58.0233 44.0091 57.9571 44.0233C57.8909 44.0375 57.822 44.0336 57.7578 44.0119V44.0119Z" fill="#EA662F"/>
<path d="M76.9595 50.7419C76.8691 50.7035 76.7958 50.6334 76.7534 50.5447C76.7135 50.453 76.7108 50.3494 76.746 50.2558C76.7811 50.1621 76.8512 50.0858 76.9416 50.0429L79.2534 48.9856L77.5868 48.0895C77.5396 48.0632 77.4984 48.0273 77.466 47.9841C77.4336 47.9408 77.4106 47.8913 77.3986 47.8386L76.4219 43.0984C76.4005 42.9997 76.4191 42.8967 76.4738 42.8118C76.5284 42.7269 76.6145 42.6672 76.7131 42.6459C76.8117 42.6245 76.9148 42.6431 76.9996 42.6977C77.0845 42.7524 77.1442 42.8385 77.1656 42.9371L78.1065 47.516L80.275 48.7078C80.3382 48.7407 80.3905 48.7912 80.4255 48.8532C80.4605 48.9153 80.4767 48.9862 80.4721 49.0573C80.4705 49.127 80.4496 49.195 80.4116 49.2535C80.3736 49.3121 80.3201 49.3589 80.257 49.3888L77.2642 50.7598C77.1642 50.794 77.0548 50.7875 76.9595 50.7419V50.7419Z" fill="#EA662F"/>
<path d="M71.5851 40.79C71.4292 40.7248 71.291 40.6234 71.1819 40.4943C71.0071 40.2799 70.9241 40.0052 70.951 39.73C70.9779 39.4547 71.1124 39.2012 71.3253 39.0247C71.4328 38.9351 73.9597 36.91 76.63 38.4602C76.7663 38.5193 76.8885 38.6068 76.9885 38.7167C77.0884 38.8267 77.1638 38.9566 77.2097 39.098C77.2557 39.2393 77.271 39.3887 77.2548 39.5364C77.2385 39.6841 77.1911 39.8267 77.1156 39.9547C77.0401 40.0826 76.9383 40.1931 76.8168 40.2787C76.6954 40.3644 76.5571 40.4232 76.4112 40.4513C76.2653 40.4795 76.1151 40.4763 75.9706 40.442C75.826 40.4077 75.6904 40.343 75.5727 40.2523C75.1001 40.0317 74.5747 39.95 74.0575 40.0166C73.5403 40.0833 73.0526 40.2955 72.6515 40.6287C72.505 40.7496 72.3284 40.8285 72.1406 40.857C71.9528 40.8854 71.7608 40.8622 71.5851 40.79V40.79Z" fill="#1D2250"/>
<path d="M82.2129 43.0359C82.0691 42.9755 81.9407 42.8839 81.8368 42.7676C81.733 42.6514 81.6563 42.5134 81.6125 42.3638C81.3616 41.4677 79.9369 41.1989 79.5695 41.1541C79.295 41.1256 79.0431 40.9892 78.8692 40.7749C78.6952 40.5607 78.6135 40.2861 78.642 40.0116C78.6706 39.7371 78.807 39.4852 79.0212 39.3113C79.2355 39.1374 79.51 39.0557 79.7845 39.0842C80.9494 39.2007 83.0731 39.8996 83.6197 41.7724C83.6581 41.9048 83.67 42.0434 83.6547 42.1804C83.6394 42.3174 83.5973 42.45 83.5307 42.5707C83.4641 42.6914 83.3744 42.7978 83.2667 42.8837C83.159 42.9697 83.0353 43.0336 82.9029 43.0717C82.6758 43.141 82.4316 43.1283 82.2129 43.0359V43.0359Z" fill="#1D2250"/>
<path d="M74.4661 44.1349C74.2779 44.8249 73.8388 45.3087 73.4804 45.2102C73.122 45.1116 72.9786 44.4754 73.1668 43.7765C73.355 43.0775 73.803 42.6026 74.1614 42.7012C74.5199 42.7997 74.6543 43.4449 74.4661 44.1349Z" fill="#1D2250"/>
<path d="M77.8989 58.4823C77.3549 58.3882 76.825 58.2256 76.3218 57.9984C75.372 57.64 74.0727 57.1023 72.6569 56.4661C71.2411 55.8299 69.9687 55.1848 69.0726 54.674C68.5635 54.4436 68.0898 54.1419 67.6658 53.7779C67.7195 53.6793 69.9866 54.7726 72.8003 56.0539C75.6139 57.3353 77.9437 58.3389 77.8989 58.4823Z" fill="#1A2E35"/>
<path d="M69.3794 106.193H57.372C57.372 106.193 54.8899 106.032 54.0924 107.394C53.2949 108.756 50.9741 113.147 51.225 114.043C51.3863 114.598 52.6945 115.315 52.6945 115.315C52.6945 115.315 51.8702 117.547 52.811 117.869C54.3344 118.398 55.2663 116.713 55.2663 116.713L58.0441 117.609L62.5693 116.803C62.5693 116.803 63.1338 115.199 62.2556 115.011C61.3775 114.822 60.2036 114.688 60.2036 114.688L61.0549 113.407L63.0532 112.761C63.5345 113.191 64.1124 113.499 64.7378 113.658C65.6338 113.819 69.1375 114.052 69.935 113.738C70.7325 113.425 70.9744 112.77 72.4978 112.457L74.2899 112.313V106.122L69.3794 106.193Z" fill="#F58D57"/>
<path d="M58.9613 110.797C58.7672 111.192 58.5362 111.567 58.2713 111.917C58.0563 112.258 57.8143 112.661 57.5545 113.127C57.2598 113.602 57.0478 114.123 56.9272 114.668C56.9229 114.93 56.9856 115.189 57.1096 115.419C57.2335 115.65 57.4144 115.845 57.6351 115.986C58.0473 116.281 58.4595 116.586 58.7821 116.801C59.1446 117.025 59.5367 117.197 59.947 117.312C59.947 117.366 59.3914 117.437 58.6477 117.016C58.2803 116.81 57.9039 116.559 57.429 116.245C57.186 116.069 56.9765 115.851 56.8107 115.6C56.6224 115.315 56.5371 114.973 56.5688 114.633C56.6905 114.037 56.928 113.47 57.2677 112.966C57.5125 112.555 57.7787 112.157 58.0652 111.774C58.3039 111.398 58.6073 111.067 58.9613 110.797V110.797Z" fill="#EA662F"/>
<path d="M56.8011 110.505C56.6857 110.843 56.5162 111.161 56.2993 111.446C55.8459 112.164 55.4302 112.906 55.0537 113.668C54.8413 114.056 54.7478 114.499 54.7849 114.94C54.841 115.297 54.9757 115.637 55.1792 115.935C55.5376 116.464 55.8243 116.777 55.7795 116.831C55.7347 116.885 55.4122 116.625 54.9731 116.105C54.7143 115.785 54.5361 115.407 54.4534 115.003C54.3961 114.496 54.4929 113.984 54.7311 113.533C55.1113 112.756 55.5675 112.017 56.0932 111.329C56.4874 110.782 56.7652 110.451 56.8011 110.505Z" fill="#EA662F"/>
<path d="M60.4587 114.636C60.4587 114.726 60.3422 114.896 60.1362 115.075C59.9301 115.255 59.724 115.38 59.6433 115.317C59.5627 115.255 59.6433 115.004 59.9032 114.798C60.163 114.592 60.4139 114.547 60.4587 114.636Z" fill="#9A5D53"/>
<path d="M55.5074 116.823C55.0414 116.771 54.5888 116.634 54.1722 116.419C53.6964 116.216 53.2712 115.91 52.9267 115.523C52.7208 115.276 52.5671 114.99 52.4747 114.682C52.3823 114.374 52.3531 114.051 52.389 113.731C52.581 112.603 53.0558 111.543 53.769 110.649C54.0139 110.257 54.3159 109.903 54.6651 109.6C54.4767 110.022 54.2423 110.422 53.9661 110.792C53.348 111.684 52.9293 112.699 52.7385 113.767C52.7004 114.047 52.7197 114.332 52.7952 114.605C52.8707 114.878 53.0008 115.132 53.1776 115.353C53.4767 115.727 53.8526 116.033 54.2798 116.249C54.7024 116.41 55.1127 116.602 55.5074 116.823V116.823Z" fill="#EA662F"/>
<path d="M62.0726 108.851C61.9919 108.905 61.6604 108.52 61.0869 108.376C60.5134 108.233 60.0474 108.376 60.0026 108.287C59.9578 108.197 60.0833 108.143 60.2983 108.063C60.5888 107.964 60.9039 107.964 61.1944 108.063C61.4872 108.137 61.7501 108.299 61.9471 108.528C62.0815 108.654 62.1174 108.833 62.0726 108.851Z" fill="#EA662F"/>
<path d="M59.7628 107.704C59.6642 107.704 59.5209 107.346 59.1176 107.113C58.7144 106.88 58.3201 106.925 58.2932 106.835C58.2664 106.745 58.3649 106.701 58.5621 106.665C58.8165 106.628 59.0759 106.678 59.2975 106.809C59.5191 106.939 59.6896 107.141 59.7807 107.382C59.8345 107.57 59.8076 107.695 59.7628 107.704Z" fill="#EA662F"/>
<path d="M102.749 113.191C103.98 112.617 105.076 111.791 105.968 110.767C106.86 109.743 107.527 108.543 107.926 107.245C108.325 105.948 108.448 104.58 108.287 103.232C108.125 101.884 107.683 100.585 106.988 99.4181L106.827 99.1493C105.572 97.0615 88.4839 81.3622 86.3871 78.8532C84.5923 76.9158 82.5843 75.1874 80.4014 73.7008L73.7614 95.5023L87.4803 102.671L79.0393 103.621L73.4568 104.176L73.8063 115.7C73.8063 115.7 96.7637 114.06 100.33 113.863C101.171 113.791 101.992 113.563 102.749 113.191V113.191Z" fill="#EA5D54"/>
<path d="M101.155 99.7063C100.812 99.5643 100.459 99.4505 100.097 99.3658C99.1052 99.2021 98.0872 99.3073 97.1494 99.6704C95.7733 100.283 94.441 100.99 93.1618 101.785C92.7667 102.005 92.3409 102.166 91.8984 102.26C91.4593 102.377 91.0023 102.448 90.5453 102.529C89.6493 102.69 88.6725 102.816 87.6958 102.941C83.78 103.425 80.2225 103.721 77.6508 103.936L74.6042 104.178C74.2324 104.22 73.8582 104.238 73.4841 104.231C73.5727 104.194 73.6663 104.17 73.7619 104.16L74.5863 104.034C75.3031 103.945 76.3784 103.819 77.6239 103.685C80.1957 103.398 83.7441 103.067 87.651 102.592C88.6277 102.466 89.5776 102.341 90.4916 102.188C91.3617 102.091 92.2113 101.858 93.0095 101.498C94.3044 100.708 95.6585 100.019 97.0598 99.4374C98.0404 99.0772 99.1031 99.0026 100.124 99.2224C100.398 99.2974 100.662 99.4026 100.913 99.536C101 99.5823 101.082 99.6395 101.155 99.7063V99.7063Z" fill="#D34646"/>
<path d="M81.1128 81.4331C81.0218 81.7437 80.8986 82.0441 80.7454 82.3292C80.4497 82.9744 80.0733 83.8077 79.6253 84.8113C78.6755 86.8992 77.3493 89.7756 76.0948 93.0462C74.8403 96.3169 73.8546 99.3187 73.1646 101.514C72.842 102.563 72.5642 103.432 72.3581 104.104C72.2778 104.428 72.1637 104.744 72.0176 105.045C72.0567 104.714 72.1257 104.387 72.2237 104.068C72.3761 103.441 72.609 102.545 72.9227 101.442C73.5499 99.2291 74.4908 96.1914 75.7632 92.9118C77.0356 89.6322 78.3887 86.7648 79.3475 84.7038C79.8583 83.6733 80.2436 82.8399 80.5751 82.2754C80.7262 81.9776 80.9063 81.6955 81.1128 81.4331Z" fill="#D34646"/>
<path d="M35.2614 78.5658C35.2318 78.6863 35.1898 78.8034 35.136 78.9153L34.7327 79.8651C34.3743 80.6984 33.8367 81.8813 33.1467 83.3419C31.7846 86.2631 29.8043 90.2596 27.5731 94.6414C25.3419 99.0232 23.3257 103.002 21.9009 105.896C21.211 107.312 20.6375 108.468 20.2163 109.319L19.7504 110.215C19.6954 110.324 19.6325 110.429 19.5622 110.529C19.5911 110.411 19.6332 110.297 19.6876 110.188L20.0909 109.229C20.4493 108.405 20.987 107.213 21.6769 105.753C23.039 102.831 25.0103 98.835 27.2505 94.4442C29.4907 90.0535 31.4979 86.0928 32.9227 83.1985L34.6073 79.7755L35.0732 78.8794C35.1198 78.766 35.1833 78.6603 35.2614 78.5658Z" fill="#D34646"/>
<path d="M36.6325 72.5451C36.516 72.5451 36.3995 70.1526 35.5841 67.321C34.7687 64.4894 33.6217 62.3746 33.7292 62.3298C34.0654 62.7355 34.3402 63.1884 34.5446 63.6739C35.1178 64.822 35.5799 66.0222 35.9246 67.2582C36.2727 68.4825 36.5067 69.7364 36.6235 71.0038C36.6991 71.5146 36.7021 72.0335 36.6325 72.5451V72.5451Z" fill="#D34646"/>
<g opacity="0.15">
<path opacity="0.15" d="M74.8574 96.0074C77.1863 92.8313 78.7224 89.1446 79.3377 85.2545C77.5297 88.6995 76.0304 92.2979 74.8574 96.0074Z" fill="black"/>
</g>
<g opacity="0.15">
<path opacity="0.15" d="M87.4759 102.699C89.7519 101.57 91.4813 100.62 93.7484 99.491C94.9604 98.8318 96.2403 98.306 97.5657 97.9229C98.9139 97.5452 100.348 97.6175 101.652 98.129C101.954 98.2454 102.218 98.4441 102.413 98.7025C102.509 98.8321 102.561 98.9892 102.561 99.1505C102.561 99.3118 102.509 99.4689 102.413 99.5986C102.268 99.7128 102.095 99.7856 101.912 99.8092C101.729 99.8329 101.543 99.8065 101.374 99.733C100.654 99.4818 99.9136 99.2958 99.1607 99.1774C97.8255 99.043 95.8363 100.011 94.6803 100.71C92.5136 102.062 90.0025 102.759 87.449 102.717" fill="black"/>
</g>
<g opacity="0.15">
<path opacity="0.15" d="M36.8713 123.814C44.6918 125.689 52.8977 125.146 60.4022 122.254C52.7677 122.685 44.5507 123.392 36.8713 123.814Z" fill="black"/>
</g>
<g opacity="0.13">
<path opacity="0.13" d="M52.5603 60.2858C53.8805 64.6048 55.2007 68.9299 56.5209 73.2609C57.3646 72.0349 58.2865 70.8646 59.2809 69.7573C60.334 71.0076 61.4685 72.187 62.677 73.2878C61.5979 71.5437 60.7344 69.6752 60.1052 67.7232C60.1002 67.6681 60.0821 67.615 60.0525 67.5683C60.0229 67.5215 59.9826 67.4825 59.935 67.4544C59.8361 67.4405 59.7354 67.4593 59.6482 67.5081C58.5512 68.0977 57.5992 68.9242 56.8615 69.9275C55.5622 66.9257 54.0388 63.5654 52.7395 60.5546" fill="black"/>
</g>
<g opacity="0.15">
<path opacity="0.15" d="M25.3644 98.7026C29.6604 94.2707 32.4535 88.5998 33.3484 82.4927L25.3644 98.7026Z" fill="black"/>
</g>
<path d="M175.188 70.9858L164.85 70.9806L160.42 66.7325L150.133 71.6654L143.601 74.1608L143.494 79.1892L136.287 83.4163L140.276 103.793L145.88 127.038C145.88 127.038 144.34 143.943 144.559 145.372C144.779 146.802 147.696 149.811 159.687 150.605C171.678 151.398 191.714 148.584 191.714 148.584C193.196 146.384 192.02 142.857 191.811 140.217L189.486 108.685L186.176 82.9876L175.188 70.9858Z" fill="#EA5D54"/>
<path d="M137.65 55.2064C137.65 55.2064 134.461 55.7718 133.603 53.3658C132.744 50.9599 135.476 49.051 132.169 46.6218C128.862 44.1927 125.859 38.7557 129.638 35.7183C133.417 32.6809 134.929 37.4638 138.025 33.5913C141.122 29.7187 143.486 29.1273 146.344 29.0468C149.391 28.9584 152.014 32.6073 156.33 32.2727C160.646 31.9381 163.857 37.3324 162.253 40.3156C160.261 44.0138 160.896 43.0338 161.176 46.3689C161.455 49.7041 159.069 52.1968 156.5 51.9248C153.93 51.6528 137.65 55.2064 137.65 55.2064Z" fill="#1D2250"/>
<path d="M135.592 53.9471C135.099 54.1013 134.674 54.4186 134.385 54.8467C134.096 55.2748 133.962 55.7883 134.004 56.303C133.895 58.3341 135.338 61.552 137.347 60.9056C139.356 60.2593 135.592 53.9471 135.592 53.9471Z" fill="#F58D57"/>
<path d="M157.037 59.5364L156.965 59.5326C156.956 59.7115 156.946 59.8905 156.865 60.0656C156.865 60.1433 156.861 60.221 156.853 60.2983C156.777 60.6269 156.685 60.9515 156.576 61.2706C154.851 66.3471 149.075 71.8262 143.885 71.7193C143.586 71.7264 143.287 71.7104 142.991 71.6714C137.938 71.0065 136.141 65.5083 136.255 61.1982C136.264 61.0371 136.272 60.876 136.281 60.715C136.281 60.715 136.243 60.4258 136.162 59.9189C136.081 59.4121 136.013 59.0136 135.906 58.3259C135.588 56.3886 135.068 53.5341 134.382 50.7426C133.191 45.8421 135.772 38.1821 145.734 35.4574C153.667 33.2791 158.143 37.3322 159.756 41.7347C160.127 42.8086 160.331 43.9333 160.359 45.0692C160.38 46.5686 160.234 48.0657 159.923 49.5326C160.885 49.5033 161.966 49.929 162.677 51.5643C163.989 54.5509 160.601 58.8296 157.037 59.5364Z" fill="#F58D57"/>
<path d="M133.901 44.9828C133.901 44.9828 140.589 39.5614 144.882 40.9934C147.377 41.7908 149.512 43.439 150.915 45.6501C150.915 45.6501 158.85 46.4333 160.509 44.2876C162.167 42.1418 159.107 34.4136 153.014 33.4058C146.921 32.3981 138.038 35.0639 133.901 44.9828Z" fill="#1D2250"/>
<path d="M142.955 71.6715C143.252 71.7059 143.551 71.7219 143.85 71.7194C149.04 71.8263 154.815 66.3472 156.54 61.2707C156.468 60.9551 156.305 60.6675 156.071 60.4431C155.838 60.2187 155.544 60.0671 155.226 60.0069L155.069 53.717L152.661 52.4307C152.661 52.4307 151.456 58.1811 149.544 58.6891C147.633 59.1971 143.145 59.0559 141.377 60.3882C141.377 60.3882 138.086 59.6739 136.222 61.1445C136.079 65.507 137.902 71.0066 142.955 71.6715Z" fill="#1D2250"/>
<path d="M136.125 52.541C136.272 52.4884 136.405 52.4037 136.515 52.2932C136.625 52.1826 136.709 52.049 136.761 51.9019C137.059 51.0205 138.496 50.8281 138.865 50.803C139.141 50.7892 139.4 50.6664 139.585 50.4618C139.77 50.2571 139.866 49.9873 139.852 49.7117C139.839 49.436 139.716 49.1772 139.511 48.9921C139.307 48.807 139.037 48.7107 138.761 48.7245C137.592 48.7787 135.434 49.3632 134.788 51.2042C134.743 51.3343 134.723 51.4721 134.731 51.6097C134.739 51.7473 134.774 51.882 134.834 52.0061C134.894 52.1302 134.978 52.2412 135.081 52.3328C135.184 52.4244 135.304 52.4948 135.434 52.5399C135.657 52.6212 135.902 52.6216 136.125 52.541V52.541Z" fill="#1D2250"/>
<path d="M111.873 121.487C110.675 120.848 109.624 119.965 108.788 118.895C107.952 117.825 107.35 116.591 107.021 115.274C106.691 113.956 106.642 112.585 106.875 111.247C107.108 109.909 107.619 108.636 108.376 107.508L108.551 107.248C109.915 105.23 127.817 90.4654 130.045 88.072C131.941 86.2331 134.038 84.6143 136.297 83.2464L141.764 105.371L127.682 111.797L136.06 113.196L141.605 114.049L140.641 125.538C140.641 125.538 117.804 122.675 114.253 122.287C113.417 122.17 112.61 121.899 111.873 121.487V121.487Z" fill="#596AB2"/>
<path d="M114.185 108.108C114.535 107.985 114.894 107.89 115.259 107.825C116.259 107.714 117.27 107.873 118.187 108.286C119.528 108.972 120.821 109.748 122.056 110.611C122.439 110.852 122.856 111.035 123.292 111.152C123.725 111.292 124.177 111.388 124.629 111.493C125.515 111.702 126.484 111.879 127.453 112.057C131.337 112.749 134.874 113.234 137.43 113.586L140.459 113.991C140.829 114.053 141.201 114.09 141.575 114.104C141.489 114.062 141.396 114.033 141.302 114.018L140.485 113.848C139.774 113.721 138.707 113.538 137.47 113.337C134.918 112.914 131.392 112.393 127.516 111.71C126.547 111.533 125.606 111.357 124.701 111.156C123.837 111.012 123.001 110.735 122.223 110.333C120.973 109.474 119.657 108.714 118.289 108.058C117.329 107.646 116.272 107.515 115.24 107.68C114.963 107.74 114.693 107.831 114.436 107.951C114.346 107.993 114.262 108.045 114.185 108.108V108.108Z" fill="#2D4D9B"/>
<path d="M135.176 90.9402C135.25 91.2553 135.357 91.5617 135.495 91.8546C135.756 92.5147 136.087 93.3669 136.481 94.393C137.318 96.5286 138.489 99.4717 139.567 102.805C140.645 106.138 141.469 109.188 142.041 111.417C142.307 112.481 142.538 113.364 142.708 114.046C142.771 114.374 142.868 114.695 142.997 115.004C142.976 114.671 142.925 114.341 142.844 114.017C142.725 113.383 142.54 112.476 142.286 111.358C141.778 109.115 141 106.031 139.905 102.688C138.809 99.3453 137.611 96.4097 136.764 94.3005C136.309 93.2442 135.969 92.3915 135.668 91.81C135.533 91.5046 135.368 91.2133 135.176 90.9402Z" fill="#D34646"/>
<g opacity="0.15">
<path opacity="0.15" d="M127.68 111.825C125.468 110.576 123.792 109.535 121.588 108.287C120.413 107.564 119.163 106.97 117.86 106.517C116.534 106.068 115.097 106.063 113.769 106.505C113.461 106.605 113.187 106.789 112.978 107.037C112.875 107.161 112.815 107.315 112.806 107.476C112.797 107.637 112.841 107.797 112.93 107.931C113.068 108.053 113.237 108.135 113.419 108.168C113.6 108.202 113.788 108.185 113.96 108.121C114.692 107.909 115.442 107.762 116.2 107.684C117.541 107.621 119.475 108.694 120.592 109.454C122.684 110.919 125.154 111.749 127.706 111.844" fill="black"/>
</g>
</g>
</svg>
