<svg width="165" height="115" viewBox="0 0 165 115" fill="none" xmlns="http://www.w3.org/2000/svg">
<rect width="165" height="115" rx="16" fill="#CEEBBD"/>
<mask id="mask0_1_1461" style="mask-type:alpha" maskUnits="userSpaceOnUse" x="0" y="0" width="165" height="115">
<rect width="165" height="115" rx="16" fill="#CEEBBD"/>
</mask>
<g mask="url(#mask0_1_1461)">
<rect opacity="0.01" x="3" y="-13" width="160" height="160" fill="#C4C4C4" fill-opacity="0.01"/>
<path fill-rule="evenodd" clip-rule="evenodd" d="M141.094 -21.3409C144.596 -13.8332 141.349 -4.90809 133.841 -1.40611L-22.6591 71.5939C-30.1668 75.0959 -39.0919 71.8486 -42.5939 64.3409C-46.0959 56.8333 -42.8486 47.9082 -35.3409 44.4062L121.159 -28.5938C128.667 -32.0958 137.592 -28.8485 141.094 -21.3409Z" fill="white" fill-opacity="0.3"/>
<path fill-rule="evenodd" clip-rule="evenodd" d="M195.547 45.4478C199.166 53.2057 195.81 62.4283 188.052 66.047L31.5522 139.047C23.7943 142.666 14.5717 139.31 10.953 131.552C7.33427 123.794 10.6898 114.572 18.4477 110.953L174.948 37.9531C182.706 34.3343 191.928 37.6898 195.547 45.4478Z" fill="white" fill-opacity="0.3"/>
<path d="M85.4275 116.375C128.27 116.375 163.001 115.161 163.001 113.665C163.001 112.168 128.27 110.954 85.4275 110.954C42.5847 110.954 7.85376 112.168 7.85376 113.665C7.85376 115.161 42.5847 116.375 85.4275 116.375Z" fill="#84B268"/>
<path d="M36.6369 71.9209C36.6369 71.9209 33.8349 72.4841 33.8817 78.3465C33.9286 84.209 38.4112 84.161 38.4112 84.161C38.4112 84.161 46.6232 74.1033 36.6369 71.9209Z" fill="#2A2D54"/>
<path d="M72.0687 71.9209C72.0687 71.9209 74.8641 72.4841 74.8139 78.3465C74.7637 84.209 70.2944 84.161 70.2944 84.161C70.2944 84.161 62.0825 74.1033 72.0687 71.9209Z" fill="#2A2D54"/>
<path d="M86.2584 34.304C90.7678 34.304 88.8797 39.6576 86.0074 41.4688C86.0074 41.4688 86.6334 59.7633 83.8414 61.3505C79.2181 63.9777 66.7679 50.7232 66.7679 50.7232L71.8464 44.0672C71.8464 44.0672 76.868 48.5664 79.2349 52.9248L83.0982 39.4656C83.0982 39.4656 81.1933 34.304 86.2584 34.304Z" fill="#E66E61"/>
<path d="M22.3843 34.3016C17.8816 34.0072 19.763 39.6552 22.6354 41.4664C22.6354 41.4664 22.006 59.7609 24.798 61.3481C29.4213 63.9753 41.8715 50.7209 41.8715 50.7209L36.7963 44.0649C36.7963 44.0649 31.7747 48.5641 29.4079 52.9225L25.558 39.4632C25.558 39.4632 28.0956 34.6824 22.3843 34.3016Z" fill="#E66E61"/>
<path d="M105.092 38.5245H4.06446C3.78211 38.5245 3.51133 38.4172 3.31169 38.2264C3.11204 38.0356 2.99988 37.7767 2.99988 37.5069C2.99988 37.237 3.11204 36.9781 3.31169 36.7873C3.51133 36.5965 3.78211 36.4893 4.06446 36.4893H105.092C105.375 36.4893 105.646 36.5965 105.845 36.7873C106.045 36.9781 106.157 37.237 106.157 37.5069C106.157 37.7767 106.045 38.0356 105.845 38.2264C105.646 38.4172 105.375 38.5245 105.092 38.5245Z" fill="#7278A8"/>
<path d="M93.92 44.2589C93.4761 44.2589 93.0503 44.0904 92.7364 43.7903C92.4225 43.4902 92.2461 43.0833 92.2461 42.6589V32.3677C92.2227 32.1452 92.2484 31.9206 92.3215 31.7081C92.3945 31.4957 92.5134 31.3003 92.6703 31.1345C92.8272 30.9687 93.0188 30.8362 93.2326 30.7455C93.4464 30.6548 93.6777 30.6079 93.9116 30.6079C94.1455 30.6079 94.3769 30.6548 94.5907 30.7455C94.8045 30.8362 94.996 30.9687 95.153 31.1345C95.3099 31.3003 95.4287 31.4957 95.5018 31.7081C95.5749 31.9206 95.6005 32.1452 95.5772 32.3677V42.6813C95.5711 43.099 95.3943 43.4979 95.0847 43.7927C94.775 44.0875 94.357 44.2548 93.92 44.2589Z" fill="#2A2D54"/>
<path d="M96.9714 42.0732C96.5275 42.0732 96.1017 41.9046 95.7878 41.6046C95.4739 41.3045 95.2975 40.8976 95.2975 40.4732V34.5436C95.339 34.1489 95.5324 33.783 95.8401 33.5169C96.1479 33.2507 96.5481 33.1034 96.963 33.1034C97.378 33.1034 97.7782 33.2507 98.086 33.5169C98.3937 33.783 98.5871 34.1489 98.6285 34.5436V40.4796C98.6268 40.9001 98.452 41.303 98.1419 41.6012C97.8318 41.8995 97.4113 42.069 96.9714 42.0732V42.0732Z" fill="#2A2D54"/>
<path d="M13.7368 44.2589C13.9567 44.2589 14.1743 44.2175 14.3774 44.1371C14.5805 44.0567 14.765 43.9389 14.9204 43.7903C15.0759 43.6417 15.1992 43.4653 15.2833 43.2712C15.3674 43.0771 15.4107 42.869 15.4107 42.6589V32.3677C15.4341 32.1452 15.4084 31.9206 15.3353 31.7081C15.2623 31.4957 15.1434 31.3003 14.9865 31.1345C14.8296 30.9687 14.638 30.8362 14.4242 30.7455C14.2104 30.6548 13.9791 30.6079 13.7452 30.6079C13.5113 30.6079 13.28 30.6548 13.0662 30.7455C12.8524 30.8362 12.6608 30.9687 12.5039 31.1345C12.347 31.3003 12.2282 31.4957 12.1551 31.7081C12.082 31.9206 12.0564 32.1452 12.0797 32.3677V42.6813C12.0858 43.099 12.2626 43.4979 12.5722 43.7927C12.8819 44.0875 13.2998 44.2548 13.7368 44.2589V44.2589Z" fill="#2A2D54"/>
<path d="M10.6899 42.0711C11.1339 42.0711 11.5596 41.9026 11.8735 41.6025C12.1874 41.3025 12.3638 40.8955 12.3638 40.4711V34.5415C12.3638 34.1172 12.1874 33.7102 11.8735 33.4102C11.5596 33.1101 11.1339 32.9415 10.6899 32.9415C10.246 32.9415 9.82023 33.1101 9.50632 33.4102C9.19241 33.7102 9.01605 34.1172 9.01605 34.5415V40.4775C9.01782 40.9008 9.19496 41.3061 9.50868 41.6048C9.8224 41.9035 10.2471 42.0711 10.6899 42.0711V42.0711Z" fill="#2A2D54"/>
<path d="M67.91 40.4223C65.4762 38.5407 54.663 38.5311 54.5626 38.5407C54.4622 38.5503 43.649 38.5407 41.2152 40.4223C38.5035 42.5215 40.0535 50.6623 41.2152 55.9743C42.3768 61.2863 43.5385 65.1103 42.9794 69.1839C42.3902 73.4879 40.9306 81.7855 54.5626 80.8767C68.1946 81.7855 66.735 73.4879 66.1457 69.1839C65.5867 65.1103 66.7483 61.2831 67.91 55.9743C69.0717 50.6655 70.6217 42.5215 67.91 40.4223Z" fill="#FFB778"/>
<path d="M49.9862 82.5258L33.127 82.9482C33.0543 82.9504 32.9831 82.9689 32.9192 83.0023C32.8553 83.0356 32.8004 83.0828 32.7591 83.1401C32.7177 83.1973 32.691 83.2631 32.6811 83.332C32.6711 83.4009 32.6783 83.4711 32.7019 83.537C33.3714 85.3898 35.129 91.4826 32.4374 97.681C30.7576 101.569 30.2328 105.824 30.9209 109.979C30.9922 110.407 30.8854 110.846 30.6234 111.2C30.3613 111.555 29.9647 111.797 29.5182 111.876L20.8911 112.401L21.6778 110.66C21.6778 110.66 23.1106 111.393 26.2943 107.931L24.1484 80.9066C24.0236 79.3083 24.5603 77.7272 25.6428 76.5033C26.7253 75.2795 28.2672 74.5107 29.9366 74.3626L49.3133 72.6313L49.9862 82.5258Z" fill="#E66E61"/>
<path d="M30.4661 106.12C30.4661 106.12 31.3365 106.856 31.2093 108.468C31.0821 110.081 32.7493 110.577 31.1725 111.668C29.5957 112.76 29.06 111.211 27.2924 112.756C25.5248 114.302 20.4128 114.564 19.3616 112.792C18.3104 111.019 21.8825 109.944 23.4459 107.739C24.2125 106.654 25.0059 105.179 25.9098 105.227C27.3627 105.304 27.8883 106.897 28.8424 106.788C29.4584 106.734 29.9405 105.716 30.4661 106.12Z" fill="#1B1E42"/>
<path d="M58.6721 82.5258L75.5347 82.9482C75.6074 82.9502 75.6786 82.9687 75.7425 83.002C75.8064 83.0354 75.8611 83.0827 75.9022 83.1401C75.9433 83.1975 75.9697 83.2633 75.9791 83.3323C75.9886 83.4013 75.9808 83.4714 75.9565 83.537C75.287 85.3898 73.5328 91.4826 76.2243 97.681C77.9041 101.569 78.4289 105.824 77.7409 109.979C77.6695 110.407 77.7758 110.845 78.0371 111.199C78.2985 111.554 78.6943 111.797 79.1402 111.876L87.6268 112.401L86.84 110.66C86.84 110.66 85.5512 111.393 82.3675 107.931L84.51 80.9066C84.6348 79.3089 84.0986 77.7281 83.0168 76.5044C81.935 75.2806 80.394 74.5115 78.7251 74.3626L59.3484 72.6313L58.6721 82.5258Z" fill="#E66E61"/>
<path d="M72.0223 71.9234C70.392 71.5586 56.9207 71.725 54.6777 71.3314C54.5421 71.3019 54.4005 71.3097 54.2693 71.3539C54.1249 71.3125 53.9722 71.3048 53.824 71.3314C51.5844 71.725 38.257 71.5586 36.6267 71.9234C34.9963 72.2882 44.1758 79.1842 36.7372 83.4594C35.3378 84.2658 42.9673 83.8242 47.4901 84.3906C49.0436 84.5797 50.6182 84.5431 52.1602 84.2818C53.5843 84.0416 55.0413 84.0416 56.4654 84.2818C58.0211 84.5415 59.6086 84.5781 61.1757 84.3906C65.6985 83.8242 73.348 84.2338 71.9286 83.4594C63.6463 78.957 73.6527 72.2914 72.0223 71.9234Z" fill="#2A2D54"/>
<path d="M61.7414 38.8932C64.4665 38.5732 69.6387 39.2964 74.0075 46.1092L67.5966 52.5988C67.5966 52.5988 54.6844 39.69 61.7414 38.8932Z" fill="#F2A266"/>
<path d="M46.5791 39.0187C45.24 38.6571 37.9921 39.2971 34.6411 46.1099L41.052 52.5995C41.052 52.5995 53.4118 40.8779 46.5791 39.0187Z" fill="#F2A266"/>
<path d="M78.1379 106.192C78.1379 106.192 77.2742 106.944 77.4282 108.553C77.5822 110.163 75.9217 110.684 77.5186 111.753C79.1154 112.822 79.6276 111.257 81.412 112.79C83.1963 114.323 88.3216 114.496 89.346 112.71C90.3704 110.924 86.7783 109.897 85.1815 107.718C84.3948 106.646 83.5779 105.177 82.6774 105.241C81.2245 105.34 80.7257 106.937 79.7716 106.841C79.1523 106.793 78.6568 105.776 78.1379 106.192Z" fill="#1B1E42"/>
<path d="M123.062 29.241C123.062 29.241 117.542 29.2762 115.138 37.513C112.465 41.6723 110.018 45.9607 107.806 50.361C107.579 50.8073 107.522 51.3156 107.646 51.7978C109.962 60.5274 118.857 63.2954 118.857 63.2954C118.596 63.5266 118.435 63.844 118.409 64.1836C118.382 64.5232 118.491 64.8598 118.713 65.1258C119.149 65.6634 120.029 65.4458 119.329 67.9738C118.951 69.3434 120.066 69.4106 121.04 69.0138C125.392 67.241 124.053 64.3674 122.516 62.2618C121.392 60.7322 117.568 55.6058 115.556 52.9114C115.229 52.4771 115.082 51.9419 115.144 51.4098C115.205 50.8776 115.472 50.3864 115.891 50.0314C118.603 47.7367 120.617 44.7849 121.72 41.4874L123.062 29.241Z" fill="#E66E61"/>
<path d="M113.034 108.983C113.034 108.983 108.899 93.1106 115.28 81.741H121.899L120.141 86.2658C119.902 86.8732 119.858 87.5354 120.017 88.1666C120.529 90.1794 121.055 96.1954 115.494 109.751V112.311H104.162L113.034 108.983Z" fill="#E66E61"/>
<path d="M154.336 109.194C154.336 109.194 155.092 87.5844 146.599 81.9524H139.981L141.209 87.242C141.256 87.4482 141.323 87.6497 141.41 87.8436C142.183 89.5428 146.281 98.5188 151.888 109.962L148.912 112.522H155.608L154.336 109.194Z" fill="#E66E61"/>
<path d="M119.908 32.9852L119.61 36.1308C119.495 37.3091 119.717 38.495 120.252 39.5622C120.787 40.6295 121.614 41.5382 122.646 42.1916C125.237 43.83 128.408 46.3676 128.736 49.1548C129.305 53.9548 128.896 59.2028 130.44 60.0892C132.093 61.0492 137.858 59.6828 144.902 60.0892C150.335 60.4092 152.602 59.9516 152.558 58.4604C152.528 56.8124 152.715 48.8252 149.425 40.3676C147.061 34.2876 143.345 30.8092 143.345 30.8092C137.517 26.486 125.251 28.8252 125.251 28.8252C124.613 28.7553 123.967 28.8081 123.35 28.9805C122.734 29.1529 122.16 29.4414 121.662 29.8291C121.164 30.2167 120.753 30.6956 120.451 31.2377C120.15 31.7797 119.965 32.3739 119.908 32.9852V32.9852Z" fill="#2D4D9B"/>
<path d="M121.907 81.8343L140.43 67.6135L139.918 81.9079C139.916 81.9833 139.929 82.0585 139.958 82.1288C139.986 82.1992 140.029 82.2634 140.084 82.3176C140.139 82.3719 140.205 82.4151 140.277 82.4448C140.35 82.4744 140.428 82.4899 140.507 82.4903H146.576C146.681 82.4898 146.784 82.4633 146.875 82.4134C146.966 82.3635 147.042 82.2918 147.095 82.2055C155.933 67.8599 151.387 53.6071 151.387 53.6071L129.456 54.3303L128.984 58.9383C128.984 58.9383 115.235 67.8215 115.131 81.4247C115.131 81.5633 115.189 81.6963 115.291 81.7947C115.393 81.893 115.532 81.9487 115.677 81.9495H121.562C121.688 81.9512 121.81 81.9104 121.907 81.8343Z" fill="#1B1E42"/>
<path d="M121.177 21.7853C120.193 22.7101 118.931 25.2189 120.722 29.3982C122.513 33.5774 124.337 35.8974 127.082 36.1694C129.827 36.4414 132.984 31.4814 132.033 24.9117C131.083 18.3421 123.524 19.5805 121.177 21.7853Z" fill="#E66E61"/>
<path d="M120.118 23.4821C120.118 23.4821 120.586 17.4629 128.102 17.4021C131.175 17.3765 133.777 22.5541 132.745 24.7621C131.935 26.4997 129.555 25.7733 129.451 23.8789C129.401 22.9189 129.183 21.1301 127.007 21.8981C124.831 22.6661 122.304 25.0373 120.118 23.4821Z" fill="#1D2251"/>
<path d="M130.958 25.6897C130.958 25.6897 131.521 23.1297 133.533 23.6801C135.545 24.2305 134.407 30.3809 131.136 29.2289L130.958 25.6897Z" fill="#E66E61"/>
<path d="M122.634 32.0225C122.634 32.0225 123.675 29.5809 127.655 31.0273C127.655 31.0273 129.922 30.4385 130.019 28.4673C130.116 26.4961 131.023 26.4353 131.023 26.4353C131.023 26.4353 134.294 34.9665 128.01 36.8705C123.377 38.2721 122.071 32.1345 122.071 32.1345L122.634 32.0225Z" fill="#1D2251"/>
<path d="M123.704 31.2206C123.583 31.2213 123.462 31.2041 123.346 31.1694C123.195 31.1207 123.058 31.0394 122.945 30.9317C122.833 30.824 122.748 30.6929 122.697 30.5486C122.395 29.7614 122.616 27.803 122.666 27.419C122.689 27.2785 122.766 27.1513 122.883 27.0633C123 26.9754 123.148 26.9332 123.296 26.9454C123.37 26.9537 123.441 26.9759 123.506 27.0107C123.571 27.0454 123.628 27.0921 123.674 27.148C123.72 27.2039 123.754 27.2679 123.774 27.3363C123.794 27.4048 123.8 27.4764 123.791 27.547C123.687 28.3982 123.607 29.787 123.761 30.1774C123.791 30.1518 124.096 30.043 124.3 29.9118C124.362 29.8725 124.432 29.8453 124.505 29.8317C124.578 29.818 124.653 29.8183 124.726 29.8324C124.798 29.8465 124.868 29.8742 124.929 29.9139C124.991 29.9536 125.044 30.0046 125.085 30.0638C125.126 30.1231 125.155 30.1895 125.169 30.2592C125.183 30.329 125.183 30.4008 125.168 30.4705C125.153 30.5402 125.124 30.6064 125.083 30.6654C125.041 30.7243 124.988 30.7749 124.926 30.8142C124.564 31.0514 124.142 31.1917 123.704 31.2206V31.2206Z" fill="#D96F4E"/>
<path d="M126.893 26.9958C126.916 27.1273 126.899 27.2623 126.845 27.385C126.79 27.5077 126.701 27.6132 126.586 27.689C126.471 27.7649 126.337 27.8081 126.197 27.8136C126.058 27.8191 125.92 27.7867 125.799 27.7202C125.678 27.6536 125.58 27.5557 125.515 27.4377C125.45 27.3197 125.421 27.1865 125.433 27.0537C125.444 26.9208 125.494 26.7937 125.578 26.6872C125.662 26.5806 125.775 26.499 125.906 26.4518C126.112 26.3998 126.332 26.4278 126.517 26.5297C126.702 26.6316 126.837 26.7991 126.893 26.9958V26.9958Z" fill="#1B1E42"/>
<path d="M122.244 28.1824C122.267 28.314 122.25 28.4491 122.196 28.5721C122.142 28.6951 122.053 28.801 121.939 28.8775C121.824 28.9541 121.69 28.9982 121.55 29.0047C121.411 29.0112 121.272 28.98 121.151 28.9145C121.029 28.849 120.93 28.752 120.863 28.6347C120.797 28.5174 120.767 28.3845 120.776 28.2514C120.785 28.1183 120.834 27.9904 120.916 27.8825C120.998 27.7746 121.11 27.6911 121.24 27.6416C121.448 27.5865 121.67 27.6124 121.858 27.7138C122.047 27.8152 122.185 27.9837 122.244 28.1824V28.1824Z" fill="#1B1E42"/>
<path d="M132.133 26.939C132.054 26.9374 131.977 26.9207 131.906 26.8897C131.834 26.8587 131.77 26.8142 131.717 26.7589C131.664 26.7035 131.624 26.6385 131.598 26.5677C131.572 26.4969 131.561 26.4218 131.567 26.347C131.631 25.707 132.123 24.5358 133.368 24.5198C133.511 24.5303 133.645 24.592 133.742 24.6925C133.839 24.7931 133.894 24.9251 133.894 25.0622C133.894 25.1992 133.839 25.3312 133.742 25.4318C133.645 25.5324 133.511 25.5941 133.368 25.6046C132.792 25.6046 132.698 26.4366 132.698 26.4462C132.685 26.5809 132.62 26.706 132.515 26.7971C132.411 26.8882 132.274 26.9388 132.133 26.939Z" fill="#D96F4E"/>
<path d="M125.291 33.2157C125.163 33.2142 125.039 33.1713 124.939 33.0941C124.84 33.0168 124.77 32.9097 124.742 32.7901C124.714 32.6704 124.73 32.5453 124.785 32.4349C124.841 32.3246 124.934 32.2355 125.05 32.182C125.43 32.0285 125.779 31.8118 126.081 31.542C126.144 31.4126 126.257 31.3121 126.397 31.2624C126.537 31.2126 126.692 31.2177 126.828 31.2764C126.965 31.337 127.072 31.4471 127.124 31.5826C127.177 31.7181 127.171 31.868 127.109 31.9996C126.861 32.5245 125.924 32.9853 125.532 33.1613C125.457 33.196 125.374 33.2146 125.291 33.2157V33.2157Z" fill="#D96F4E"/>
<path d="M143.213 30.611C144.194 30.9598 148.961 34.7007 142.812 42.7518C136.662 50.803 136.451 49.203 135.658 54.6974C134.864 60.1918 127.64 65.5582 127.573 67.923C127.506 70.2878 126.261 72.5182 121.624 70.3966C121.624 70.3966 118.524 74.3358 117.607 74.2078C116.689 74.0798 120.452 69.0238 120.452 69.0238C120.452 69.0238 119.87 65.6414 123.579 64.2238L130.944 49.4014C130.944 49.4014 131.677 43.9614 135.155 39.8814C135.129 39.875 137.449 28.5726 143.213 30.611Z" fill="#E66E61"/>
<path d="M116.434 107.536C116.434 107.536 117.087 108.304 116.726 109.699C116.364 111.094 117.747 111.763 116.193 112.502C114.64 113.241 112.511 112.429 110.392 112.822C108.273 113.216 104.336 113.616 103.696 111.913C103.057 110.211 108.33 109.673 110.037 107.958C110.877 107.117 111.805 105.936 112.585 106.105C113.85 106.381 114.061 107.849 114.928 107.891C115.43 107.929 116.023 107.101 116.434 107.536Z" fill="#1B1E42"/>
<path d="M154.351 106.681C154.351 106.681 156.28 107.267 155.918 108.662C155.556 110.057 157.679 111.747 156.072 112.38C155.265 112.7 155.761 112.307 153.658 112.7C151.556 113.094 146.323 113.888 145.674 112.188C145.024 110.489 148.201 109.545 149.912 107.836C150.752 106.995 149.892 106.537 151.311 106.153C152.731 105.769 153.494 107.692 154.348 107.734L154.351 106.681Z" fill="#1B1E42"/>
<path d="M50.8298 36.5251C50.8298 36.5251 51.6567 37.8755 49.8254 39.0435C49.8254 39.0435 50.5151 42.0515 54.6027 42.0739C58.6902 42.0963 59.0987 38.5219 59.0987 38.5219L50.8298 36.5251Z" fill="#D35854"/>
<path d="M56.1492 25.0055C57.4615 25.3255 59.8317 26.8647 60.4444 31.2487C61.057 35.6327 60.7155 38.4551 58.5395 39.9623C56.3635 41.4695 51.1109 38.7559 48.5499 32.7463C45.9889 26.7367 53.0292 24.2375 56.1492 25.0055Z" fill="#E66E61"/>
<path d="M57.6269 22.2223C58.3199 22.5423 59.2673 24.6255 57.4997 26.3471C55.7321 28.0687 51.4738 27.5375 50.8042 30.1423C50.5197 31.2687 51.3801 32.9743 49.4317 33.6047C48.4843 33.9087 49.4719 35.3103 48.9663 36.3887C48.4608 37.4671 44.072 30.8815 45.2504 27.8799C46.5426 24.5935 49.1772 23.5183 53.5829 23.7999C56.1774 23.9663 55.9296 21.4031 57.6269 22.2223Z" fill="#1D2251"/>
<path d="M49.4401 33.6003C49.4401 33.6003 47.4314 31.9715 46.1827 33.5331C44.934 35.0947 49.7514 39.3603 51.5994 36.6147L49.4401 33.6003Z" fill="#E66E61"/>
<path d="M60.3013 31.4744C60.315 31.6047 60.2897 31.736 60.2283 31.8531C60.167 31.9701 60.0721 32.0681 59.9547 32.1357C59.8374 32.2032 59.7024 32.2375 59.5654 32.2345C59.4285 32.2315 59.2952 32.1914 59.1812 32.1189C59.0672 32.0464 58.977 31.9444 58.9213 31.8248C58.8655 31.7052 58.8465 31.5729 58.8663 31.4433C58.8862 31.3138 58.9441 31.1923 59.0334 31.093C59.1227 30.9937 59.2396 30.9207 59.3706 30.8824C59.576 30.8446 59.7887 30.8855 59.9628 30.9962C60.1369 31.107 60.2585 31.2787 60.3013 31.4744V31.4744Z" fill="#1B1E42"/>
<path d="M56.3871 32.9942C56.4008 33.1245 56.3755 33.2558 56.3142 33.3728C56.2528 33.4899 56.1579 33.5879 56.0406 33.6554C55.9232 33.723 55.7882 33.7572 55.6513 33.7543C55.5144 33.7513 55.3811 33.7112 55.2671 33.6387C55.153 33.5661 55.0629 33.4641 55.0072 33.3445C54.9514 33.2249 54.9324 33.0927 54.9522 32.9631C54.9721 32.8336 55.03 32.7121 55.1193 32.6128C55.2085 32.5134 55.3255 32.4404 55.4565 32.4022C55.6619 32.3644 55.8745 32.4052 56.0487 32.516C56.2228 32.6267 56.3444 32.7985 56.3871 32.9942V32.9942Z" fill="#1B1E42"/>
<path d="M59.0587 35.2144C58.9806 35.2201 58.902 35.2104 58.8279 35.1857C58.7539 35.1611 58.686 35.1221 58.6284 35.0711C58.5709 35.0202 58.525 34.9585 58.4936 34.8898C58.4622 34.8211 58.446 34.747 58.446 34.672C58.446 34.597 58.4622 34.5229 58.4936 34.4542C58.525 34.3855 58.5709 34.3238 58.6284 34.2729C58.686 34.2219 58.7539 34.1829 58.8279 34.1583C58.902 34.1336 58.9806 34.1239 59.0587 34.1296C59.1719 34.1237 59.2785 34.0768 59.3567 33.9984C59.3037 33.8743 59.2198 33.7644 59.1123 33.6784C57.569 32.2832 57.6962 31.176 57.7163 31.0544C57.7402 30.9128 57.8213 30.7859 57.9422 30.7009C58.063 30.616 58.2139 30.5797 58.3624 30.6C58.508 30.6214 58.6391 30.6962 58.7278 30.8086C58.8166 30.9209 58.8561 31.0619 58.8378 31.2016C58.8378 31.2432 58.8378 31.928 59.889 32.888C60.6222 33.5472 60.5251 34.12 60.4012 34.4016C60.2805 34.6444 60.0904 34.8495 59.8528 34.9934C59.6153 35.1372 59.34 35.2138 59.0587 35.2144V35.2144Z" fill="#D35854"/>
<path d="M58.185 37.3271C58.0651 37.3296 57.9476 37.2948 57.8502 37.2279C57.7895 37.1875 57.7377 37.1362 57.6978 37.0767C57.6579 37.0173 57.6306 36.9509 57.6176 36.8813C57.6045 36.8118 57.6059 36.7404 57.6217 36.6714C57.6375 36.6024 57.6674 36.537 57.7096 36.479C57.8715 36.2564 58.0844 36.072 58.3321 35.94C58.5799 35.808 58.8559 35.7319 59.1392 35.7174C59.2173 35.7117 59.2959 35.7214 59.37 35.7461C59.444 35.7707 59.512 35.8098 59.5695 35.8607C59.627 35.9116 59.6729 35.9734 59.7043 36.042C59.7357 36.1107 59.7519 36.1849 59.7519 36.2598C59.7519 36.3348 59.7357 36.4089 59.7043 36.4776C59.6729 36.5463 59.627 36.608 59.5695 36.659C59.512 36.7099 59.444 36.7489 59.37 36.7736C59.2959 36.7982 59.2173 36.808 59.1392 36.8022C58.9351 36.8334 58.7522 36.9404 58.6303 37.0999C58.5794 37.1679 58.5127 37.2238 58.4355 37.2632C58.3582 37.3026 58.2725 37.3245 58.185 37.3271Z" fill="#D35854"/>
<path d="M23.3124 39.1621C23.6974 38.5081 24.1839 37.9136 24.7553 37.3989C25.8198 36.3813 25.157 34.9125 26.1747 34.6885C27.1924 34.4645 26.6702 37.6037 25.5721 39.4661L23.3124 39.1621Z" fill="#E66E61"/>
<path d="M20.0569 35.1192C20.0569 35.1192 20.616 33.6632 23.2942 33.9384C26.7022 34.2872 25.2559 37.4169 23.2942 37.8457C21.3324 38.2745 19.066 36.7385 20.0569 35.1192Z" fill="#E66E61"/>
<path d="M85.4764 39.1621C85.092 38.5085 84.6067 37.9141 84.0369 37.3989C82.9723 36.3813 83.6352 34.9125 82.6174 34.6885C81.5997 34.4645 82.122 37.6037 83.22 39.4661L85.4764 39.1621Z" fill="#E66E61"/>
<path d="M88.7119 35.1192C88.7119 35.1192 88.1529 33.6632 85.4746 33.9384C82.07 34.2872 83.5129 37.4169 85.4746 37.8457C87.4364 38.2745 89.7062 36.7385 88.7119 35.1192Z" fill="#E66E61"/>
</g>
</svg>
