<svg width="136" height="136" viewBox="0 0 136 136" fill="none" xmlns="http://www.w3.org/2000/svg">
<mask id="mask0_1_1516" style="mask-type:alpha" maskUnits="userSpaceOnUse" x="0" y="0" width="136" height="136">
<path d="M119.607 0H16.3934C7.33959 0 0 7.33959 0 16.3934V119.607C0 128.66 7.33959 136 16.3934 136H119.607C128.66 136 136 128.66 136 119.607V16.3934C136 7.33959 128.66 0 119.607 0Z" fill="white"/>
</mask>
<g mask="url(#mask0_1_1516)">
<path d="M119.607 0H16.3934C7.33959 0 0 7.33959 0 16.3934V119.607C0 128.66 7.33959 136 16.3934 136H119.607C128.66 136 136 128.66 136 119.607V16.3934C136 7.33959 128.66 0 119.607 0Z" fill="#486C59"/>
<rect opacity="0.01" x="-19.0416" y="-1.36914" width="163.2" height="163.2" fill="#C4C4C4" fill-opacity="0.01"/>
<circle cx="70.7196" cy="78.6057" r="63.6481" fill="#F5D5D5"/>
<path d="M135.544 133.608C136.645 128.604 136.73 123.875 138.601 118.701C139.609 116.01 140.875 113.408 142.386 110.927C143.09 109.732 143.927 108.593 144.12 107.428C144.384 105.851 143.237 105.042 141.591 104.905C138.714 104.67 135.526 104.833 132.522 104.81L123.168 104.738C110.835 104.647 98.5262 104.506 86.1329 104.523C73.7397 104.539 61.241 104.895 48.6156 105.42C36.3736 105.929 24.1176 106.36 12.6952 105.342C9.88099 105.091 7.1371 104.745 4.46005 104.288C3.91445 104.204 3.35604 104.227 2.82076 104.356C1.3679 103.873 -1.22824 104.683 -2.28006 106.791C-5.1201 112.514 -7.96484 118.231 -10.8143 123.943L-15.0884 132.531C-15.7568 133.878 -16.4263 135.224 -17.0971 136.569C-17.776 137.933 -18.7328 139.464 -18.9791 140.782C-19.5947 144.046 -15.5563 143.472 -12.5134 143.067C-9.47046 142.663 -6.48736 142.454 -3.56054 142.336C2.46181 142.128 8.49227 142.265 14.4964 142.747C26.2177 143.603 37.5661 144.996 49.6463 145.257C61.846 145.518 74.2005 145.519 86.5586 145.489C98.9167 145.46 111.394 145.342 123.904 145.084C126.771 145.026 130.236 144.357 132.494 141.419C134.387 138.974 135.023 135.971 135.544 133.608Z" fill="#FFC87A"/>
<path d="M71.8839 104.682C64.8483 118.217 57.8209 131.754 50.8017 145.293H51.6319C58.6675 131.747 65.7031 118.2 72.7387 104.653L71.8839 104.682ZM82.6026 104.542H81.7619C78.1069 111.895 74.4343 119.249 70.6597 126.606C68.162 131.481 65.6151 136.356 63.019 141.232C62.2732 142.633 61.5099 144.033 60.75 145.436H61.5837C62.2873 144.114 63.0155 142.796 63.719 141.477C66.3668 136.516 68.9582 131.556 71.4934 126.596C75.2645 119.246 78.9629 111.893 82.5886 104.538L82.6026 104.542ZM52.2827 126.084C54.9386 120.884 57.6825 115.682 60.4686 110.482C61.4641 108.625 62.5195 106.751 63.5256 104.878L62.6954 104.901C61.6013 106.937 60.444 108.974 59.3675 110.985C56.7597 115.852 54.2057 120.718 51.7057 125.581C49.2186 130.445 46.8019 135.305 44.4978 140.165C43.7379 141.764 42.9921 143.364 42.2604 144.963L43.073 145.009C43.5843 143.897 44.1002 142.785 44.6209 141.673C47.0587 136.49 49.6302 131.293 52.2827 126.094V126.084ZM92.1711 104.516C88.2593 112.153 84.052 119.788 79.5492 127.419C76.5274 132.553 73.4528 137.688 70.6738 142.832C70.1953 143.716 69.731 144.601 69.2666 145.485H70.1003C70.8602 144.019 71.6447 142.554 72.4538 141.092C75.2047 136.111 78.1948 131.143 81.1111 126.172C85.3324 118.959 89.2958 111.74 93.0013 104.516H92.1711ZM109.982 104.62C102.784 118.248 95.6889 131.869 88.6955 145.482H89.5362C96.532 131.869 103.623 118.254 110.808 104.636L109.982 104.62ZM137.892 120.94C138.096 120.199 138.332 119.448 138.596 118.691C139.604 116.001 140.875 113.402 142.391 110.926C143.095 109.731 143.929 108.592 144.126 107.427C144.126 107.378 144.126 107.329 144.126 107.283L124.531 145.067C124.82 145.067 125.108 145.032 125.404 144.999C129.569 136.983 133.732 128.966 137.892 120.95V120.94ZM42.9429 109.601C43.5796 108.269 44.1811 106.924 44.7792 105.573L43.9349 105.606C43.3369 106.944 42.7424 108.279 42.1127 109.601C39.6385 114.795 37.0799 119.991 34.4368 125.19C31.313 131.32 28.0708 137.457 24.7101 143.602L25.5086 143.674C28.8787 137.513 32.1315 131.352 35.267 125.19C37.9124 119.989 40.471 114.793 42.9429 109.601ZM101.891 104.571H101.05C97.782 111.252 94.0425 117.953 90.5177 124.641C86.8521 131.605 83.4516 138.562 80.3161 145.515H81.1814C84.3053 138.569 87.6964 131.611 91.3549 124.641C94.8727 117.95 98.6227 111.249 101.891 104.571V104.571ZM31.6578 110.446C32.3613 108.932 33.0825 107.42 33.7931 105.909L32.9558 105.926C32.2523 107.43 31.5487 108.938 30.8451 110.446C28.3827 115.642 25.885 120.84 23.3522 126.038C20.6294 131.624 17.8609 137.211 15.0467 142.799L15.8452 142.858C18.6595 137.25 21.4327 131.643 24.1648 126.035C26.6976 120.837 29.1953 115.639 31.6578 110.443V110.446ZM136.182 104.79C129.529 118.281 122.605 131.772 115.41 145.263H116.275C123.494 131.772 130.412 118.287 137.03 104.809L136.182 104.79ZM6.09386 104.548C-0.725997 117.456 -7.45322 130.363 -14.0878 143.269C-13.7853 143.236 -13.4898 143.2 -13.1943 143.161C-6.58783 130.323 0.0959974 117.484 6.85722 104.646L6.09386 104.548ZM23.7532 105.919C17.4564 118.039 11.163 130.161 4.87318 142.283L5.70338 142.3C12.0003 130.177 18.2924 118.054 24.5799 105.929L23.7532 105.919ZM128.271 104.78C121.235 118.306 114.214 131.832 107.206 145.358H108.05C115.067 131.838 122.084 118.319 129.101 104.799L128.271 104.78ZM14.7477 105.511C8.66655 117.797 2.35677 130.084 -4.18166 142.371L-3.559 142.345H-3.30221C3.23388 130.075 9.52255 117.814 15.5638 105.563L14.7477 105.511ZM119.054 104.708C112.354 118.284 105.377 131.861 98.1232 145.44H98.9851C106.255 131.868 113.224 118.295 119.891 104.721L119.054 104.708ZM53.0566 105.243C46.2907 118.267 39.5306 131.288 32.7764 144.307L33.582 144.372C40.362 131.316 47.1373 118.26 53.9079 105.204L53.0566 105.243Z" fill="#B35E3D"/>
<path d="M65.4771 125.618C65.0861 125.515 64.672 125.515 64.281 125.618C64.5308 125.151 64.1052 124.411 63.4614 124.639L62.4272 125.005C62.3588 124.882 62.2519 124.782 62.1205 124.717C61.9892 124.652 61.8397 124.626 61.6919 124.642C61.6912 124.528 61.6582 124.416 61.5961 124.317C61.5341 124.219 61.4452 124.137 61.3383 124.08C61.2315 124.023 61.1105 123.993 60.9873 123.993C60.8642 123.994 60.7433 124.024 60.6366 124.081C57.263 125.804 53.8789 127.521 50.1043 128.174C48.3338 128.423 46.6177 128.933 45.0211 129.685C43.7934 130.296 41.8551 131.125 41.5491 132.535C41.2782 133.821 42.3969 135.198 43.3361 135.978C44.5603 136.99 46.1046 137.284 47.772 137.081C49.5251 136.852 51.2257 136.357 52.806 135.616C53.5483 135.26 54.2131 134.774 54.9167 134.389C55.7616 133.982 56.628 133.615 57.5128 133.289C59.2936 132.521 60.9802 131.578 62.5433 130.475C63.5353 129.793 65.7093 128.295 65.3997 126.986L65.5615 126.901C65.6949 126.841 65.806 126.745 65.8808 126.626C65.9556 126.508 65.9907 126.371 65.9817 126.233C65.9726 126.096 65.9199 125.964 65.83 125.855C65.7402 125.745 65.6174 125.663 65.4771 125.618V125.618Z" fill="#F5E5E1"/>
<path d="M47.7804 137.07L47.9985 137.037C46.908 134.642 45.536 132.367 44.1887 130.088C43.0595 130.656 41.7931 131.394 41.5574 132.523C41.4779 132.963 41.5277 133.414 41.7016 133.829L41.9056 134.269C42.2726 134.909 42.7599 135.483 43.3444 135.963C44.5686 136.979 46.113 137.282 47.7804 137.07Z" fill="#2F1F40"/>
<path d="M65.8765 124.55C66.0126 124.896 66.2577 125.196 66.5801 125.412C66.0454 125.555 65.6795 126.371 66.2494 126.675L67.164 127.161C67.1009 127.288 67.0796 127.429 67.1027 127.566C67.1259 127.704 67.1925 127.832 67.2942 127.935C66.9424 128.261 66.8826 128.878 67.456 129.077C70.8929 130.282 74.3157 131.522 77.0807 133.771C78.3279 134.856 79.7695 135.731 81.3408 136.356C82.5755 136.813 84.4153 137.632 85.7626 136.872C86.9938 136.18 87.4828 134.433 87.5743 133.229C87.6279 132.499 87.5025 131.768 87.2076 131.089C86.9128 130.411 86.456 129.803 85.8717 129.312C84.6514 128.225 83.2313 127.35 81.6785 126.727C80.9468 126.443 80.1517 126.313 79.406 126.074C78.5634 125.751 77.7413 125.384 76.9435 124.974C75.2491 124.232 73.4661 123.679 71.6316 123.326C70.4743 123.084 67.952 122.572 67.0409 123.688L66.8721 123.63C66.7341 123.591 66.5875 123.588 66.4478 123.62C66.3081 123.653 66.1804 123.72 66.0784 123.814C65.9763 123.909 65.9037 124.027 65.8682 124.156C65.8326 124.286 65.8355 124.422 65.8765 124.55V124.55Z" fill="#F5E5E1"/>
<path d="M85.852 129.32L85.6972 129.19C84.3499 131.618 83.2699 134.164 82.1794 136.697C83.3192 137.111 84.6911 137.5 85.757 136.899C86.1766 136.649 86.5214 136.304 86.7595 135.897L87.0093 135.447C87.3227 134.75 87.5105 134.01 87.5651 133.257C87.6209 132.523 87.4957 131.787 87.1988 131.105C86.9019 130.423 86.4413 129.812 85.852 129.32V129.32Z" fill="#2F1F40"/>
<path d="M83.0156 99.8408C80.7677 100.696 78.4917 101.473 76.1875 102.162C73.3205 102.729 70.362 102.948 67.5337 103.186C64.8637 103.408 62.1726 103.683 59.5061 103.683C58.2502 103.683 56.9873 103.474 55.735 103.562C55.0666 103.607 54.3982 103.702 53.7298 103.81C53.3526 103.661 52.9839 103.495 52.6252 103.31C51.5312 102.746 50.416 104.042 50.9367 104.835C50.8441 105.032 50.8207 105.251 50.8698 105.461C50.9543 105.768 51.0422 106.078 51.1266 106.388C51.1852 106.591 51.3045 106.775 51.4707 106.917C51.637 107.06 51.8433 107.156 52.0659 107.195C52.134 107.379 52.2525 107.543 52.4098 107.672C52.567 107.801 52.7576 107.889 52.9629 107.929C52.9313 108.624 53.5539 109.267 54.4052 108.908C54.4479 109.146 54.579 109.362 54.7756 109.52C54.9722 109.677 55.222 109.766 55.4817 109.77C55.5204 109.913 55.5933 110.046 55.6951 110.159C55.7968 110.272 55.9246 110.362 56.0692 110.423C56.1521 110.554 56.2644 110.668 56.3985 110.755C56.5326 110.843 56.6854 110.903 56.8466 110.932C56.8363 111.13 56.8826 111.328 56.9808 111.504C57.079 111.681 57.2256 111.83 57.4059 111.937C57.3721 112.154 57.4119 112.375 57.5197 112.57C57.6275 112.765 57.798 112.923 58.0075 113.024C57.9305 113.223 57.9213 113.44 57.9809 113.644C58.0406 113.848 58.1663 114.03 58.3411 114.166C58.516 114.302 58.7315 114.385 58.9587 114.404C59.1858 114.423 59.4137 114.376 59.6116 114.271L60.4101 113.899C60.4479 114.035 60.5175 114.161 60.614 114.269C60.7105 114.376 60.8315 114.463 60.9684 114.522C61.1052 114.582 61.2545 114.612 61.4055 114.611C61.5565 114.611 61.7056 114.579 61.8419 114.519C61.8367 114.668 61.8655 114.816 61.9263 114.953C61.7942 115.081 61.6951 115.234 61.6367 115.403C61.5783 115.571 61.562 115.749 61.5891 115.924C61.6163 116.099 61.6861 116.266 61.7933 116.413C61.9005 116.559 62.0423 116.68 62.2077 116.768C62.238 116.925 62.3013 117.075 62.3942 117.209C61.5323 118.008 62.7108 119.477 63.8013 118.811C68.8964 115.677 73.6892 112.138 78.1258 108.236C79.8353 107.73 81.4853 107.065 83.0508 106.251C83.8739 105.824 83.8388 104.698 83.1422 104.345C83.3208 104.178 83.4619 103.979 83.5573 103.761C83.6732 103.482 83.6904 103.177 83.6062 102.888C83.5221 102.6 83.3411 102.344 83.0895 102.158C83.3252 102.047 83.5573 101.933 83.793 101.812C84.9117 101.215 84.3031 99.3512 83.0156 99.8408Z" fill="#1D2251"/>
<path d="M79.5541 54.2401C79.7078 53.7577 79.8103 53.2625 79.8602 52.7615C79.9831 52.0341 80.015 51.2959 79.9552 50.5616C80.4582 49.9806 80.8733 49.3082 80.5919 48.6652C80.022 47.3759 78.2983 47.0561 78.1681 45.4763C78.1118 44.768 76.761 44.9279 76.8032 45.646C76.8665 46.6252 74.7558 47.7121 74.3407 48.3225C74.1719 48.5705 73.398 48.3747 73.0567 48.4302V48.4008C73.0624 48.3029 73.0428 48.2051 72.9995 48.1156C72.9563 48.0261 72.8907 47.9475 72.8082 47.8862C72.7256 47.8249 72.6285 47.7828 72.5249 47.7633C72.4213 47.7438 72.3142 47.7475 72.2125 47.7741C71.9691 47.8246 71.7459 47.9377 71.5687 48.1005C71.5898 47.9928 71.6109 47.8818 71.6355 47.7741C71.7692 47.092 70.8863 47.0038 70.443 47.389C70.0166 47.2364 69.55 47.2091 69.1062 47.3106C69.7254 46.6872 68.8248 45.7798 68.1881 46.4033C67.5571 46.9884 66.7925 47.4346 65.9508 47.7089C65.4801 47.8382 65.0684 48.1077 64.7793 48.4759C64.111 49.4551 64.1004 51.0871 64.1285 52.1577C64.1954 54.6351 65.0432 57.8762 67.0976 59.505C69.0851 61.0749 72.128 61.3426 74.696 60.6767C75.8499 60.3797 77.2148 59.8869 78.0696 59.0447C79.1039 58.0296 79.4767 56.2769 79.9024 55.0072C79.9642 54.8625 79.9624 54.701 79.8973 54.5576C79.8321 54.4141 79.7089 54.3002 79.5541 54.2401V54.2401Z" fill="#E66E61"/>
<path d="M81.8883 100.763L81.6244 100.842C81.7446 100.751 81.8419 100.637 81.9094 100.508C81.9769 100.379 82.0129 100.237 82.0149 100.094C82.0169 99.9503 81.9849 99.808 81.921 99.6772C81.8572 99.5464 81.7631 99.4302 81.6455 99.3369C81.6033 98.7722 81.1003 98.2337 80.4037 98.4817L80.052 98.609C80.0647 98.5585 80.0741 98.5072 80.0801 98.4556C80.7366 98.1834 81.3756 97.8761 81.9938 97.5352C82.4616 97.2708 82.7642 96.6441 82.4617 96.2002C81.9531 95.456 81.3764 94.7538 80.7379 94.1014C80.2032 93.5563 79.2358 93.8468 78.9544 94.529L78.9298 94.5878C78.7082 91.908 78.5006 89.2315 78.3458 86.5485C78.2047 79.7618 78.4713 72.973 79.1444 66.2138C79.1607 66.0814 79.1412 65.9474 79.0878 65.8237C79.0344 65.7001 78.9486 65.5907 78.8383 65.5055C79.0951 63.3577 79.4363 61.2133 79.8937 59.0754C80.0769 58.6626 80.1447 58.2134 80.0907 57.7698C80.0755 57.5952 79.9886 57.4328 79.8479 57.3161C80.4968 56.4947 81.0844 55.6332 81.6068 54.7375C82.2787 53.6277 80.5515 52.6485 79.8725 53.7583C79.0423 55.0835 78.2086 56.5164 76.907 57.5184C75.4999 58.6021 73.6988 58.8077 71.9821 58.8828C70.0649 58.9677 68.3904 58.7098 66.9657 57.538C65.6205 56.3941 64.6459 54.9246 64.1515 53.2948C63.7786 52.1459 61.7629 52.6257 62.1182 53.8073C62.5452 55.2702 63.2885 56.6372 64.3028 57.8253C64.2834 57.8947 64.2716 57.9658 64.2676 58.0374C63.9756 62.4569 63.353 67.0167 64.0811 71.3644C64.1054 71.5219 64.1788 71.6694 64.2922 71.7887C63.3974 75.4898 62.9351 79.2695 62.9132 83.0626C61.0488 85.5236 60.4191 88.6505 59.6065 91.4609C59.0823 93.2724 58.6356 95.0904 58.1994 96.915C57.7632 98.7396 57.232 100.505 56.0359 102.066C55.8844 102.279 55.8288 102.539 55.8812 102.79C55.4062 102.617 54.9313 102.464 54.4459 102.297C53.1971 101.909 52.5322 103.76 53.7669 104.155C57.9566 105.503 62.2484 108.754 67.0607 107.569C69.5865 106.945 72.063 105.849 74.536 105.036C77.1345 104.181 79.7483 103.377 82.3772 102.624C83.6155 102.248 83.1969 100.372 81.8883 100.763Z" fill="white"/>
<path d="M77.9641 49.377H67.4318L68.1459 38.9061H78.6782L77.9641 49.377Z" fill="#E66E61"/>
<path d="M78.1581 45.4782C78.1054 44.8547 77.0465 44.907 76.8284 45.4194C76.11 45.4177 75.3933 45.4845 74.6896 45.6185C73.6499 45.7514 72.6012 45.8147 71.5517 45.8078C70.4014 45.8274 69.6908 45.9188 68.9802 46.5683C68.9336 46.4485 68.8936 46.3265 68.8606 46.2028C68.6495 46.131 67.6188 45.9057 67.566 46.2028C67.362 47.2668 66.8027 47.3778 65.9478 47.6977C65.4767 47.8261 65.0647 48.0959 64.7764 48.4647C64.6835 48.6017 64.6034 48.7458 64.5372 48.8956C65.0631 49.8538 65.9048 50.6313 66.9399 51.1151C68.7445 51.9344 70.5773 51.5068 72.396 50.7006C74.3026 49.8552 77.6938 49.111 79.5688 47.4986C78.9215 46.947 78.2355 46.4508 78.1581 45.4782Z" fill="#D35854"/>
<path d="M64.9861 48.8482C64.9861 48.5218 65.0037 48.2215 65.0072 47.9082C65.0123 47.8129 64.9934 47.7178 64.9519 47.6305C64.9104 47.5432 64.8476 47.466 64.7684 47.4052C64.6891 47.3443 64.5957 47.3015 64.4955 47.28C64.3953 47.2585 64.2911 47.2591 64.1911 47.2815C64.051 47.2767 63.9126 47.3108 63.7936 47.3794C60.1984 48.277 56.561 49.1877 53.0572 50.4084C50.2929 51.311 47.8228 52.8535 45.8809 54.8899C44.305 56.5904 43.32 59.1331 42.4651 61.1111C41.4274 63.5395 40.5479 66.0071 39.6509 68.4845C38.7538 70.9619 34.733 83.8449 33.8887 86.4104C33.8395 86.5573 39.869 93.007 39.869 93.0037C47.6645 91.2118 49.3917 80.075 49.4515 80.5123C49.3706 84.1648 49.0786 84.7556 48.4595 88.3982C48.096 90.5372 47.6375 92.6632 47.084 94.7761C46.5352 96.865 45.8035 98.9181 45.297 101.01C45.2708 101.094 45.2634 101.181 45.2755 101.267C45.2875 101.353 45.3187 101.436 45.3669 101.51C45.4152 101.584 45.4796 101.648 45.5559 101.698C45.6323 101.748 45.719 101.783 45.8106 101.8C45.8175 101.92 45.8623 102.035 45.9394 102.132C46.0165 102.228 46.1224 102.301 46.244 102.342C46.3656 102.382 46.4975 102.389 46.6231 102.361C46.7487 102.332 46.8625 102.27 46.9503 102.182C47.0594 102.084 47.1649 101.98 47.2669 101.875C47.1368 102.172 47.0137 102.469 46.887 102.766C46.8268 102.894 46.8205 103.037 46.8694 103.168C46.9183 103.3 47.0188 103.409 47.1509 103.475C47.0876 103.621 47.086 103.784 47.1466 103.931C47.2072 104.079 47.3255 104.2 47.4777 104.27C47.63 104.34 47.8052 104.354 47.9682 104.309C48.1313 104.265 48.2703 104.165 48.3575 104.03C48.4454 103.919 48.5263 103.804 48.6107 103.703C48.6543 103.864 48.7621 104.003 48.9124 104.093C49.0627 104.183 49.2441 104.216 49.4198 104.186C49.4089 104.208 49.3995 104.231 49.3917 104.255C49.3541 104.339 49.3388 104.431 49.3468 104.522C49.3548 104.613 49.386 104.701 49.4379 104.779C49.4898 104.857 49.5608 104.922 49.6451 104.969C49.7294 105.017 49.8246 105.045 49.9229 105.051C49.7646 105.378 49.6098 105.704 49.448 106.03C49.156 106.621 49.842 106.948 50.3591 106.745C50.4472 106.835 50.558 106.903 50.6814 106.943C50.8049 106.984 50.9372 106.995 51.0665 106.976C51.1958 106.957 51.3181 106.909 51.4224 106.836C51.5267 106.763 51.6098 106.666 51.6642 106.556V106.54C51.7948 106.63 51.9533 106.679 52.1162 106.679C52.2791 106.679 52.4377 106.63 52.5683 106.54C52.6452 106.572 52.7271 106.593 52.811 106.602C52.9834 107.14 53.9261 107.01 54.1337 106.484L54.1618 106.416C54.272 106.41 54.3785 106.377 54.4697 106.32C54.5609 106.262 54.6333 106.182 54.679 106.089C57.6508 100.788 59.956 95.1869 61.5492 89.397C62.3407 86.6128 63.0021 83.8057 63.579 80.9889C63.7056 80.3655 63.8253 79.7388 63.9308 79.1154C66.2631 69.183 65.7284 58.7414 64.9861 48.8482Z" fill="#596AB2"/>
<path d="M80.5859 31.3014C79.9811 30.2713 79.3079 29.2772 78.5702 28.3246C77.7471 27.3095 76.7797 26.1671 75.355 25.9027C74.2293 25.6938 73.0297 25.9027 71.8935 25.7265C71.1697 25.6133 70.4831 25.3487 69.8858 24.9529C69.2885 24.557 68.7961 24.0402 68.446 23.4417C68.0722 23.902 67.7647 24.4056 67.5314 24.9398C67.2078 25.795 67.1796 26.7089 67.0319 27.5869C66.8525 28.6673 66.557 29.7999 65.7584 30.6747C65.4524 31.0011 64.9986 31.4091 64.6011 31.4189C64.6011 31.4711 64.6011 31.5266 64.6011 31.5788C64.3949 31.5183 64.1805 31.4853 63.9643 31.4809C63.0427 31.4809 62.6522 32.3981 62.5854 33.139C62.508 34.0203 62.5572 35.0974 63.208 35.7502C63.5598 36.0391 63.9977 36.2223 64.4639 36.2757C64.6644 38.1036 65.2554 39.5397 66.6027 40.8257C67.95 42.1118 69.3501 43.685 71.1934 44.1681C73.0367 44.6511 75.0102 44.0963 76.5968 43.0583C78.3149 41.9522 79.7579 40.5176 80.8287 38.851C81.8348 37.157 81.9825 35.0844 82.074 33.1978C81.3317 33.0346 80.9025 31.8171 80.5859 31.3014Z" fill="#E66E61"/>
<path d="M75.8361 37.9933C75.3577 37.7844 75.0094 38.1173 74.5134 38.2511L74.4079 38.274L74.4501 38.2414C74.4902 38.2008 74.5205 38.1527 74.5387 38.1003C74.5569 38.0479 74.5627 37.9925 74.5556 37.9378C74.5985 37.8934 74.6275 37.839 74.6394 37.7805C74.6514 37.7219 74.6458 37.6615 74.6233 37.6056C74.6009 37.5498 74.5623 37.5008 74.512 37.4638C74.4616 37.4268 74.4013 37.4034 74.3375 37.396C73.6998 37.3581 73.0621 37.4704 72.4837 37.7224C72.4089 37.75 72.3489 37.8039 72.3166 37.8723C72.2843 37.9408 72.2824 38.0182 72.3113 38.0879H71.8293C71.7694 38.0837 71.7093 38.0938 71.6547 38.1172C71.6001 38.1407 71.553 38.1767 71.5177 38.2219C71.4824 38.2671 71.4602 38.3199 71.4532 38.3753C71.4461 38.4307 71.4545 38.4868 71.4776 38.5384C71.2348 38.5384 70.9851 38.7669 71.1258 39.0051C71.7519 39.9452 75.9452 39.8048 75.9593 38.2773C75.9673 38.2241 75.9602 38.1698 75.9386 38.12C75.917 38.0702 75.8816 38.0265 75.8361 37.9933V37.9933Z" fill="#D35854"/>
<path d="M84.8306 23.0275C84.5809 21.4249 84.6582 20.0083 83.6522 18.6407C82.7564 17.4472 81.545 16.4873 80.1343 15.8532C77.0879 14.4758 73.7284 14.8218 70.4639 15.8532C68.909 16.3428 67.5476 17.087 66.7632 18.4906C66.3408 19.2366 66.1416 20.074 66.1863 20.9157C64.9656 21.2911 64.0967 23.3343 63.8504 24.245C63.4646 25.5007 63.3746 26.8187 63.5866 28.1096C63.5866 28.3054 63.5866 28.498 63.6147 28.6938C63.6675 29.4021 63.6851 30.4499 64.0439 31.07C64.4907 31.8436 65.2892 31.1973 65.7536 30.6816C66.5521 29.8068 66.8476 28.6742 67.027 27.5939C67.1712 26.7158 67.2029 25.8019 67.5265 24.9468C67.7599 24.4126 68.0673 23.9089 68.4412 23.4486C68.5045 23.553 68.5748 23.6542 68.6452 23.7521L68.6874 23.8109C68.7613 23.9121 68.8387 24.01 68.9196 24.1014C69.0005 24.1928 69.099 24.3005 69.194 24.3951C69.7065 24.8997 70.3406 25.2845 71.0443 25.518C71.3165 25.6079 71.5967 25.6756 71.8816 25.7203C72.2587 25.7743 72.6398 25.8005 73.0213 25.7987H74.2702H74.5199L74.7556 25.815H74.935C75.0722 25.815 75.2094 25.8476 75.3431 25.8737C75.4768 25.8998 75.5788 25.9259 75.6949 25.9586L75.7758 25.9847C75.8848 26.0206 75.9939 26.0598 76.0994 26.1055C76.2279 26.1637 76.3524 26.2291 76.4723 26.3013C77.1191 26.7088 77.6866 27.2154 78.1503 27.7995L78.1784 27.8321L78.3649 28.0573L78.5619 28.2956C79.2996 29.2482 79.9728 30.2423 80.5776 31.2724C80.5987 31.3083 80.6233 31.3475 80.6444 31.3899C80.6655 31.4323 80.6444 31.4127 80.662 31.4225C80.6796 31.4323 80.7007 31.4911 80.7183 31.527C81.0208 32.1112 81.4219 33.0284 82.0727 33.159C82.0727 33.1916 82.0727 33.221 82.0727 33.2536C84.0497 33.9815 86.9061 32.8261 87.3986 30.7175C88.0705 27.8615 85.2457 25.6909 84.8306 23.0275Z" fill="#1D2251"/>
<path d="M81.9232 35.3444C81.6726 35.2677 81.4053 35.2509 81.1458 35.2955C79.9709 35.475 79.0914 36.6011 78.4336 37.4497C77.2727 36.4248 75.6193 35.5664 74.0469 35.4326C71.996 35.2563 70.0718 36.3628 68.4501 37.5444C67.9048 36.6664 67.1661 35.4815 65.9876 35.2955C65.2348 35.178 64.679 35.8471 64.5137 36.1898C64.4486 36.2873 64.4201 36.4021 64.4328 36.5162C64.7599 41.0858 65.2383 46.9121 70.8246 47.6563C73.2554 47.9827 76.4882 47.6008 78.3843 45.7925C80.5689 43.697 81.8353 36.0625 81.9232 35.3444ZM73.5403 37.7924C74.5957 38.4975 75.8023 39.1666 77.0898 39.2351C76.6297 39.8666 76.225 40.5313 75.8797 41.2229C74.093 40.7545 72.2061 40.7231 70.4025 41.1315C70.179 40.5367 69.9073 39.9584 69.5898 39.4016C71.0537 39.2551 72.4333 38.6932 73.5403 37.7924V37.7924Z" fill="#1D2251"/>
<path d="M104.646 86.3456C104.435 85.2195 102.679 81.0938 102.183 76.2272C101.895 73.4626 101.357 62.8023 100.956 61.4347C100.375 59.4436 99.7349 56.914 98.3876 55.2135C96.7272 53.1082 94.4406 51.6884 91.8233 50.732C88.4885 49.5113 84.9742 48.6006 81.5021 47.703C81.3886 47.6336 81.2544 47.5994 81.1187 47.6051C81.0143 47.5859 80.9068 47.5873 80.803 47.6092C80.6993 47.631 80.6017 47.6728 80.5164 47.7319C80.4312 47.791 80.3603 47.866 80.3083 47.9521C80.2563 48.0382 80.2244 48.1335 80.2146 48.2318C80.1759 48.5582 80.1442 48.8585 80.1091 49.1718C78.023 59.0617 76.0671 69.5066 77.0239 79.4259C77.0474 80.0526 77.0814 80.6782 77.126 81.3027C77.3159 84.1195 77.5973 86.9266 78.0089 89.7108C78.8602 95.4554 80.292 101.086 82.6032 106.403C82.6365 106.496 82.7 106.577 82.785 106.636C82.87 106.694 82.9723 106.727 83.0781 106.729C83.0823 106.752 83.0881 106.775 83.0957 106.798C83.2293 107.323 84.151 107.451 84.4008 106.915C84.487 106.907 84.5712 106.886 84.6505 106.853C84.7809 106.944 84.9395 106.993 85.1026 106.993C85.2656 106.993 85.4242 106.944 85.5546 106.853V106.87C85.6044 106.981 85.684 107.078 85.7858 107.152C85.8876 107.227 86.0082 107.276 86.1362 107.295C86.2641 107.314 86.3952 107.302 86.5169 107.261C86.6386 107.22 86.747 107.15 86.8316 107.059C87.3205 107.261 88.0523 106.935 87.8412 106.344C87.7216 106.018 87.6125 105.691 87.4894 105.365C87.591 105.359 87.6899 105.332 87.7794 105.287C87.8689 105.242 87.9467 105.18 88.0076 105.104C88.0685 105.028 88.1109 104.941 88.132 104.849C88.1531 104.756 88.1523 104.661 88.1296 104.569C88.1254 104.545 88.1196 104.522 88.1121 104.5C88.2945 104.52 88.479 104.483 88.6367 104.396C88.7945 104.309 88.9167 104.175 88.9845 104.017C89.0548 104.131 89.1217 104.245 89.192 104.343C89.6247 105.022 90.6625 104.49 90.4725 103.788C90.6092 103.725 90.7185 103.62 90.7825 103.492C90.8464 103.363 90.8612 103.218 90.8243 103.08C90.7363 102.783 90.6519 102.486 90.564 102.189C90.6519 102.294 90.7399 102.398 90.8384 102.496C91.3731 103.044 92.2982 102.346 91.9852 101.713C91.4892 100.701 94.3526 99.0034 94.1486 98.2625C92.5797 92.508 91.067 86.6132 91.5489 80.5911C91.6791 80.1113 89.5473 85.3566 92.0837 89.5476C92.0837 89.5476 98.2152 94.8059 98.7288 94.7308C100.688 94.4403 100.92 92.8573 100.839 92.6908C102.229 90.406 101.283 90.6214 103.189 88.6891C104.188 87.7099 104.67 86.4925 104.646 86.3456Z" fill="#596AB2"/>
<path d="M110.255 100.919C109.52 99.8105 108.575 98.8351 107.465 98.0397C106.305 97.1356 105.116 96.2445 103.649 95.7745C100.057 94.6255 96.0819 97.0246 93.0178 98.797C90.045 100.524 87.2474 102.498 84.6595 104.695C82.2921 105.348 80.0583 106.48 77.8702 107.656C76.285 108.467 74.7575 109.372 73.297 110.365C71.8899 111.38 70.8064 112.604 69.6842 113.883C68.971 114.708 68.0701 115.377 67.0459 115.842C66.8504 115.524 66.6355 115.216 66.4021 114.921C65.8869 114.231 65.2174 113.652 64.4392 113.224C63.4753 112.738 62.4446 112.754 61.3611 112.653C60.1123 112.532 59.6655 111.837 59.1062 110.903C58.6111 110.025 57.9714 109.225 57.2101 108.53C56.5907 107.988 55.8771 107.547 55.0994 107.225C55.0605 107.169 55.017 107.117 54.9693 107.068C52.352 104.44 49.1649 102.365 45.9918 100.344C44.3973 99.2912 42.7192 98.3518 40.9719 97.5338C39.9966 97.0719 38.9839 96.6812 37.9431 96.3653C35.8991 95.3223 33.5542 94.9 31.2381 95.1576C26.2569 95.7582 22.5808 100.119 22.8376 104.653C22.8587 105.025 22.9748 107.179 23.6256 108.664C24.8991 111.569 28.3817 113.426 31.0376 115.228C32.3748 116.173 33.8314 116.964 35.3751 117.581C37.0109 118.211 38.7944 118.626 40.2015 119.641C41.4222 120.516 42.3368 121.697 43.5329 122.598C44.8318 123.543 46.4096 124.098 48.0568 124.191C50.1077 124.374 52.1409 124.24 54.1566 124.648C55.0642 124.834 55.9683 125.046 56.8759 125.222C56.7496 125.431 56.7025 125.673 56.742 125.91C56.7816 126.147 56.9055 126.364 57.094 126.528C57.182 126.693 57.3202 126.83 57.4915 126.923C59.1379 127.873 60.7701 128.855 62.4446 129.763C63.5949 130.386 64.7593 130.494 65.9131 129.635C66.3986 129.276 66.7715 128.757 67.2992 128.454C67.9062 128.163 68.5875 128.032 69.2691 128.075C70.5426 128.075 71.816 128.216 73.0965 127.964C74.5036 127.683 75.4323 126.887 76.2907 125.839C77.346 124.57 78.7144 124.122 80.2517 123.574C83.6734 122.353 87.0481 121.011 90.376 119.546C93.7109 118.071 96.9965 116.481 100.198 114.751C103.132 113.168 106.044 111.38 108.289 108.974C110.47 106.653 111.908 103.647 110.255 100.919Z" fill="#1D2251"/>
<path d="M46.7185 101.147C48.894 102.054 50.7965 103.443 52.259 105.191C53.5817 106.774 54.7215 108.204 56.5683 109.31C57.5469 109.877 58.3907 110.624 59.0484 111.504C59.2196 111.775 59.4529 112.008 59.7319 112.187C60.0109 112.366 60.3287 112.486 60.6631 112.538C61.8943 112.754 62.9637 112.881 63.9944 113.573C64.9257 114.211 65.6281 115.095 66.0101 116.109C66.0101 116.109 66.0101 116.109 66.0101 116.109C64.7437 116.83 63.3577 117.232 62.0209 117.81C60.7967 118.342 59.6605 119.115 59.1856 120.339C58.9393 120.969 59.0238 121.508 59.0097 122.138C59.0097 122.862 58.7212 123.117 58.1373 123.528L56.7548 124.54C56.403 124.804 56.8533 125.258 57.2121 124.994C57.9156 124.491 59.0625 123.916 59.5585 123.244C60.0545 122.572 59.5831 121.958 59.6605 121.237C59.8962 118.968 62.538 118.315 64.4201 117.571C66.283 116.839 67.9516 115.738 69.3098 114.346C70.6642 112.969 71.8813 111.575 73.489 110.43C79.2476 106.343 86.8109 105.06 91.8765 100.014C92.1896 99.6878 91.7323 99.2439 91.4157 99.5573C87.416 103.536 81.7664 105.201 76.7852 107.737C74.257 108.962 71.9852 110.597 70.0767 112.564C68.9932 113.72 67.9484 114.849 66.6117 115.73C66.291 114.917 65.7788 114.18 65.1125 113.573C64.4462 112.966 63.6424 112.504 62.7597 112.222C62.3224 112.094 61.8739 112.002 61.4194 111.947C60.8389 111.859 60.364 111.83 59.9384 111.435C59.7005 111.186 59.4907 110.914 59.3122 110.625C58.7492 109.938 58.048 109.358 57.2473 108.918C56.1938 108.327 55.2446 107.588 54.433 106.728C53.7084 105.912 53.0892 105.018 52.354 104.208C50.8891 102.628 49.0607 101.373 47.0034 100.536L46.7185 101.147Z" fill="#151B44"/>
<path d="M49.9442 72.9377C49.7261 69.6737 49.5021 66.401 49.2723 63.1196C49.2441 62.7181 48.5688 62.7116 48.5688 63.1196C48.7845 66.3836 49.0085 69.6563 49.2406 72.9377C49.2828 73.349 49.9723 73.349 49.9442 72.9377Z" fill="#2D4D9B"/>
<path d="M90.0045 67.6924C89.9318 70.8672 89.9799 74.0366 90.1487 77.2005C90.1734 77.6117 90.8523 77.4942 90.8523 77.0862C90.7046 73.9484 90.6542 70.8074 90.7011 67.663C90.6764 67.3073 90.0115 67.3301 90.0045 67.6924Z" fill="#2D4D9B"/>
<path d="M62.2447 69.0167C62.0161 67.4043 61.3477 65.7527 61.4286 64.0913C61.5095 62.43 62.3116 60.7588 62.6106 59.0974C62.7619 58.2586 63.3141 56.6853 62.4066 56.1239C61.8085 55.7486 60.9115 55.8236 60.2959 55.4711C59.4446 54.9782 59.9441 53.8195 60.0848 53.0296C60.3627 51.3715 60.6758 49.7199 61.0029 48.0684L60.2712 48.2577C59.9546 49.8483 59.6603 51.439 59.3883 53.0296C59.2511 53.8456 58.6671 55.2818 59.5149 55.8693C60.0285 56.2251 60.7919 56.1957 61.3547 56.4732C61.9176 56.7506 62.0583 56.8746 62.1216 57.4785C62.1146 57.9542 62.0533 58.428 61.9387 58.8918C61.6537 60.563 60.8833 62.2047 60.7286 63.8824C60.609 65.2958 61.112 66.6405 61.3582 67.9983C61.669 69.8169 61.8581 71.6515 61.9246 73.4917C62.0899 76.9645 62.1497 80.4505 62.2553 83.9365C62.254 84.0114 62.2806 84.0845 62.3306 84.1435C62.3806 84.2024 62.4509 84.2435 62.5298 84.26C62.6086 84.2765 62.6912 84.2672 62.7635 84.2339C62.8359 84.2005 62.8937 84.145 62.9272 84.0768C62.9272 84.0376 62.9448 83.9985 62.9518 83.9593C62.9588 83.9201 62.9518 83.943 62.9518 83.9365C62.8463 80.457 62.783 76.9711 62.6 73.4917C62.5613 71.9967 62.4523 70.4986 62.2447 69.0167Z" fill="#2D4D9B"/>
<path d="M84.1574 53.0439C84.1855 53.8338 84.5338 55.0024 83.6157 55.4854C82.9613 55.8347 82.0784 55.7596 81.4276 56.1382C80.4532 56.6996 80.7803 58.2762 80.8155 59.115C80.8894 60.7731 81.4663 62.441 81.3186 64.1089C81.1708 65.7769 80.2632 67.4186 79.8305 69.0311C79.419 70.5129 79.1094 72.0144 78.8315 73.5158C78.2511 76.6688 77.7551 79.8317 77.2344 82.9814C77.2696 83.4025 77.3083 83.8268 77.347 84.2479C77.4469 84.2573 77.5468 84.2307 77.626 84.1735C77.7053 84.1164 77.7578 84.0332 77.7727 83.9411C78.3566 80.4616 78.8913 76.9789 79.5315 73.4962C79.8504 71.6414 80.2886 69.8059 80.8437 67.9996C81.2763 66.6451 81.9623 65.297 82.0327 63.887C82.1171 62.206 81.5613 60.5675 81.5085 58.8931C81.454 58.4244 81.454 57.9517 81.5085 57.483C81.6387 56.8792 81.7759 56.7551 82.4126 56.4744C83.0493 56.1937 83.7704 56.2296 84.3333 55.8738C85.262 55.2831 84.875 53.8502 84.8469 53.0309C84.7976 51.5262 84.7202 50.0247 84.6288 48.5233L83.9252 48.334C84.0272 49.9105 84.1081 51.474 84.1574 53.0439Z" fill="#2D4D9B"/>
<path d="M75.5449 31.0189C75.4077 30.637 74.7288 30.8035 74.866 31.1886C75.1122 31.8969 75.3831 32.7129 75.2775 33.4735C75.2481 33.7411 75.1551 33.9993 75.0053 34.2296C74.8554 34.4599 74.6525 34.6566 74.411 34.8054C74.1695 34.9543 73.8954 35.0517 73.6085 35.0906C73.3216 35.1295 73.029 35.1089 72.7517 35.0304C72.3261 34.9227 72.1009 35.5461 72.5266 35.6538C73.0874 35.8081 73.687 35.7886 74.2348 35.5984C74.7826 35.4081 75.2487 35.0575 75.5625 34.5995C76.3223 33.5028 75.9389 32.1091 75.5449 31.0189Z" fill="#D35854"/>
<path d="M70.4826 31.3618C70.1535 31.5638 69.7714 31.6787 69.3772 31.6942C68.983 31.7098 68.5917 31.6253 68.2454 31.4499C67.8725 31.2541 67.4469 31.7763 67.8197 31.9787C68.265 32.2236 68.7744 32.3499 69.292 32.3436C69.8096 32.3372 70.3153 32.1985 70.7535 31.9428C71.1439 31.7208 70.8801 31.1398 70.4826 31.3618Z" fill="#231C2B"/>
<path d="M79.6974 31.1726C79.3683 31.3748 78.9859 31.4895 78.5915 31.5045C78.1971 31.5195 77.8059 31.434 77.4601 31.2575C77.0872 31.0649 76.6581 31.5839 77.0345 31.7895C77.4801 32.034 77.9897 32.1597 78.5073 32.1528C79.0249 32.1459 79.5304 32.0066 79.9683 31.7503C80.3587 31.5317 80.0914 30.9506 79.6974 31.1726Z" fill="#231C2B"/>
<path d="M70.8595 28.3684C70.1891 28.238 69.503 28.1908 68.8192 28.228C68.2423 28.2476 67.7639 28.228 67.3031 28.6262C67.252 28.6742 67.2134 28.7325 67.1905 28.7965C67.1675 28.8606 67.1607 28.9286 67.1705 28.9955C67.1804 29.0623 67.2067 29.1262 67.2473 29.1822C67.288 29.2381 67.342 29.2846 67.4051 29.3182C67.8307 29.5825 68.3795 29.4553 68.8825 29.4422C69.4735 29.4422 70.0575 29.4618 70.6414 29.4422C71.3168 29.4455 71.5173 28.5054 70.8595 28.3684Z" fill="#231C2B"/>
<path d="M76.8832 28.3679C77.5596 28.2384 78.2514 28.1912 78.941 28.2276C79.5144 28.2471 79.9964 28.2276 80.4009 28.6258C80.626 28.8477 80.4537 29.1774 80.2039 29.3177C79.7431 29.5821 79.2119 29.4548 78.7124 29.4418C78.1214 29.4418 77.534 29.4614 76.9535 29.4418C76.2816 29.445 76.2042 28.505 76.8832 28.3679Z" fill="#231C2B"/>
<path d="M41.8851 82.5585C41.0619 82.725 39.7146 83.4333 38.9407 83.7662C38.005 84.1742 37.0798 84.6018 36.1827 85.0881C35.4792 85.4733 31.8488 87.5949 30.8005 88.3913C27.8843 90.6174 25.6469 93.5224 22.6181 95.5918C21.4479 95.3814 20.2378 95.4752 19.1214 95.8627C17.9195 96.2884 16.8431 96.9718 15.98 97.857L15.7725 97.7852C14.1543 97.2858 12.1667 97.8439 10.4958 98.1116C10.2994 98.1421 10.1178 98.2275 9.97513 98.3564C9.75749 98.3556 9.54744 98.4306 9.38655 98.5666C9.22565 98.7026 9.12562 98.8896 9.10623 99.0908C8.81777 100.955 9.3771 102.711 11.1114 103.703C11.3964 103.863 11.6996 103.993 12.0155 104.091C10.633 104.676 9.18389 105.114 7.69559 105.397C6.52768 105.619 6.68599 107.277 7.87148 107.084C8.4273 106.993 8.97607 106.879 9.51782 106.758C9.11679 107.411 9.69371 108.367 10.5732 107.949C11.143 107.688 11.7164 107.407 12.2863 107.117C11.6989 107.871 12.6381 108.958 13.5211 108.276C15.1586 106.997 16.6778 105.593 18.0626 104.078C18.6641 103.425 22.7764 100.406 24.37 99.3976C29.5024 97.7656 34.6842 96.1695 39.2608 93.3298C41.3715 92.0242 44.1048 90.6533 44.9948 88.3195C45.3466 87.4089 45.4557 86.446 44.9632 85.6136C44.5938 84.9184 42.9897 82.3366 41.8851 82.5585ZM11.8185 101.992C11.0727 101.385 10.8792 100.641 10.8968 99.7795C11.6989 99.6587 12.4974 99.5216 13.2995 99.4139C13.7105 99.3002 14.1474 99.2935 14.5623 99.3943C15.5684 99.7207 15.0689 100.945 14.499 102.035C14.4544 102.075 14.4133 102.119 14.3759 102.165C13.7462 102.991 12.427 102.489 11.8185 101.992V101.992Z" fill="#E66E61"/>
<path d="M92.2056 82.8855C91.8854 83.2544 91.6515 83.6812 91.5188 84.1386C91.3862 84.5961 91.3577 85.0741 91.4352 85.5423C91.6673 87.9446 93.9821 89.6191 95.6952 91.1564C99.4171 94.502 104.071 96.7052 108.672 98.9182C109.963 100.1 113.182 103.56 113.597 104.278C114.539 105.931 115.648 107.497 116.911 108.955C117.583 109.732 118.814 108.775 118.441 107.976C118.923 108.328 119.412 108.671 119.898 109.001C120.665 109.516 121.498 108.642 121.28 107.956C121.78 108.155 122.286 108.332 122.803 108.488C123.918 108.815 124.531 107.209 123.444 106.856C122.071 106.408 120.763 105.805 119.549 105.061C119.891 105.003 120.224 104.913 120.545 104.79C122.525 104.023 123.553 102.365 123.785 100.495C123.805 100.4 123.805 100.303 123.783 100.209C123.76 100.115 123.717 100.026 123.656 99.9484C123.595 99.8707 123.517 99.8057 123.427 99.7576C123.337 99.7094 123.237 99.6792 123.134 99.6689C123.024 99.5241 122.866 99.4173 122.684 99.3653C121.122 98.8921 119.321 98.1022 117.593 98.3861L117.372 98.4318C116.761 97.4573 115.884 96.6499 114.828 96.0916C113.967 95.5922 112.841 95.3898 111.465 95.4061C109.052 93.0071 107.652 89.8802 105.394 87.3408C104.581 86.4302 101.595 83.9071 101.007 83.4436C100.256 82.8619 99.4731 82.3171 98.6607 81.8116C97.9923 81.3905 96.8631 80.5321 96.0962 80.271C95.0655 79.9152 92.779 82.262 92.2056 82.8855ZM117.755 102.861C117.732 102.81 117.704 102.761 117.671 102.714C117.411 101.575 117.252 100.322 118.332 100.103C118.754 100.05 119.183 100.109 119.57 100.273C120.33 100.475 121.08 100.71 121.836 100.926C121.754 101.349 121.577 101.753 121.315 102.109C121.054 102.465 120.715 102.766 120.32 102.992C119.585 103.413 118.149 103.746 117.755 102.861Z" fill="#E66E61"/>
<path d="M45.9509 86.2245C45.213 85.0279 44.4087 83.8676 43.5412 82.7483C43.492 82.683 43.4497 82.6243 43.404 82.5688C43.334 82.4748 43.2378 82.4002 43.1256 82.3531C43.0135 82.3059 42.8896 82.288 42.7673 82.3011C42.7391 82.2424 42.7075 82.1836 42.6793 82.1281C42.5386 81.8344 42.3944 81.5439 42.2502 81.2534C42.1833 81.1261 42.12 80.9955 42.0567 80.8715C41.9854 80.7183 41.8581 80.5933 41.6972 80.5186C41.5363 80.444 41.3521 80.4245 41.1772 80.4635C41.1174 80.333 41.0541 80.2057 40.9943 80.0751C40.5264 79.0763 38.9118 79.9511 39.3374 80.9433L39.4078 81.1065C39.2005 81.1408 39.009 81.2319 38.8579 81.368C38.7068 81.5041 38.6031 81.679 38.56 81.8703H38.5213L38.363 81.7006C37.7122 81.0314 36.7589 81.7006 36.78 82.4545C36.5246 82.4991 36.2982 82.6348 36.1496 82.8326C36.0009 83.0303 35.9418 83.2743 35.985 83.5121C35.985 83.548 36.0061 83.5839 36.0131 83.6198C35.9204 83.6915 35.8467 83.7822 35.7979 83.8846C35.7491 83.9871 35.7264 84.0986 35.7317 84.2106C35.5035 84.3205 35.3278 84.5056 35.2392 84.7295C35.0486 85.0635 34.7906 85.3605 34.4793 85.6043C34.3295 85.7345 34.2281 85.9054 34.1895 86.0925C34.151 86.2796 34.1773 86.4732 34.2648 86.6455C35.6626 88.8491 37.3139 90.9055 39.1897 92.7786C39.333 92.9116 39.5198 92.9969 39.7209 93.0211C39.922 93.0453 40.1261 93.0071 40.3013 92.9124C41.3131 92.411 42.2217 91.7481 42.9854 90.954C43.148 91.0359 43.3373 91.0603 43.5178 91.0224C43.6983 90.9846 43.8579 90.8872 43.9668 90.7484C44.2465 90.4528 44.4328 90.0914 44.5051 89.7039C45.1629 89.1425 45.4901 88.2318 45.5604 87.344C45.6676 87.2967 45.7633 87.2295 45.8416 87.1467C45.9198 87.0639 45.9791 86.9671 46.0156 86.8623C46.0522 86.7575 46.0653 86.6469 46.0542 86.5372C46.043 86.4275 46.0079 86.3211 45.9509 86.2245V86.2245Z" fill="#2D4D9B"/>
<path d="M103.588 82.9345C103.3 81.6713 101.566 83.2609 100.391 82.6081C100.349 82.5855 100.306 82.5669 100.26 82.5526C99.6839 81.4943 98.9665 80.5074 98.1251 79.615C98.0387 79.529 97.9332 79.4615 97.8158 79.4172C97.6985 79.3729 97.5721 79.3529 97.4456 79.3585C97.319 79.3641 97.1953 79.3951 97.083 79.4496C96.9708 79.504 96.8726 79.5805 96.7954 79.6737C96.7603 79.6705 96.725 79.6705 96.6899 79.6737C96.2888 79.171 95.522 79.3473 95.1843 79.7977C94.9756 79.7389 94.7527 79.7389 94.544 79.7977C94.0023 79.8467 93.4394 80.2841 93.6013 80.8357C93.4992 81.0217 93.3902 81.2078 93.2811 81.3906C93.2149 81.4075 93.1502 81.4293 93.0877 81.4559C92.5987 81.2274 91.8353 81.3514 91.6806 81.9585C91.6032 82.2653 91.5222 82.5722 91.4449 82.879C91.2499 82.9185 91.0759 83.0201 90.9532 83.1662C90.8305 83.3122 90.7667 83.4935 90.773 83.6787C90.7582 84.1337 90.7959 84.5889 90.8855 85.0365C90.8539 85.1671 90.8222 85.2944 90.787 85.4216C90.7458 85.5609 90.7432 85.7075 90.7794 85.8479C90.8157 85.9883 90.8897 86.1179 90.9946 86.2246C91.2371 87.138 91.6895 87.992 92.3208 88.7281C92.7397 89.2173 93.257 89.6263 93.844 89.9325C93.844 89.9586 93.8792 89.9848 93.9003 90.0109C94.8216 91.0582 95.8982 91.9791 97.0979 92.7461C97.1523 92.7804 97.21 92.8099 97.2703 92.8343L97.302 92.8636C97.5658 93.3598 98.0055 93.6339 98.3784 94.1235C98.7513 94.6131 99.3141 94.6556 99.6483 94.2639C100.602 93.1476 101.727 91.7049 102.638 90.5592C103.374 89.6355 105.203 88.0982 105.298 86.946C105.361 86.1495 104.091 85.1312 103.588 82.9345Z" fill="#2D4D9B"/>
<path fill-rule="evenodd" clip-rule="evenodd" d="M98.4745 11.2783C101.37 9.3747 101.905 6.6692 101.002 5.45415C99.7867 6.07787 99.5073 7.10256 99.2319 7.94905C99.3173 7.32539 99.2163 6.6904 98.9418 6.12396C98.6672 5.55752 98.2312 5.08493 97.6887 4.76562C95.6151 6.51124 96.579 8.45936 98.4745 11.2783Z" fill="#F2B368"/>
<path fill-rule="evenodd" clip-rule="evenodd" d="M97.7978 8.46842C97.4616 7.13591 96.7043 6.30968 95.3475 6.13147C94.2175 8.96658 97.0121 11.7045 98.778 11.664C100.398 11.6275 103.598 9.43235 102.455 6.32588C101.123 6.61344 100.584 7.54093 100.098 8.27401C100.344 7.69371 100.412 7.05364 100.295 6.43451C100.178 5.81537 99.8794 5.24487 99.4381 4.79492C97.9679 5.6252 97.5993 6.58104 97.7978 8.46842Z" fill="#FFC370"/>
<path fill-rule="evenodd" clip-rule="evenodd" d="M38.1255 -0.015625C35.3431 1.9568 34.4358 6.46462 35.9385 9.38074C38.9032 7.18555 39.8509 1.973 38.1255 -0.015625Z" fill="#EAEAEA"/>
<path fill-rule="evenodd" clip-rule="evenodd" d="M118.948 11.5664C122.188 13.7413 124.415 20.3593 122.402 24.2434C119.774 22.5221 117.72 17.0017 118.948 11.5664V11.5664Z" fill="#EAEAEA"/>
<path fill-rule="evenodd" clip-rule="evenodd" d="M116.638 26.9108C120.048 28.304 123.252 33.391 122.138 37.3683C119.368 36.2828 116.553 32.1841 116.638 26.9108V26.9108Z" fill="#EAEAEA"/>
<path fill-rule="evenodd" clip-rule="evenodd" d="M127.773 21.7402C129.227 25.3489 127.737 31.5132 123.893 33.6031C123.622 28.9657 123.715 25.5555 127.773 21.7402V21.7402Z" fill="#EAEAEA"/>
<path d="M121.692 49.947C121.689 49.9717 121.68 49.9954 121.667 50.0164C121.654 50.0375 121.636 50.0555 121.615 50.0692C121.594 50.0829 121.571 50.092 121.546 50.0958C121.522 50.0996 121.496 50.0981 121.473 50.0914C121.449 50.0847 121.426 50.0729 121.407 50.0568C121.388 50.0407 121.373 50.0208 121.362 49.9982C121.351 49.9757 121.346 49.9512 121.345 49.9263C121.345 49.9013 121.35 49.8766 121.36 49.8538C122.539 45.7632 123.154 39.1128 122.944 32.3976C122.761 26.5411 121.939 20.6522 120.307 16.4076C120.29 16.3652 120.291 16.3179 120.309 16.2761C120.328 16.2343 120.362 16.2015 120.404 16.1849C120.447 16.1682 120.494 16.1691 120.536 16.1873C120.577 16.2055 120.61 16.2396 120.627 16.2821C122.275 20.5631 123.102 26.4925 123.288 32.3855C123.498 39.1168 122.883 45.8037 121.692 49.9308V49.947Z" fill="#EAEAEA"/>
<path fill-rule="evenodd" clip-rule="evenodd" d="M19.2148 39.1304C18.6422 38.6183 17.943 38.2687 17.1897 38.1179C17.3694 37.4425 17.3971 36.7356 17.2707 36.0482C16.5052 36.2345 15.5656 36.5383 15.355 37.1499C15.278 36.4816 15.2375 35.7931 14.1399 34.574C13.568 35.2617 13.2266 36.1118 13.1639 37.0041C12.4308 36.3601 10.8067 36.4532 10.2396 36.8664C10.0614 37.5387 10.5312 38.3244 11.4142 38.9319C10.7298 39.21 10.1787 39.7408 9.87512 40.4143C10.5961 41.4187 12.9168 41.8359 13.7754 41.0259C13.8483 42.1964 14.0508 43.1887 15.7438 43.7435C16.0431 43.3279 16.2488 42.8524 16.3467 42.3497C16.4446 41.847 16.4323 41.329 16.3108 40.8315C17.1695 41.1028 18.5911 40.3049 19.1986 39.1223L19.2148 39.1304Z" fill="#FFC370"/>
<path fill-rule="evenodd" clip-rule="evenodd" d="M5.59297 13.8734C4.81129 17.1945 7.11988 21.1637 10.1696 22.3787C10.9392 18.77 8.20127 14.2339 5.59297 13.8734Z" fill="#B7B7B7"/>
<path fill-rule="evenodd" clip-rule="evenodd" d="M12.2066 11.5664C9.94262 13.3566 9.37155 17.1637 10.7526 19.5412C13.1463 17.5728 13.7255 13.1622 12.1945 11.5664H12.2066Z" fill="#B7B7B7"/>
<path fill-rule="evenodd" clip-rule="evenodd" d="M135.912 45.982C135.299 45.706 134.624 45.5971 133.956 45.6661C133.926 45.0563 133.763 44.4604 133.478 43.9205C132.89 44.2769 132.186 44.775 132.17 45.3421C131.931 44.8034 131.716 44.2404 130.493 43.5033C130.196 44.2304 130.135 45.0322 130.319 45.7957C129.537 45.4514 128.204 45.9577 127.84 46.4518C127.868 47.0593 128.468 47.5899 129.363 47.8653C128.865 48.2766 128.544 48.8641 128.468 49.5056C129.334 50.1577 131.38 49.9106 131.882 48.9953C132.255 49.9511 132.692 50.7288 134.243 50.745C134.384 50.3192 134.43 49.868 134.379 49.4225C134.328 48.977 134.181 48.548 133.948 48.165C134.737 48.165 135.718 47.1282 135.912 45.982V45.982Z" fill="#FFC87A"/>
</g>
</svg>
