<svg width="163" height="136" viewBox="0 0 163 136" fill="none" xmlns="http://www.w3.org/2000/svg">
<mask id="mask0_1_1569" style="mask-type:alpha" maskUnits="userSpaceOnUse" x="0" y="0" width="163" height="136">
<path d="M143.219 0H19.6297C8.78853 0 0 7.33959 0 16.3934V119.607C0 128.66 8.78853 136 19.6297 136H143.219C154.06 136 162.848 128.66 162.848 119.607V16.3934C162.848 7.33959 154.06 0 143.219 0Z" fill="white"/>
</mask>
<g mask="url(#mask0_1_1569)">
<path d="M148.107 0H20.2997C9.08848 0 0 7.33959 0 16.3934V119.607C0 128.66 9.08848 136 20.2997 136H148.107C159.318 136 168.406 128.66 168.406 119.607V16.3934C168.406 7.33959 159.318 0 148.107 0Z" fill="#2F5298"/>
<path d="M-21 49.8547C6.83333 27.688 65.3 -10.5453 76.5 13.8547C90.5 44.3547 74 63.3555 168 16.8555" stroke="#406BC0" stroke-width="0.5"/>
<path d="M9 59.8547C36.8333 37.688 95.3 -0.545332 106.5 23.8547C120.5 54.3547 104 73.3555 198 26.8555" stroke="#406BC0" stroke-width="0.5"/>
<path d="M-14 30.8547C13.8333 8.688 72.3 -29.5453 83.5 -5.14533C97.5 25.3547 81 44.3555 175 -2.14453" stroke="#406BC0" stroke-width="0.5"/>
<mask id="mask1_1_1569" style="mask-type:alpha" maskUnits="userSpaceOnUse" x="-22" y="-35" width="198" height="198">
<rect x="-22" y="-35" width="198" height="198" fill="#C4C4C4"/>
</mask>
<g mask="url(#mask1_1_1569)">
<rect opacity="0.01" x="-22" y="-35" width="198" height="198" fill="#C4C4C4" fill-opacity="0.01"/>
<path d="M98.2019 191.624C97.5663 180.899 96.248 142.458 109.177 133.5L110.716 135.72C106.038 138.962 102.807 147.853 101.373 161.433C100.083 173.64 100.594 186.279 100.899 191.464C100.943 192.205 100.381 192.841 99.6415 192.891C98.8931 192.941 98.2463 192.373 98.2019 191.624Z" fill="#454659"/>
<path d="M89.9333 183.501C89.2982 172.776 87.9805 134.334 100.909 125.376L102.448 127.597C97.7697 130.838 94.5387 139.73 93.1044 153.31C91.815 165.516 92.3255 178.157 92.6302 183.341C92.6741 184.082 92.1128 184.718 91.3724 184.768C90.6239 184.819 89.9776 184.25 89.9333 183.501Z" fill="#2F3560"/>
<path d="M158.643 184.768C157.903 184.718 157.341 184.082 157.385 183.341C157.691 178.157 158.202 165.516 156.912 153.31C155.477 139.73 152.246 130.838 147.568 127.597L149.107 125.376C162.037 134.334 160.719 172.776 160.083 183.501C160.038 184.25 159.392 184.819 158.643 184.768Z" fill="#373949"/>
<path d="M169.414 192.891C168.674 192.841 168.112 192.205 168.156 191.465C168.462 186.28 168.973 173.64 167.683 161.433C166.248 147.853 163.018 138.962 158.339 135.72L159.878 133.5C172.808 142.459 171.49 180.899 170.854 191.624C170.809 192.373 170.163 192.942 169.414 192.891Z" fill="#454659"/>
<path d="M100.134 136.531C85.89 127.737 116.719 95.8911 142.383 74.3892C168.048 52.8862 177.301 49.2586 184.374 53.6501C191.447 58.0423 169.691 127.125 162.226 133.235C154.762 139.346 110.351 142.838 100.134 136.531Z" fill="#454659"/>
<path d="M173.79 55.8879C161.968 59.539 123.165 95.8103 103.534 115.395C102.578 116.349 100.543 115.45 97.7914 117.757C95.4115 119.754 89.5562 132.657 100.126 136.557C101.983 137.242 104.428 138.369 107.653 138.908C109.576 127.779 134.887 106.932 147.813 94.755C161.496 81.8653 187.275 51.7235 173.79 55.8879Z" fill="#373949"/>
<path d="M103.292 115.488L124.938 115.883L125.722 114.918L103.292 115.488Z" fill="#FF9D33"/>
<path d="M115.652 128.609C116.596 127.09 117.791 125.742 118.995 124.426C120.204 123.109 121.447 121.825 122.707 120.558C125.24 118.037 127.825 115.572 130.414 113.112L146.043 98.4636C151.252 93.584 156.397 88.6364 161.37 83.5237C163.859 80.9689 166.297 78.3644 168.61 75.652C170.929 72.9481 173.142 70.1356 174.919 67.0345C173.285 70.2169 171.115 73.0919 168.882 75.8786C166.616 78.6467 164.217 81.3004 161.772 83.9075C156.87 89.1133 151.713 94.0645 146.538 98.9891C141.317 103.865 136.058 108.698 130.791 113.517C128.158 115.926 125.532 118.345 122.954 120.811C121.657 122.036 120.379 123.28 119.133 124.556C117.897 125.838 116.661 127.134 115.652 128.609Z" fill="#373949"/>
<path d="M117.561 97.4935C120.801 93.6381 124.477 90.1794 128.126 86.7212C131.796 83.2795 135.559 79.94 139.336 76.6187C143.157 73.3454 146.987 70.0845 150.907 66.9299C154.844 63.8053 158.771 60.6288 163.065 57.9955C160.978 59.3998 159.028 60.9875 157.07 62.5587C155.115 64.1367 153.179 65.7378 151.26 67.3597C147.419 70.5982 143.588 73.8511 139.81 77.1634C135.996 80.4361 132.245 83.7799 128.5 87.1291C126.624 88.8007 124.767 90.4937 122.935 92.2113C121.091 93.9177 119.275 95.6529 117.561 97.4935Z" fill="#373949"/>
<path d="M128.882 66.7863C129.28 67.0386 129.891 67.0493 130.33 67.1322C131.015 67.2615 131.7 67.3909 132.386 67.5203C135.343 68.0784 138.301 68.7311 141.285 69.1251C143.841 69.4619 146.59 69.5704 149.099 68.8701C151.19 68.2874 151.836 66.4987 152.266 64.5507C152.304 64.3796 152.151 64.2845 152.017 64.3026C152.02 61.1732 151.576 58.0801 151.157 54.9833C150.728 51.8138 150.58 48.6667 150.387 45.4795C150.226 42.8328 150.064 38.4776 148.542 36.2217C147.871 35.2263 146.917 34.4415 145.835 34.0769C141.946 31.265 136.342 31.9557 131.999 34.1897C129.953 35.2423 128.471 36.9439 127.878 39.1832C127.183 41.8 127.69 44.5178 128.044 47.1426C128.264 48.7693 128.366 50.3667 128.252 52.0068C128.167 53.2347 128.035 54.4632 128.283 55.6831C128.468 56.5924 128.874 57.4654 128.914 58.4014C128.942 59.1129 128.763 59.7924 128.597 60.4761C128.289 61.7479 128.16 62.9582 128.225 64.2695C128.264 65.0543 128.102 66.2924 128.882 66.7863Z" fill="#1D2251"/>
<path d="M131.753 49.5099C131.874 49.4998 131.979 49.5896 131.989 49.7093C131.999 49.8296 131.909 49.9349 131.789 49.9445C131.369 49.9788 131.169 50.8688 131.278 52.2106C131.385 53.5129 131.954 54.38 132.399 54.3436C132.844 54.3073 133.266 53.3594 133.159 52.0572C133.059 50.8261 132.764 49.9932 132.388 49.9119C132.388 49.9119 132.475 49.805 132.662 49.5623C133.154 49.8253 133.483 50.6673 133.594 52.0214C133.715 53.5049 133.206 54.7151 132.434 54.7782C131.664 54.8413 130.964 53.7294 130.844 52.2465C130.705 50.5411 131.028 49.5693 131.753 49.5099Z" fill="white"/>
<path d="M134.55 56.3409C135.787 57.4539 139.164 56.837 141.211 55.3979C143.459 53.8166 145.534 48.8134 145.534 48.8134C145.534 48.8134 146.836 46.1892 147.08 44.5999C147.409 42.4493 146.87 40.0223 145.634 38.218C144.317 36.2834 142.195 35.1148 139.947 34.5898C139.165 34.6241 138.394 34.6989 137.667 34.793C135.527 35.064 133.674 35.6007 132.456 37.0302C131.968 37.5958 131.577 38.31 131.314 39.1979C130.981 40.3077 130.853 41.4849 130.805 42.6503C130.792 42.8785 130.783 43.1009 130.779 43.326C130.778 43.3554 130.778 43.3874 130.777 43.4168C130.775 43.6034 130.773 43.7932 130.774 43.9798L130.773 44.0706L130.772 44.1695C130.77 44.3219 130.768 44.4705 130.774 44.6191C131.092 54.1983 133.058 55.0071 134.55 56.3409Z" fill="#FF9F8F"/>
<path d="M138.545 45.3934C138.591 45.1255 138.701 44.908 138.881 44.8556C139.582 44.6498 139.752 46.3658 139.248 46.655C138.693 46.9736 138.434 46.0359 138.545 45.3934Z" fill="#36303A"/>
<path d="M132.225 45.7129C132.279 45.4531 132.393 45.2452 132.57 45.2003C133.26 45.0228 133.369 46.6992 132.869 46.9649C132.318 47.2568 132.097 46.3352 132.225 45.7129Z" fill="#36303A"/>
<path d="M138.26 51.8109L134.126 52.1894C134.126 52.1894 134.517 53.2495 136.279 53.0474C137.985 52.8517 138.26 51.8109 138.26 51.8109Z" fill="white"/>
<path d="M145.029 47.3418C145.029 47.3418 146.044 58.051 146.54 58.8289C147.036 59.6072 152.976 62.2283 152.976 62.2283C152.976 62.2283 135.989 79.4658 135.683 79.3236C135.377 79.1814 130.035 64.5948 130.035 64.5948C130.035 64.5948 136.29 61.3537 136.384 60.8073C136.479 60.2615 135.572 55.4049 135.572 55.4049L145.029 47.3418Z" fill="#FF9F8F"/>
<path d="M136.687 57.0728C137.169 56.9996 138.072 56.7574 139.627 56.0175C142.192 54.7976 143.569 51.7473 143.626 51.6174C143.675 51.5078 143.625 51.379 143.515 51.3298C143.405 51.2812 143.276 51.3309 143.227 51.441C143.214 51.471 141.857 54.4742 139.439 55.6241C137.067 56.7521 136.301 56.6649 136.294 56.6639C136.177 56.6478 136.065 56.7275 136.046 56.8445C136.028 56.9616 136.102 57.0717 136.218 57.0937C136.251 57.0995 136.388 57.1182 136.687 57.0728Z" fill="#F07F69"/>
<path d="M61.6712 151.33C61.6712 151.33 62.2935 151.361 63.2862 151.41C63.7871 151.434 64.3858 151.463 65.0434 151.493C65.7752 151.528 66.5835 151.567 67.4217 151.601C70.418 151.732 73.8051 151.861 75.5345 151.859C78.3844 151.857 79.4332 154.071 81.3395 155.734C82.0248 156.332 82.8583 156.802 83.7628 156.912C84.5839 157.01 85.4151 156.809 86.2416 156.866C87.1691 156.934 87.8234 157.54 88.3527 158.33C88.459 158.49 90.2307 161.854 90.3472 161.767C91.0705 161.228 91.4693 160.256 91.9146 159.47C93.3804 156.873 94.8083 154.255 96.2233 151.629L96.2228 151.625C96.3954 151.31 96.5627 151 96.7327 150.686C97.9104 148.495 99.0849 146.298 100.272 144.112C101.608 141.643 102.947 139.172 104.314 136.719C104.795 135.863 105.437 133.978 106.295 133.409C106.658 133.168 108.383 132.753 110.93 132.185C112.224 131.899 113.733 131.573 115.382 131.216C115.712 131.141 116.05 131.067 116.392 130.994C116.611 130.943 116.833 130.894 117.057 130.846C124.312 129.247 133.616 127.076 139.701 124.638C140.685 124.244 141.585 123.842 142.379 123.433C142.578 123.332 142.771 123.229 142.956 123.127C143.319 122.925 143.656 122.721 143.963 122.517C144.155 122.389 144.333 122.262 144.501 122.133C144.659 122.011 144.809 121.889 144.943 121.766C145.187 121.549 145.389 121.333 145.555 121.114C146.072 120.429 146.534 119.72 146.945 118.996C147.178 118.584 147.395 118.169 147.599 117.749C150.092 112.587 150.222 107.226 150.122 106.606C150 105.848 151.116 100.522 151.116 100.522L120.792 94.7294L118.189 99.6523C118.189 99.6523 107.998 102.764 98.468 105.795C97.3208 106.158 96.1821 106.522 95.0713 106.88H95.0691C94.7404 106.986 94.4159 107.092 94.093 107.193C93.3195 107.443 92.5652 107.688 91.8344 107.928C88.3436 109.069 85.3927 110.069 83.72 110.712C83.3838 110.842 83.0502 110.987 82.7246 111.148C80.7836 112.094 78.9986 113.566 77.3681 115.373C72.048 121.266 68.3615 130.719 66.2408 137.186C66.1275 137.527 66.0227 137.861 65.9185 138.182C65.2278 140.346 64.1725 143.613 63.2894 146.351C62.8441 147.715 62.4437 148.95 62.154 149.847C61.8557 150.763 61.6712 151.33 61.6712 151.33Z" fill="#DE6A5B"/>
<path d="M93.329 145.29C94.0603 146.387 94.1192 146.652 95.0985 148.061C94.1689 147.194 92.779 146.582 91.6558 145.95C90.6203 145.367 89.5458 144.86 88.4676 144.368C87.9437 144.131 87.0734 143.633 86.611 144.266C85.8465 145.309 89.023 147.281 89.6618 147.687C90.5963 148.279 91.5975 148.771 92.6314 149.17C94.0368 149.708 95.9774 149.836 96.2505 151.63C96.4232 151.315 96.5905 151.005 96.7605 150.69C96.8492 146.853 97.8222 143.296 98.7898 139.57C99.4441 137.049 100.562 132.261 98.9983 129.855C97.9104 128.177 96.8407 131.757 96.6354 132.356C96.0399 134.085 95.6791 135.89 95.485 137.705C95.2038 140.336 95.2819 142.974 95.492 145.607C95.0461 144.381 94.4944 143.189 93.8294 142.049C93.1756 140.925 92.493 139.841 92.038 138.613C91.604 137.443 91.3335 136.223 91.0175 135.021C90.4744 132.942 89.7768 130.951 88.3206 129.326C87.6053 128.531 86.7794 127.84 85.9235 127.203C85.1901 126.656 84.3043 125.84 83.4324 125.544C80.5724 124.568 83.574 134.369 83.9269 135.528C84.517 137.47 85.5776 138.832 87.2151 140.006C88.2281 140.728 89.2727 141.387 90.082 142.355C90.7935 143.205 92.7127 144.372 93.329 145.29Z" fill="#ED7D74"/>
<path d="M143.381 115.98C143.881 117.19 144.113 118.448 144.393 119.721C144.545 120.412 144.731 121.093 144.95 121.762C145.194 121.546 145.397 121.329 145.563 121.11C146.079 120.425 146.542 119.716 146.952 118.992C147.129 117.16 147.569 115.181 147.869 113.732C148.277 111.761 148.136 110.042 147.255 108.214C146.163 105.956 144.701 103.844 143.404 101.703C142.956 100.968 141.685 98.9945 140.847 100.537C140.408 101.348 140.309 102.548 140.14 103.448C139.944 104.495 139.804 105.563 139.819 106.632C139.849 108.815 140.688 110.749 141.698 112.646C142.282 113.745 142.906 114.826 143.381 115.98ZM139.068 121.261C140.19 121.984 141.304 122.694 142.387 123.429C142.586 123.328 142.779 123.225 142.964 123.123C143.327 122.921 143.663 122.717 143.971 122.514C144.163 122.385 144.34 122.258 144.509 122.129C143.193 120.535 141.791 119.017 140.233 117.651C138.858 116.446 137.37 115.367 135.761 114.497C135.178 114.183 132.744 112.509 132.344 113.841C131.62 116.272 137.46 120.226 139.068 121.261Z" fill="#ED7D74"/>
<path d="M110.218 117.845C111.411 120.372 112.682 122.861 113.905 125.368C114.802 127.202 115.868 129.028 116.403 131.011C116.621 130.961 116.844 130.912 117.068 130.863C117.118 130.588 117.216 130.323 117.39 130.079C117.647 129.716 118.03 129.434 118.386 129.18C119.054 128.702 119.821 128.35 120.458 127.835C121.256 127.187 121.843 126.392 122.108 125.389C122.444 124.132 122.288 122.803 122.127 121.533C122.026 120.752 121.989 119.058 121.37 118.457C120.977 118.079 120.667 118.2 120.448 118.657C119.829 119.966 119.764 121.661 119.397 123.058C118.961 124.731 118.245 126.034 117.323 127.477C117.031 127.931 116.776 128.381 116.586 128.851C116.387 127.837 116.183 126.842 116.023 125.875C115.667 123.747 115.373 121.603 115.32 119.441C115.271 117.596 115.447 115.742 115.256 113.904C115.09 112.294 114.591 110.79 113.583 109.505C112.885 108.615 111.969 107.101 110.798 108.1C109.523 109.191 109.377 111.34 109.226 112.884C109.048 114.699 109.446 116.212 110.218 117.845ZM106.573 126.512C106.934 127.918 107.753 129.179 108.732 130.236C109.405 130.963 110.16 131.598 110.94 132.202C112.235 131.917 113.744 131.59 115.393 131.233C114.766 130.305 114.029 129.441 113.245 128.622C112.086 127.407 110.838 126.28 109.611 125.137C109.073 124.634 107.81 122.87 106.878 123.489C106.046 124.039 106.374 125.745 106.573 126.512Z" fill="#ED7D74"/>
<path d="M95.0907 106.882C95.5547 107.688 95.876 108.639 96.277 109.399C97.012 110.787 98.1769 111.58 99.5288 112.306C101.288 113.25 103.106 114.415 104.961 115.144C105.778 115.463 106.759 115.323 106.788 114.256C106.821 113.102 105.428 112.014 104.561 111.419C103.711 110.837 102.81 110.447 102.096 109.674C101.557 109.092 101.122 108.419 100.641 107.79C100.024 106.987 99.2957 106.315 98.4875 105.797C97.3397 106.16 96.2011 106.525 95.0907 106.882Z" fill="#ED7D74"/>
<path d="M91.8502 107.922C91.9897 108.142 92.1218 108.354 92.1833 108.563C92.4992 109.636 92.6564 110.762 93.0985 111.791C93.3241 112.325 93.6716 113.101 94.1644 113.44C94.3451 113.566 94.6066 113.602 94.7798 113.468C94.8776 113.391 94.9305 113.274 94.9743 113.159C95.4164 111.967 95.0075 110.462 94.792 109.257C94.6584 108.516 94.4435 107.819 94.1094 107.187C93.3353 107.438 92.581 107.682 91.8502 107.922Z" fill="#ED7D74"/>
<path d="M120.331 96.7587C120.331 96.7587 121.309 96.8966 122.895 97.1238C122.989 97.1377 123.083 97.1522 123.183 97.1661C123.592 97.2243 124.036 97.2917 124.513 97.3601C124.607 97.3746 124.701 97.389 124.798 97.4029C131.857 98.433 144.976 100.431 146.746 101.269C149.189 102.423 152.615 102.639 154.108 100.94C154.618 100.359 155.506 96.4995 156.444 91.5813C156.917 89.1094 157.404 86.3654 157.863 83.6375C157.914 83.337 157.964 83.0366 158.014 82.7303C158.234 81.4018 158.447 80.083 158.647 78.8081C158.666 78.6937 158.684 78.5787 158.7 78.467C159.588 72.7978 160.462 67.599 160.407 66.7287C160.363 66.0524 157.868 64.314 157.858 64.3086C155.829 63.0861 152 61.795 152 61.795C152 61.795 137.464 74.5897 137.3 74.2711C136.976 73.6365 131.033 64.0574 131.033 64.0574C131.033 64.0574 126.941 66.0097 126.508 66.9468C125.935 68.1838 125.546 69.539 125.247 70.8647C125.225 70.9652 125.204 71.0631 125.185 71.1604C124.829 72.8293 124.652 74.3678 124.618 75.1649C124.601 75.6123 124.402 76.5019 124.092 77.6587C124.068 77.7501 124.043 77.8453 124.017 77.9399C123.908 78.3376 123.79 78.7589 123.659 79.2047C123.635 79.2961 123.606 79.3913 123.58 79.4832C122.893 81.8381 121.984 84.7264 121.214 87.2411C120.586 89.2917 120.052 91.0948 119.807 92.1597C119.784 92.2544 119.766 92.3431 119.748 92.426C119.745 92.4318 119.745 92.4377 119.743 92.4436C119.668 92.813 119.61 93.1487 119.573 93.4571C119.559 93.5539 119.547 93.6512 119.536 93.7421C119.252 96.4845 120.331 96.7587 120.331 96.7587Z" fill="#FFB778"/>
<path d="M84.4424 111.289C84.4964 111.305 84.862 111.269 84.8572 111.264C85.0374 111.48 85.2614 111.633 85.5014 111.666C85.8964 111.719 90.8611 109.708 91.3 109.214C91.6245 109.04 91.965 108.905 92.3365 108.839C93.433 108.639 95.1917 107.565 96.0545 107.011C96.3646 106.807 96.5592 106.672 96.5592 106.672C96.5592 106.672 96.5597 106.569 96.5597 106.41C96.5538 105.937 96.5287 104.966 96.3838 104.797C96.1882 104.571 94.6411 103.756 94.6411 103.756C94.6411 103.756 94.6288 103.759 94.6031 103.762C94.5556 103.771 94.4625 103.784 94.3326 103.807L94.3294 103.807C93.2047 103.987 89.8887 104.605 88.4843 105.309C87.0276 106.042 86.1873 107.143 84.5178 108.655C84.2542 108.913 84.027 109.222 83.9538 109.565C83.8822 109.875 83.9794 110.181 84.2056 110.37C84.1409 110.509 84.1008 110.654 84.1051 110.803C84.1109 111.01 84.2457 111.218 84.4424 111.289Z" fill="#FF9F8F"/>
<path d="M94.3389 103.843L96.064 107.047L96.0741 107.063C96.0741 107.063 96.3313 106.976 96.791 106.815C97.1743 106.679 97.6982 106.494 98.3311 106.269C103.487 104.439 115.877 99.9332 118.368 98.052C121.534 95.6608 127.658 79.1936 127.658 79.1936L121.206 76.5212C121.206 76.5212 113.702 89.1732 112.819 90.7828C111.938 92.3961 110.94 93.2664 107.199 95.2786C104.405 96.7845 98.6032 100.825 95.8491 102.769C95.2359 103.204 94.7714 103.533 94.5292 103.706C94.4169 103.787 94.3496 103.834 94.3421 103.843L94.3389 103.843Z" fill="#FF9F8F"/>
<path d="M96.051 107.022C96.051 107.022 93.6802 109.545 92.4427 110.246C91.2052 110.945 89.9142 111.636 89.2893 111.383C88.6649 111.131 89.192 110.666 89.943 110.218C91.2656 109.428 91.4062 108.347 91.4062 108.347C91.4062 108.347 93.1227 106.933 93.6455 106.913C94.1683 106.891 96.051 107.022 96.051 107.022Z" fill="#FF9F8F"/>
<path d="M122.065 90.06C122.065 90.06 118.958 94.2832 117.777 96.669C116.597 99.0548 113.245 100.221 112.554 100.513C111.863 100.806 111.01 101.961 111.01 101.961C111.01 101.961 118.425 102.159 124.334 105.818C130.243 109.476 133.253 114.753 136.948 116.323C140.643 117.892 145.651 121.1 146.115 120.882C146.58 120.665 148.579 118.138 150.375 114.82C150.972 113.717 152.549 110.394 152.765 109.134C153.598 104.25 153.531 101.926 155.288 97.2619C155.288 97.2619 137.096 87.3539 136.878 87.3748C136.659 87.3956 122.065 90.06 122.065 90.06Z" fill="#FFB778"/>
<path d="M130.026 64.5588C130.026 64.5588 124.853 66.6672 122.799 69.9212C120.747 73.1741 115.634 81.0469 114.878 82.4555C113.62 84.8007 113.608 86.7477 112.279 89.0517C111.215 90.8949 113.962 92.9413 115.198 93.4059C115.57 93.5459 120.437 95.2742 120.451 95.2336C120.453 95.2272 132.756 77.4764 132.756 77.4764L130.026 64.5588Z" fill="#FFB778"/>
<path d="M123.062 105.32L124.346 109.077C124.346 109.077 146.992 105.165 150.607 103.277C151.662 102.728 159.594 86.1284 159.594 86.1284L148.733 81.9437C148.733 81.9437 145.252 95.305 144.65 96.0668C143.48 97.5545 141.759 97.593 137.627 99.0016C133.495 100.413 123.062 105.32 123.062 105.32Z" fill="#FF9F8F"/>
<path d="M116.573 81.8303C116.573 81.8303 111.631 89.4839 111.108 90.3104C110.586 91.1368 107.795 92.2231 106.5 93.7948C105.205 95.367 105.214 95.6663 103.162 96.6959C101.111 97.7255 98.4678 100.914 98.4678 100.914L101 105.66C101 105.66 103.787 105.355 106.095 104.706C108.402 104.058 108.161 104.006 110.968 102.711C113.776 101.416 113.827 102.057 116.858 100.387C119.888 98.7161 119.421 98.6145 121.216 96.8301C123.01 95.0457 123.546 88.024 123.546 88.024L116.573 81.8303Z" fill="#FFB778"/>
<path d="M156.892 63.7817C156.892 63.7817 161.662 65.7217 162.225 69.2965C163.31 76.1904 160.191 81.316 160.171 85.0998C160.146 89.9078 158.366 91.7077 157.554 92.3626C157.181 92.6635 155.945 92.3396 155.792 92.3407C152.172 92.3599 144.286 89.4806 144.286 89.4806C144.286 89.4806 145.105 83.2501 146.078 79.7331C147.053 76.2156 156.892 63.7817 156.892 63.7817Z" fill="#FFB778"/>
<path d="M157.411 86.3034C157.411 86.3034 161.371 87.9435 161.102 88.5919C160.834 89.2409 159.559 90.0935 159.846 91.2279C160.133 92.3623 159.292 93.6143 157.716 93.3919C156.14 93.1701 155.048 93.2807 151.871 92.4425C148.694 91.6048 143.875 89.9123 143.771 89.7076C143.668 89.5023 141.201 88.2685 143.008 87.1031C144.815 85.9377 157.411 86.3034 157.411 86.3034Z" fill="#FFB778"/>
<path d="M130.619 41.7863C130.939 41.0288 131.276 40.6402 132.011 40.2446C132.214 40.1345 132.395 40.0634 132.578 39.9153C133.426 39.23 133.543 38.1646 134.717 37.8454C135.31 37.6845 135.935 37.8577 136.54 37.8481C137.039 37.8406 137.479 37.7299 137.963 37.6209C139.394 37.3007 140.463 37.5899 141.599 38.3848C141.75 38.6189 141.903 38.8515 142.063 39.0808C142.577 40.4739 143.295 41.7805 144.109 43.0335C145.109 44.572 146.077 45.9133 147.951 46.3474C148.089 46.3794 148.221 46.2522 148.208 46.1154C148.123 45.1804 148.006 44.2283 147.835 43.2869C148.175 43.3307 148.528 43.3489 148.895 43.3355C149.176 43.3254 149.139 42.8908 148.859 42.9009C148.473 42.9148 148.104 42.8918 147.749 42.8384C147.176 40.0035 146.052 37.3092 143.662 35.5264C143.657 35.4382 143.607 35.3521 143.497 35.3254C143.43 35.3088 143.36 35.2923 143.292 35.2757C143.28 35.2714 143.02 34.8122 143.008 34.8106C140.175 34.1221 136.793 33.8949 134.015 35.0014C131.467 36.0161 130.762 38.7195 130.283 41.1603C130.268 41.2384 130.294 41.2988 130.336 41.3421C130.299 41.4276 130.262 41.5132 130.226 41.5971C130.117 41.8558 130.51 42.0445 130.619 41.7863Z" fill="#1D2251"/>
<path d="M144.144 44.1974C144.144 44.1974 144.958 42.9352 146.194 43.6692C147.43 44.4032 147.043 46.2603 146.66 47.3637C146.277 48.4665 145.074 49.5742 145.074 49.5742L144.144 44.1974Z" fill="#FF9F8F"/>
<path d="M125.247 105.064C125.247 105.064 122.247 104.432 118.989 105.977C117.965 106.462 117.849 106.94 117.023 107.066C116.196 107.192 114.624 106.28 114.175 106.47C113.726 106.661 113.882 107.042 113.884 107.299C113.886 107.556 113.64 108.028 113.89 108.462C114.14 108.897 114.814 110.834 115.984 111.023C117.152 111.213 119.318 111.275 120.665 110.703C122.011 110.13 125.786 108.351 125.786 108.351L126.801 106.091L125.247 105.064Z" fill="#FF9F8F"/>
<path d="M125.086 105.511C125.086 105.511 122.364 104.608 121.408 104.451C120.451 104.294 118.523 104.833 117.384 105.567C116.246 106.3 116.036 106.491 116.169 107.066C116.302 107.64 117.103 107.23 118.155 106.794C119.207 106.359 120.675 106.421 121.873 107.478C123.072 108.535 123.693 108.514 123.693 108.514L125.086 105.511Z" fill="#FF9F8F"/>
<path d="M121.443 108.383C121.443 108.383 119.394 109.25 118.711 109.113C118.028 108.976 116.877 107.534 116.368 107.244C115.858 106.954 115.573 107.043 115.666 107.792C115.761 108.54 116.952 109.63 116.952 109.63C116.952 109.63 118.353 110.297 118.514 110.396C118.677 110.495 119.349 110.564 119.659 110.346C119.968 110.127 121.443 108.383 121.443 108.383Z" fill="#FF9F8F"/>
<path d="M77.3908 115.36C78.0718 115.701 78.7614 116.019 79.4778 116.281C80.9981 116.837 82.5687 117.048 84.1639 116.708C85.2716 116.472 87.033 116.313 86.6497 114.82C86.2285 113.196 84.3622 112.122 83.0413 111.311C82.944 111.25 82.844 111.194 82.7473 111.136C80.8062 112.081 79.0212 113.553 77.3908 115.36Z" fill="#ED7D74"/>
<path d="M138.208 43.8707C138.64 43.8397 139.08 43.7692 139.506 43.766C140.023 43.7622 140.525 43.8515 141.037 43.8718C141.088 43.8739 141.674 43.8953 141.601 43.7686C141.479 43.5607 141.181 43.4276 140.976 43.3255C140.666 43.171 140.354 43.0737 140.011 43.0191C139.433 42.9261 138.854 42.924 138.271 42.9892C138.049 43.0138 137.781 43.0352 137.613 43.202C137.533 43.28 137.481 43.3682 137.455 43.4586C137.321 43.9231 137.932 43.8905 138.208 43.8707Z" fill="#1D2251"/>
<path d="M133.233 44.0195C133.303 43.9661 133.362 43.8928 133.376 43.8062C133.421 43.5175 133.091 43.3336 132.855 43.2984C132.612 43.262 132.366 43.3059 132.124 43.3267C131.611 43.3716 131.24 43.4491 130.753 43.6111C130.425 43.7207 130.133 43.8672 129.852 44.0703C129.666 44.204 129.393 44.3841 129.307 44.6092C129.256 44.7455 129.831 44.6295 129.88 44.6193C130.091 44.5755 130.289 44.4948 130.492 44.4253C130.692 44.3568 130.888 44.3264 131.096 44.2948C131.569 44.2227 132.046 44.1836 132.523 44.1778C132.743 44.1751 132.977 44.1756 133.17 44.0623C133.192 44.0495 133.213 44.035 133.233 44.0195Z" fill="#1D2251"/>
<path d="M135.29 50.2496C135.433 50.2277 135.566 50.1951 135.678 50.1588C135.793 50.1219 135.856 49.9989 135.818 49.8845C135.782 49.7701 135.659 49.706 135.545 49.7439C135.535 49.7466 134.527 50.0529 134.327 49.5328C134.253 49.3366 134.367 48.9806 134.523 48.4887C134.602 48.2418 134.69 47.9622 134.778 47.6377C134.809 47.5211 134.74 47.4014 134.623 47.3704C134.507 47.3389 134.388 47.4084 134.356 47.5249C134.272 47.8398 134.185 48.114 134.108 48.3562C133.917 48.9544 133.791 49.3499 133.92 49.6889C134.139 50.2603 134.774 50.3282 135.29 50.2496Z" fill="#F07F69"/>
<path d="M117.545 97.9475C117.594 97.94 117.642 97.9149 117.678 97.8732C117.693 97.855 119.252 96.023 120.524 94.2969C121.903 92.428 123.233 86.1477 123.629 83.8854C123.772 83.0653 123.873 82.2506 123.97 81.4632C124.192 79.6686 124.401 77.9735 125.073 76.7428C126.082 74.8943 125.307 68.6156 125.273 68.3494C125.258 68.2302 125.149 68.1452 125.029 68.1602C124.907 68.1708 124.825 68.2842 124.84 68.4039C124.848 68.4675 125.632 74.8082 124.69 76.5344C123.979 77.8377 123.764 79.5724 123.537 81.4092C123.441 82.1918 123.341 83.0006 123.199 83.81C122.656 86.9159 121.354 92.4387 120.174 94.0387C118.91 95.752 117.361 97.5722 117.346 97.5904C117.267 97.6824 117.278 97.8198 117.37 97.8978C117.421 97.9406 117.484 97.9566 117.545 97.9475Z" fill="#F2A266"/>
<path d="M124.088 79.4481C124.198 79.4316 124.279 79.3327 124.273 79.2193L123.809 71.5935C123.802 71.4733 123.698 71.3818 123.578 71.3888C123.46 71.3957 123.366 71.4995 123.374 71.6197L123.837 79.2461C123.845 79.3664 123.948 79.4578 124.068 79.4503C124.075 79.4497 124.082 79.4492 124.088 79.4481Z" fill="#F2A266"/>
<path d="M145.932 90.2534C146.031 90.2384 146.109 90.1572 146.117 90.054C146.119 90.0192 146.381 86.553 147.111 85.3208C147.668 84.3794 147.895 83.5513 148.27 82.1796C148.427 81.6081 148.604 80.9608 148.843 80.1584C149.152 79.1234 149.27 78.3777 149.374 77.7196C149.548 76.6259 149.673 75.8363 150.598 74.4298C152.06 72.2065 158.306 68.1934 158.369 68.1533C158.47 68.0881 158.5 67.9534 158.435 67.8518C158.37 67.7502 158.236 67.7203 158.134 67.7855C157.874 67.9523 151.747 71.8895 150.234 74.1903C149.257 75.6748 149.118 76.5473 148.944 77.6512C148.841 78.2959 148.726 79.0267 148.425 80.0338C148.184 80.841 148.006 81.4911 147.849 82.0647C147.471 83.4466 147.263 84.2073 146.735 85.0984C145.954 86.4188 145.693 89.8754 145.682 90.0219C145.673 90.1422 145.763 90.2464 145.883 90.255C145.9 90.2566 145.917 90.2555 145.932 90.2534Z" fill="#F2A266"/>
<path d="M151.214 83.2584C151.214 83.2584 143.404 91.4808 142.572 92.3725C141.74 93.2642 138.322 93.6705 136.408 95.2576C134.494 96.8443 134.412 97.2399 131.827 97.8407C129.243 98.4416 125.343 101.654 125.343 101.654L126.69 108.791C126.69 108.791 129.867 109.406 132.618 109.397C135.369 109.388 135.118 109.233 138.62 108.559C142.122 107.884 141.982 108.743 145.846 107.659C149.71 106.575 149.224 106.273 151.755 104.589C154.286 102.905 157.029 93.9062 157.029 93.9062L151.214 83.2584Z" fill="#FFB778"/>
<path d="M159.571 87.5023C159.649 87.4905 159.718 87.436 159.745 87.3558C159.783 87.242 159.722 87.1179 159.608 87.08C159.589 87.0736 157.713 86.4519 154.321 85.8007C150.904 85.1453 147.513 85.6976 147.48 85.7029C147.361 85.7227 147.281 85.835 147.301 85.9542C147.32 86.0712 147.431 86.1514 147.549 86.1332C147.552 86.1332 147.553 86.1327 147.594 86.1263C147.988 86.0664 151.104 85.6275 154.238 86.2295C157.599 86.8742 159.451 87.4879 159.47 87.4937C159.503 87.505 159.538 87.5076 159.571 87.5023Z" fill="#F2A266"/>
<path d="M159.399 90.2483C159.469 90.2376 159.531 90.1943 159.564 90.1265C159.615 90.0179 159.569 89.8875 159.46 89.8367C159.36 89.7886 156.991 88.6703 154.955 88.1961C152.919 87.7214 152.26 87.7155 152.233 87.715C152.114 87.715 152.015 87.8128 152.015 87.9336C152.015 88.0539 152.112 88.1512 152.233 88.1512C152.238 88.1512 152.888 88.1629 154.856 88.6211C156.847 89.084 159.249 90.2184 159.273 90.2296C159.314 90.2499 159.358 90.2548 159.399 90.2483Z" fill="#F2A266"/>
<path d="M154.15 89.8626C154.221 89.8513 154.286 89.8059 154.317 89.7348C154.343 89.6749 154.341 89.606 154.311 89.5472C154.248 89.4215 154.232 89.3921 147.648 87.9761C147.531 87.9509 147.414 88.0253 147.389 88.1434C147.364 88.261 147.439 88.377 147.556 88.4027C149.991 88.926 153.677 89.7316 154.014 89.839C154.019 89.8417 154.024 89.8444 154.029 89.8465C154.069 89.8636 154.11 89.8684 154.15 89.8626Z" fill="#F2A266"/>
<path d="M150.069 76.6378C150.085 76.6356 150.102 76.6308 150.117 76.6249C150.153 76.6105 153.738 75.1735 156.099 73.6911C158.405 72.2435 159.479 72.0671 159.489 72.0655C159.608 72.0478 159.69 71.9361 159.672 71.8169C159.654 71.6982 159.542 71.6164 159.423 71.6346C159.376 71.6416 158.249 71.8265 155.867 73.3217C153.539 74.7828 149.991 76.2053 149.956 76.2197C149.843 76.2641 149.789 76.3913 149.834 76.503C149.872 76.5993 149.971 76.6527 150.069 76.6378Z" fill="#F2A266"/>
<path d="M145.098 48.4347C145.218 48.4246 145.323 48.5144 145.333 48.6341C145.343 48.7544 145.253 48.8597 145.133 48.8694C144.713 48.9036 144.513 49.7936 144.622 51.1354C144.729 52.4377 145.299 53.3048 145.744 53.2684C146.188 53.2321 146.61 52.2843 146.504 50.982C146.403 49.7509 146.108 48.918 145.732 48.8367C145.732 48.8367 145.819 48.7298 146.006 48.4871C146.499 48.7501 146.828 49.5921 146.938 50.9462C147.059 52.4297 146.55 53.64 145.779 53.703C145.008 53.7661 144.309 52.6542 144.188 51.1713C144.049 49.4659 144.372 48.4941 145.098 48.4347Z" fill="white"/>
<path d="M134.152 99.5811C134.168 99.5763 134.183 99.5694 134.198 99.5603C134.231 99.5405 137.541 97.5497 139.634 95.7097C141.68 93.9119 142.711 93.5666 142.721 93.5634C142.836 93.5265 142.899 93.4035 142.862 93.2886C142.825 93.1742 142.702 93.1111 142.588 93.148C142.542 93.1624 141.459 93.5249 139.346 95.382C137.282 97.1958 134.007 99.1668 133.974 99.1866C133.871 99.2481 133.837 99.3823 133.898 99.4854C133.952 99.5742 134.058 99.6116 134.152 99.5811Z" fill="#F2A266"/>
<path d="M20.6628 187.456H85.4031C89.9251 187.456 93.3753 183.757 93.0695 179.235L82.5982 24.2213C82.2929 19.6993 78.3435 16 73.8215 16H9.08064C4.55916 16 1.10898 19.6993 1.41476 24.2213L11.8856 179.235C12.1914 183.757 16.1408 187.456 20.6628 187.456Z" fill="#1A2E35"/>
<path d="M6.30519 79.1166H7.93886C9.20101 79.1166 10.1643 78.0838 10.0793 76.8211L8.07679 47.1807C7.99125 45.9181 6.88894 44.8853 5.62627 44.8853H3.99313C2.73045 44.8853 1.76767 45.9181 1.85267 47.1807L3.85467 76.8211C3.9402 78.0838 5.04304 79.1166 6.30519 79.1166Z" fill="#1A2E35"/>
<path d="M83.5297 59.3435H85.1596C86.1913 59.3435 86.9798 58.4989 86.9103 57.4661L86.1876 46.7622C86.1176 45.7299 85.2146 44.8853 84.1834 44.8853H82.553C81.5202 44.8853 80.7327 45.7299 80.8022 46.7622L81.5255 57.4661C81.5956 58.4989 82.4969 59.3435 83.5297 59.3435Z" fill="#1D2251"/>
<path d="M84.8212 78.4512H86.4512C87.4834 78.4512 88.2714 77.6066 88.2014 76.5738L87.4786 65.8699C87.4091 64.8376 86.5068 63.9924 85.4745 63.9924H83.8446C82.8118 63.9924 82.0243 64.8376 82.0938 65.8699L82.8171 76.5738C82.8866 77.6066 83.7884 78.4512 84.8212 78.4512Z" fill="#1D2251"/>
<path d="M22.02 187.456H86.7604C91.2824 187.456 94.7326 183.757 94.4268 179.235L83.9554 24.2213C83.6502 19.6993 79.7002 16 75.1781 16H10.4378C5.91579 16 2.46614 19.6993 2.77139 24.2213L13.2427 179.235C13.548 183.757 17.498 187.456 22.02 187.456Z" fill="#383D70"/>
<path d="M93.7491 177.524L83.5275 26.2025H3.47086L13.6926 177.524H93.7491Z" fill="#719BEC"/>
<path d="M50.8666 19.8097H35.2547C34.6971 19.8097 34.2716 20.2662 34.3095 20.8233C34.3475 21.3808 34.8345 21.8368 35.3921 21.8368H51.0034C51.561 21.8368 51.9865 21.3808 51.9486 20.8233C51.9112 20.2662 51.4242 19.8097 50.8666 19.8097Z" fill="#1D2251"/>
<path d="M11.5169 70.5211C24.8376 71.6533 37.7247 78.0806 47.9336 87.9698C50.7145 90.663 53.1217 93.507 55.2376 96.5012C58.5359 101.155 61.1324 106.165 63.3589 111.512C63.8764 119.136 65.8169 124.945 69.2965 128.715C72.1816 131.853 76.1279 133.581 81.1941 133.774C90.5755 134.132 96.8771 142.444 100.344 148.806C97.7714 146.182 94.958 144.051 91.3624 143.377C76.2573 139.97 57.0327 138.023 53.8284 120.013C50.1665 98.5967 34.1457 82.5342 15.3793 78.1533C6.68165 76.2064 -1.5573 75.7199 -10.2544 78.1533C-11.0258 78.381 -11.7865 78.6205 -12.5413 78.867C-7.57935 74.0157 -0.665621 70.3901 8.48158 70.3901C9.46574 70.3901 10.4788 70.4329 11.5169 70.5211Z" fill="#965853"/>
<path d="M-12.5413 78.8671C-11.7865 78.6212 -11.0258 78.3811 -10.2544 78.1534C-1.55727 75.72 6.68169 76.2065 15.3793 78.1534C34.1458 82.5343 50.1666 98.5968 53.8285 120.013C57.0322 138.023 76.2573 139.97 91.3624 143.377C94.958 144.052 97.7715 146.182 100.344 148.806C102.523 152.803 103.583 156.031 103.583 156.031H90.0645C86.9821 154.694 83.904 153.342 80.7665 152.196C67.4512 146.884 55.0532 141.041 41.2787 137.854C19.2769 133.388 -1.75185 134.93 -22.8988 136.48C-23.041 122.715 -23.0982 105.612 -22.6229 99.0111C-22.2509 93.8444 -19.1033 85.2826 -12.5413 78.8671Z" fill="#965853"/>
<path d="M41.2887 137.825C55.0638 141.012 67.4612 146.855 80.7766 152.167C83.914 153.313 86.9921 154.665 90.075 156.001H74.9865H54.8943H-22.6129L-22.6155 155.91C-22.6326 154.957 -22.7834 146.614 -22.8887 136.451C-1.74178 134.9 19.287 133.359 41.2887 137.825Z" fill="#965853"/>
<path d="M8.48158 70.3901H13.4174C12.8689 70.4131 12.2295 70.4521 11.5169 70.5211C4.19051 71.2182 -10.7457 74.9576 -13.2887 93.6738C-16.6827 118.646 -11.5914 133.191 3.6864 133.774C18.9615 134.356 26.0762 156.03 26.0762 156.03H103.583V173.312H-22.6235V156.03L-22.6256 155.938C-22.6657 153.696 -23.4489 110.484 -22.6235 99.011C-21.9697 89.9365 -12.7621 70.3901 8.48158 70.3901Z" fill="#783B36"/>
<g style="mix-blend-mode:multiply">
<g style="mix-blend-mode:multiply">
<path d="M1.2405 169.282H-20.7313V120.739C-20.7313 120.739 -19.0869 159.106 -17.4859 163.73C-15.8832 168.354 1.2405 169.282 1.2405 169.282Z" fill="#BF6A65"/>
</g>
</g>
<path d="M50.3631 45.3779C51.6916 43.7052 52.1048 42.265 51.0025 40.5394C48.5947 36.769 45.8957 33.8481 40.228 34.9338C37.0601 35.5411 32.3916 36.8326 31.2728 38.678C29.8037 41.1018 30.1715 44.7011 28.9233 46.5203C27.9664 47.9145 25.4704 49.4017 25.2887 51.6229C25.0925 54.0242 27.5238 57.1125 25.9083 59.4101C24.4916 61.4244 20.2604 61.3694 22.8114 67.7886C23.3043 69.0288 23.8747 70.3615 23.9415 71.6627C24.0014 72.8324 23.0664 74.5965 22.8355 75.1508C21.9042 77.38 23.2947 78.7315 25.1032 80.3331C25.8307 80.9778 26.3151 82.2709 25.9842 83.1252C26.9865 94.0836 44.5357 67.9928 45.9261 66.0202C47.2546 64.1363 45.9662 56.3502 47.0637 55.8274C49.6944 54.5743 52.4897 51.9794 52.401 49.1424C52.3839 48.6073 50.7186 44.9305 50.3631 45.3779Z" fill="#2D2E57"/>
<path d="M71.6068 100.09C72.3589 99.9944 75.7754 99.1139 78.111 99.0578C80.7192 98.9947 86.6595 102.937 85.8469 103.241C85.5828 103.341 73.4436 103.241 71.3865 103.241L71.6068 100.09Z" fill="#FF9F8F"/>
<path d="M71.3317 104.856C70.3904 105.532 53.1218 103.4 50.7114 102.636C44.2815 100.6 39.8782 78.4662 39.8782 78.4662L46.8117 71.9989C46.8641 78.2027 53.1261 94.0877 54.5572 95.6433C55.5146 96.6842 69.9691 100.319 71.6151 99.4346L71.3317 104.856Z" fill="#F2F2F2"/>
<path d="M83.3391 134.139C84.999 136.943 85.4908 150.71 86.1852 163.866C86.854 176.548 87.8462 190.715 87.4789 191.909C87.0614 193.269 83.0136 193.417 83.3012 192.006C83.5893 190.595 70.4194 154.146 70.6979 150.613C70.9759 147.08 74.0278 139.161 74.0278 139.161C74.0278 139.161 80.0792 128.634 83.3391 134.139Z" fill="#F78E81"/>
<path d="M25.5821 114.527C18.7753 118.355 12.9495 126.566 13.9406 131.645C15.5609 139.95 21.1847 141.099 33.0187 142.801C44.8527 144.502 59.452 143.131 61.3707 143.983C58.818 144.582 50.292 150.572 48.9652 152.931C47.0877 156.272 38.5901 184.145 38.5901 185.847C38.5901 187.549 39.9596 189.122 41.6612 188.744C42.5524 188.546 52.6132 171 63.8287 159.675C71.7367 151.69 79.3443 144.732 79.3325 139.418C79.3074 128.017 35.3713 123.749 35.3713 123.749L25.5821 114.527Z" fill="#FF9F8F"/>
<path d="M72.672 127.074C69.7109 125.935 57.9128 120.986 55.977 121.1C55.3452 121.137 55.1281 120.308 51.6395 119.654C50.9172 115.318 51.7106 116.239 50.9172 105.921C50.194 96.5247 49.5551 90.6967 50.194 89.2966C50.8333 87.8966 50.8135 85.0275 51.3968 79.4716C51.5828 77.7021 47.5579 71.8602 43.6849 67.9514C43.0113 67.2708 39.3441 66.3444 37.5458 65.8948C36.5616 65.6489 35.1396 66.1194 34.1726 66.786C31.2415 68.8078 27.0408 73.6436 26.1245 77.5348C24.9099 82.693 24.788 97.3084 22.8144 102.363C19.4551 110.967 13.9008 114.903 13.3539 123.537C12.7985 132.302 14.5781 143.314 33.6262 143.134C52.3654 142.956 52.5739 149.429 52.5472 149.441C52.5787 149.427 81.8609 135.241 82.7323 133.891C83.6042 132.54 75.633 128.212 72.672 127.074Z" fill="white"/>
<path d="M43.9407 57.7666C42.2338 62.8419 42.5866 66.4332 43.6258 68.8179C44.6645 71.2027 33.6672 68.4699 34.4493 67.4024C35.9969 65.2892 39.0049 58.0953 38.0438 53.0334C37.5525 50.4476 43.9407 57.7666 43.9407 57.7666Z" fill="#F78E81"/>
<path d="M47.4719 40.2573C52.8835 48.7208 49.9133 58.4716 45.9093 59.0361C43.3471 59.3975 38.5668 56.6823 36.3574 51.6118C35.6625 52.1469 33.1713 50.8912 33.762 48.9325C34.3073 47.1219 35.7608 48.8812 36.2804 48.6545C36.6985 44.1774 47.7525 45.7934 47.4719 40.2573Z" fill="#FF9F8F"/>
<path d="M35.7502 68.1069C35.0253 67.4846 38.6791 69.6834 41.3814 69.6834C44.0848 69.6834 43.6341 68.8029 43.6341 68.8029C43.6341 68.8029 47.0127 77.5674 46.5626 79.3695L44.1265 79.3721C44.1265 79.3721 37.3272 69.4583 35.7502 68.1069Z" fill="#E2E2E2"/>
<path d="M39.8711 78.4449L35.0593 74.8766L37.0864 72.6238L32.5815 71.4975L31.0051 67.4432L35.9542 64.8206C35.9542 64.8206 33.7079 65.6411 35.735 68.1189C37.7627 70.5967 42.7177 77.5794 42.7177 77.5794L39.8711 78.4449Z" fill="white"/>
<path d="M39.653 78.7096L40.0556 78.1664L35.5421 74.8194L37.6965 72.4256L32.8163 71.2057L31.3863 67.5288L34.4692 66.8862C34.0041 68.0784 34.3372 66.9579 35.4566 68.3264C37.4532 70.7668 42.3762 77.6987 42.4259 77.7682L42.9765 77.3774C42.9268 77.3074 37.991 70.3567 35.9794 67.8982C34.1576 65.6711 36.0131 65.4936 36.1157 65.3734L35.6309 64.9045L30.5892 67.3433L32.3133 71.7766L36.4424 72.8089L34.5425 74.9199L39.653 78.7096Z" fill="#F7F6F1"/>
<path d="M44.9521 94.7219C44.9521 95.095 45.2541 95.3976 45.6278 95.3976C46.0009 95.3976 46.3035 95.095 46.3035 94.7219C46.3035 94.3487 46.0009 94.0461 45.6278 94.0461C45.2541 94.0461 44.9521 94.3487 44.9521 94.7219Z" fill="#F7F6F1"/>
<path d="M43.8705 101.253C43.8705 101.626 44.1731 101.929 44.5468 101.929C44.9199 101.929 45.222 101.626 45.222 101.253C45.222 100.88 44.9199 100.578 44.5468 100.578C44.1731 100.578 43.8705 100.88 43.8705 101.253Z" fill="#F7F6F1"/>
<path d="M41.594 108.432C41.594 108.805 41.896 109.107 42.2697 109.107C42.6428 109.107 42.9454 108.805 42.9454 108.432C42.9454 108.058 42.6428 107.756 42.2697 107.756C41.896 107.756 41.594 108.058 41.594 108.432Z" fill="#F7F6F1"/>
<path d="M40.0042 115.874C40.0042 116.248 40.3068 116.55 40.6804 116.55C41.0536 116.55 41.3556 116.248 41.3556 115.874C41.3556 115.501 41.0536 115.199 40.6804 115.199C40.3068 115.199 40.0042 115.501 40.0042 115.874Z" fill="#F7F6F1"/>
<path d="M48.5662 80.7433C48.7918 80.0676 49.4675 74.2108 49.4675 74.2108L47.2153 73.0849L48.3411 70.3816L43.965 68.038C43.965 68.038 44.0613 69.0301 44.737 71.2829C45.4132 73.5351 46.539 79.3919 46.539 79.3919L48.5662 80.7433Z" fill="white"/>
<path d="M48.8771 80.8626C49.1065 80.1735 49.7234 74.8652 49.7929 74.2627L49.8201 74.0269L47.638 72.9359L48.7216 70.3351L43.0828 67.0972L42.8856 67.5163C42.8989 67.5703 43.7329 69.158 44.4038 71.3925C45.0666 73.6025 46.1861 79.4096 46.1973 79.4679L46.8607 79.3407C46.8147 79.1006 45.7236 73.441 45.0511 71.1985C44.6005 69.6984 44.91 71.5705 44.4604 69.8059L47.9406 70.4527L46.7714 73.2582L49.0942 74.4199C48.8215 76.7618 48.388 80.1933 48.2356 80.6493L48.8771 80.8626Z" fill="#F7F6F1"/>
<path d="M66.6884 104.883L67.5897 99.2522L66.922 99.1453L66.0207 104.777L66.6884 104.883Z" fill="white"/>
<path d="M33.2642 112.496C32.3629 112.046 22.2272 110.469 22.2272 110.469L21.1008 114.073L31.9127 116.101L33.2642 112.496Z" fill="#F7F6F1"/>
<path d="M22.4593 110.856L21.5334 113.819L31.6921 115.723L32.8233 112.708C31.4467 112.324 26.1528 111.433 22.4593 110.856Z" fill="#F7F6F1"/>
<path d="M22.4367 114.997L20.6346 120.854L28.9687 122.205L30.7708 117.024L22.4367 114.997Z" fill="#F7F6F1"/>
<path d="M49.3646 76.9854L49.4245 76.7914C49.4919 76.8112 49.5619 76.8331 49.633 76.8673C51.1063 77.559 49.873 81.5887 48.5799 84.8475C45.5408 92.4963 45.8824 95.9561 45.8867 95.9898L45.2703 95.8225C45.2665 95.7883 44.9196 92.3167 47.9667 84.6513C50.3707 78.5945 49.6667 77.2618 49.3646 76.9854Z" fill="#545454"/>
<path d="M47.6417 96.9936C47.3781 98.1323 46.487 98.978 45.6503 98.8828C44.8148 98.7871 44.3508 97.7869 44.6143 96.6483C44.8779 95.5096 45.769 94.6634 46.6056 94.7591C47.4412 94.8542 47.9052 95.855 47.6417 96.9936Z" fill="#253238"/>
<path d="M47.1294 96.908C46.9578 97.651 46.3757 98.2033 45.8299 98.1413C45.2846 98.0787 44.9815 97.4255 45.1537 96.6824C45.3258 95.9393 45.9074 95.3871 46.4527 95.4497C46.999 95.5117 47.3016 96.1649 47.1294 96.908Z" fill="#C1C1C1"/>
<path d="M47.0181 95.8774C47.0331 96.0485 47.0224 96.2335 46.9781 96.4254C46.8065 97.169 46.2248 97.7207 45.6785 97.6587C45.4251 97.6293 45.2305 97.4635 45.1054 97.2289C45.1482 97.7207 45.4171 98.0933 45.8217 98.1393C46.367 98.2018 46.9492 97.6496 47.1208 96.9065C47.2127 96.5093 47.1619 96.1463 47.0181 95.8774Z" fill="#E5E5E5"/>
<path d="M43.0307 102.036L43.4669 101.381C42.2304 100.559 41.5077 99.4131 41.3152 97.974C40.6625 93.0644 46.1644 86.0491 47.573 84.3438C52.9535 92.0091 54.5455 98.3268 51.824 101.294L52.4067 101.827C53.8661 100.235 56.3508 95.2578 47.9216 83.4708L47.6323 83.0667L47.3041 83.4398C46.9951 83.7915 39.7446 92.1262 40.5348 98.0777C40.7571 99.752 41.597 101.084 43.0307 102.036Z" fill="#545454"/>
<path d="M42.3694 101.668C42.3529 102.164 42.7404 102.579 43.2365 102.596C43.7321 102.613 44.1475 102.224 44.1641 101.729C44.1812 101.233 43.7925 100.818 43.297 100.801C42.8014 100.784 42.386 101.173 42.3694 101.668Z" fill="#253238"/>
<path d="M51.19 101.647C51.1735 102.142 51.5616 102.558 52.0571 102.574C52.5532 102.591 52.9681 102.203 52.9847 101.707C53.0018 101.212 52.6131 100.796 52.1175 100.78C51.6225 100.763 51.2066 101.151 51.19 101.647Z" fill="#253238"/>
<path d="M36.8659 62.6952L36.6077 63.2688C36.6077 63.2688 33.9332 63.7643 37.4764 66.7061C42.4416 71.4832 46.6428 83.6443 46.6428 83.6443L46.2606 84.0784C46.2606 84.0784 41.3264 70.5754 37.0942 67.1402C34.9109 65.3681 35.0906 63.9381 35.3996 63.2298C35.3996 63.2298 35.8882 62.6952 36.8659 62.6952Z" fill="#545454"/>
<path d="M80.3784 82.2602C80.7494 81.9528 79.9641 81.0991 80.3672 80.464C80.8927 79.636 82.5643 78.84 83.3239 77.9911C84.3134 76.8845 84.3915 75.7907 84.8609 75.4737C84.9977 75.3812 85.7092 76.2339 85.6969 76.9481C85.682 77.8521 83.9922 78.7844 84.6422 78.9266C87.9726 79.6536 91.3538 75.7843 92.3743 75.618C93.2601 75.4737 88.6323 83.8468 82.7557 84.7722C78.4112 85.4565 80.3784 82.2602 80.3784 82.2602Z" fill="#FF9F8F"/>
<path d="M34.0293 82.2133C41.6641 88.5122 57.6631 98.1095 62.1696 96.1455C66.6766 94.182 83.0417 86.1601 83.0417 86.1601L79.4964 79.1079C79.4964 79.1079 62.3128 87.0079 61.0999 87.5366C59.8864 88.0653 43.1711 79.3757 41.7219 77.9447C40.2737 76.5131 34.0293 82.2133 34.0293 82.2133Z" fill="white"/>
<path d="M78.0902 86.387C78.0902 86.7602 78.3928 87.0627 78.7664 87.0627C79.1396 87.0627 79.4416 86.7602 79.4416 86.387C79.4416 86.0139 79.1396 85.7113 78.7664 85.7113C78.3928 85.7113 78.0902 86.0139 78.0902 86.387Z" fill="#F7F6F1"/>
<path d="M76.6272 88.7384L77.2505 88.477L74.3221 81.4943L73.6988 81.7557L76.6272 88.7384Z" fill="#F7F6F1"/>
<path d="M47.0981 49.632C46.9655 49.4785 46.717 49.6747 46.8506 49.8292C47.1906 50.2221 47.5691 50.607 47.8519 51.0454C48.0165 51.3004 48.1822 51.6297 48.202 51.9419C48.2592 52.8298 47.4542 52.926 46.7971 52.9148C46.5956 52.911 46.5539 53.2248 46.7571 53.2286C47.5434 53.2419 48.4501 53.0805 48.5196 52.1295C48.5923 51.1352 47.6867 50.3125 47.0981 49.632Z" fill="#F28E81"/>
<path d="M41.4872 48.8089C41.9438 48.7934 42.3923 48.4379 42.7943 48.2561C43.2134 48.0663 43.5929 48.0262 44.0399 47.9557C44.189 47.9322 44.3681 47.9161 44.4991 47.8306C45.1812 47.389 44.3168 46.8063 43.8624 46.6914C42.9039 46.4482 41.8288 46.9373 41.1098 47.5494C41.0767 47.5777 40.9965 47.6585 40.9762 47.6841C40.572 48.1973 40.7485 48.834 41.4872 48.8089Z" fill="#1D2251"/>
<path d="M47.1694 47.1489C47.3276 47.1382 47.4811 47.0457 47.6142 46.9762C48.0162 46.7704 48.3455 46.5779 48.7967 46.4806C49.173 46.4031 49.6574 46.409 50.0263 46.2369C49.9658 45.9739 49.9022 45.6916 49.8343 45.3944C49.7991 45.2377 49.76 45.0779 49.7205 44.9154C48.7844 44.8518 47.6334 45.0918 47.0074 45.8525C46.7112 46.2144 46.3579 47.1964 47.1694 47.1489Z" fill="#1D2251"/>
<path d="M45.8578 55.0629C46.0973 55.0613 46.2849 55.0212 46.4544 54.8689C46.5517 54.7737 46.7704 54.3562 47.0879 54.3498C47.3007 54.3455 47.4658 54.4471 47.569 54.5973C47.6845 54.3931 47.8465 54.2226 48.0849 54.1488C48.2458 54.0986 48.434 54.1002 48.574 54.2071C48.8055 54.3846 48.6719 54.8208 48.6387 54.8769C48.2004 55.6291 47.1451 55.7333 46.3838 55.636C46.1807 55.6098 45.7712 55.4612 45.7145 55.2698C45.6867 55.1752 45.752 55.0635 45.8578 55.0629Z" fill="#F28E81"/>
<path d="M43.8145 49.4535C43.6932 49.2098 43.5253 49.0334 43.3377 49.0344C42.6074 49.0387 42.9367 50.7312 43.5028 50.8638C44.1257 51.0097 44.1048 50.0373 43.8145 49.4535Z" fill="#36303A"/>
<path d="M49.4243 47.9492C49.3158 47.707 49.1591 47.529 48.9763 47.5226C48.2653 47.4985 48.5203 49.1589 49.0661 49.3102C49.6664 49.4765 49.6835 48.5292 49.4243 47.9492Z" fill="#36303A"/>
<path d="M120.082 44.9248C120.082 49.2875 115.295 52.8238 109.389 52.8238C103.484 52.8238 98.6967 49.2875 98.6967 44.9248C98.6967 40.5621 103.484 37.0259 109.389 37.0259C115.295 37.0259 120.082 40.5621 120.082 44.9248Z" fill="#BED2F9"/>
<path d="M115.198 50.235L120.427 51.5661L118.497 47.2451L115.198 50.235Z" fill="#BED2F9"/>
<path d="M58.2481 55.0882C58.2481 59.4568 63.0422 62.9984 68.9552 62.9984C74.8692 62.9984 79.6634 59.4568 79.6634 55.0882C79.6634 50.7196 74.8692 47.178 68.9552 47.178C63.0422 47.178 58.2481 50.7196 58.2481 55.0882Z" fill="#FFC72D"/>
<path d="M63.1057 60.3998L57.868 61.7325L59.8015 57.4056L63.1057 60.3998Z" fill="#FFC72D"/>
</g>
</g>
</svg>
