<svg xmlns="http://www.w3.org/2000/svg" width="2021.798" height="638.838" viewBox="0 0 2021.798 638.838"> <defs> <style>.cls-3{opacity:.16;fill:none;stroke:#db4437}</style> </defs> <g id="Group_88529" data-name="Group 88529" opacity="0.21" transform="translate(62.314 -2631.123)"> <g id="Group_88502" data-name="Group 88502"> <g id="Group_88501" data-name="Group 88501" transform="translate(0 1)"> <path id="Path_183801" fill="#db4437" d="M5369.178-19042.67s79.54-107.18 447.959-70.043 639.885 201.381 1025.716 218.59 517.606-149.752 517.606-149.752v370.758s-177.284 97.824-517.606 102.652-436.483-146.73-812.025-152.166-690.142 198.059-690.142 198.059z" data-name="Path 183801" opacity="0.16" transform="translate(-5403 21793.533)"/> <path id="Path_183802" d="M5362.851-19137.211s249.7-119.9 644.239-69.646 597.543 252.471 933.909 270.674 411.553-197.861 411.553-197.861" class="cls-3" data-name="Path 183802" transform="translate(-5403 21939)"/> <path id="Path_183803" d="M5362.851-19137.211s249.7-119.9 644.239-69.646 597.543 252.471 933.909 270.674 411.553-197.861 411.553-197.861" class="cls-3" data-name="Path 183803" transform="rotate(-6.02 212131.916 43295.892)"/> </g> </g> </g></svg>